{"glyphs":{"0":{"ha":770,"x_min":77,"x_max":694,"o":"m 392 -12 q 227 39 298 -12 q 116 182 155 91 q 77 396 77 274 q 119 609 77 517 q 232 755 160 701 q 395 808 304 808 q 551 758 483 808 q 656 615 618 707 q 694 403 694 524 q 655 192 694 286 q 547 43 616 98 q 392 -12 477 -12 m 397 46 q 497 86 454 46 q 564 200 540 126 q 587 370 587 274 q 532 648 587 547 q 385 750 477 750 q 241 663 293 750 q 189 418 189 575 q 214 222 189 307 q 288 92 240 138 q 397 46 335 46 z "},"1":{"ha":446,"x_min":69,"x_max":391,"o":"m 278 258 q 279 149 278 190 q 281 87 279 107 q 283 62 282 68 l 391 45 l 388 0 l 83 0 l 80 45 l 184 62 q 186 96 186 71 q 189 163 187 122 q 190 258 190 203 l 190 549 q 188 618 190 583 q 183 688 186 654 l 73 662 l 69 713 l 281 810 q 279 720 279 774 q 278 570 278 665 l 278 258 z "},"2":{"ha":650,"x_min":38,"x_max":594,"o":"m 69 -3 l 65 39 q 275 245 198 157 q 387 407 353 334 q 420 553 420 480 q 378 678 420 631 q 258 726 336 726 q 69 616 141 726 l 38 639 q 135 763 71 718 q 282 808 199 808 q 409 779 354 808 q 495 699 464 750 q 526 578 526 647 q 434 338 526 467 q 156 68 342 209 l 163 90 l 463 90 q 485 91 472 90 q 502 95 498 92 l 548 213 l 594 208 l 568 -5 q 530 -2 548 -3 q 492 -1 513 -1 q 441 0 472 0 l 170 0 q 119 -1 144 0 q 69 -3 94 -1 z "},"3":{"ha":655,"x_min":76,"x_max":575,"o":"m 343 427 l 339 442 q 511 384 448 437 q 575 240 575 331 q 532 114 575 171 q 420 22 490 57 q 270 -12 351 -12 q 173 0 214 -12 q 109 34 132 12 q 85 84 85 56 q 99 117 85 103 q 132 130 113 130 q 169 123 153 130 q 210 95 184 117 l 290 27 l 220 46 q 353 56 294 37 q 445 117 411 75 q 479 221 479 160 q 430 340 479 296 q 298 385 381 385 q 258 384 278 385 q 217 380 239 382 l 212 434 q 371 488 319 446 q 423 602 423 530 q 384 694 423 662 q 277 727 345 727 q 186 707 229 727 q 109 643 142 686 l 76 666 q 170 770 107 731 q 311 808 233 808 q 461 760 404 808 q 518 632 518 711 q 471 511 518 564 q 343 427 423 457 z "},"4":{"ha":699,"x_min":58,"x_max":629,"o":"m 507 231 q 508 109 507 142 q 510 62 509 76 l 591 45 l 587 0 l 315 0 l 312 45 l 419 62 q 420 109 420 76 q 420 231 420 142 l 420 693 l 453 692 l 138 279 l 140 308 l 629 308 l 629 231 l 66 231 l 58 271 l 473 802 l 510 802 q 507 705 509 753 q 506 609 506 658 l 507 231 z "},"5":{"ha":648,"x_min":71,"x_max":560,"o":"m 251 -12 q 157 0 198 -12 q 94 34 117 12 q 71 84 71 56 q 83 117 71 103 q 117 130 96 130 q 153 123 140 130 q 191 95 167 117 l 275 27 l 205 46 q 337 53 279 35 q 428 112 395 71 q 461 210 461 153 q 435 305 461 269 q 337 366 408 342 q 136 410 266 391 l 183 796 l 524 796 l 514 700 l 236 700 l 208 437 l 172 491 q 470 404 380 467 q 560 235 560 342 q 517 109 560 165 q 403 20 473 53 q 251 -12 332 -12 z "},"6":{"ha":692,"x_min":91,"x_max":616,"o":"m 179 326 q 266 425 210 389 q 385 461 321 461 q 503 433 452 461 q 585 355 555 406 q 616 240 616 305 q 581 115 616 172 q 488 22 547 57 q 359 -12 429 -12 q 218 24 279 -12 q 124 125 157 60 q 91 283 91 191 q 124 475 91 387 q 218 635 157 564 q 362 753 278 705 q 549 821 446 800 l 567 766 q 366 671 449 735 q 239 511 282 606 q 197 292 197 415 q 217 161 197 217 q 276 76 237 106 q 369 46 315 46 q 471 92 431 46 q 511 214 511 138 q 467 336 511 289 q 351 384 423 384 q 288 372 319 384 q 232 338 258 361 q 184 282 206 316 l 179 326 z "},"7":{"ha":631,"x_min":41,"x_max":606,"o":"m 296 0 l 201 0 l 201 37 l 537 745 l 537 700 l 178 700 q 151 699 164 700 q 133 696 138 699 l 85 581 l 41 587 l 76 802 q 113 799 96 800 q 149 797 130 798 q 195 796 168 796 l 498 796 q 549 797 522 796 q 601 798 575 798 l 606 757 l 296 0 z "},"8":{"ha":731,"x_min":99,"x_max":631,"o":"m 359 -12 q 222 15 281 -12 q 131 89 163 42 q 99 195 99 136 q 151 329 99 275 q 293 404 203 382 l 343 389 q 227 305 262 353 q 193 206 193 258 q 239 95 193 142 q 376 47 285 47 q 492 83 450 47 q 534 180 534 118 q 506 269 534 235 q 431 328 477 304 q 332 374 384 351 q 235 424 281 396 q 159 494 189 452 q 130 601 130 536 q 162 707 130 661 q 249 781 194 753 q 372 808 304 808 q 490 783 438 808 q 573 712 543 757 q 604 612 604 667 q 564 486 604 540 q 461 399 525 431 l 429 416 q 493 502 473 460 q 513 597 513 544 q 473 711 513 667 q 361 754 434 754 q 263 720 304 754 q 222 625 222 686 q 252 536 222 571 q 328 476 281 500 q 426 429 374 452 q 524 380 477 407 q 601 313 571 353 q 631 212 631 273 q 597 97 631 148 q 502 17 563 46 q 359 -12 441 -12 z "},"9":{"ha":692,"x_min":76,"x_max":602,"o":"m 515 471 q 429 372 484 408 q 307 335 373 335 q 190 363 243 335 q 106 442 137 392 q 76 556 76 492 q 109 679 76 621 q 201 772 142 736 q 335 808 260 808 q 475 772 415 808 q 569 671 536 736 q 602 513 602 605 q 569 323 602 411 q 476 164 536 235 q 332 47 416 94 q 145 -20 247 0 l 125 34 q 328 130 245 66 q 452 288 410 194 q 495 505 495 382 q 475 635 495 581 q 416 721 454 690 q 324 751 378 751 q 221 705 262 751 q 180 582 180 658 q 227 460 180 507 q 345 412 273 412 q 408 424 378 412 q 463 458 437 435 q 511 514 490 481 l 515 471 z "},"A":{"ha":780,"x_min":4,"x_max":777,"o":"m 7 0 l 4 46 l 71 65 l 350 779 l 419 821 l 709 65 l 777 46 l 773 0 l 524 0 l 521 46 l 604 65 l 522 274 l 507 315 l 354 696 l 385 722 l 235 313 l 220 273 l 145 65 l 228 46 l 225 0 l 7 0 m 189 256 l 189 323 q 262 320 214 321 q 380 319 311 319 q 494 320 446 319 q 567 323 543 321 l 567 256 q 466 258 514 258 q 380 259 418 259 q 295 258 342 259 q 189 256 248 258 z "},"Á":{"ha":780,"x_min":4,"x_max":777,"o":"m 7 0 l 4 46 l 71 65 l 350 779 l 419 821 l 709 65 l 777 46 l 773 0 l 524 0 l 521 46 l 604 65 l 522 274 l 507 315 l 354 696 l 385 722 l 235 313 l 220 273 l 145 65 l 228 46 l 225 0 l 7 0 m 189 256 l 189 323 q 262 320 214 321 q 380 319 311 319 q 494 320 446 319 q 567 323 543 321 l 567 256 q 466 258 514 258 q 380 259 418 259 q 295 258 342 259 q 189 256 248 258 m 408 869 l 359 887 l 448 1063 l 541 1032 l 408 869 z "},"Ă":{"ha":780,"x_min":4,"x_max":777,"o":"m 7 0 l 4 46 l 71 65 l 350 779 l 419 821 l 709 65 l 777 46 l 773 0 l 524 0 l 521 46 l 604 65 l 522 274 l 507 315 l 354 696 l 385 722 l 235 313 l 220 273 l 145 65 l 228 46 l 225 0 l 7 0 m 189 256 l 189 323 q 262 320 214 321 q 380 319 311 319 q 494 320 446 319 q 567 323 543 321 l 567 256 q 466 258 514 258 q 380 259 418 259 q 295 258 342 259 q 189 256 248 258 m 556 1055 l 601 1039 q 530 918 587 960 q 385 876 472 876 q 240 918 300 876 q 167 1039 180 960 l 217 1055 q 274 979 229 1008 q 385 951 319 951 q 500 979 456 951 q 556 1055 545 1008 z "},"Ắ":{"ha":780,"x_min":4,"x_max":777,"o":"m 7 0 l 4 46 l 71 65 l 350 779 l 419 821 l 709 65 l 777 46 l 773 0 l 524 0 l 521 46 l 604 65 l 522 274 l 507 315 l 354 696 l 385 722 l 235 313 l 220 273 l 145 65 l 228 46 l 225 0 l 7 0 m 189 256 l 189 323 q 262 320 214 321 q 380 319 311 319 q 494 320 446 319 q 567 323 543 321 l 567 256 q 466 258 514 258 q 380 259 418 259 q 295 258 342 259 q 189 256 248 258 m 396 1028 l 349 1044 l 435 1221 l 528 1190 l 396 1028 m 556 1055 l 601 1039 q 530 918 587 960 q 385 876 472 876 q 240 918 300 876 q 167 1039 180 960 l 217 1055 q 274 979 229 1008 q 385 951 319 951 q 500 979 456 951 q 556 1055 545 1008 z "},"Ặ":{"ha":780,"x_min":4,"x_max":777,"o":"m 7 0 l 4 46 l 71 65 l 350 779 l 419 821 l 709 65 l 777 46 l 773 0 l 524 0 l 521 46 l 604 65 l 522 274 l 507 315 l 354 696 l 385 722 l 235 313 l 220 273 l 145 65 l 228 46 l 225 0 l 7 0 m 189 256 l 189 323 q 262 320 214 321 q 380 319 311 319 q 494 320 446 319 q 567 323 543 321 l 567 256 q 466 258 514 258 q 380 259 418 259 q 295 258 342 259 q 189 256 248 258 m 376 -266 q 330 -249 350 -266 q 311 -205 311 -232 q 330 -160 311 -178 q 376 -142 350 -142 q 420 -160 401 -142 q 438 -205 438 -178 q 420 -249 438 -232 q 376 -266 401 -266 m 556 1055 l 601 1039 q 530 918 587 960 q 385 876 472 876 q 240 918 300 876 q 167 1039 180 960 l 217 1055 q 274 979 229 1008 q 385 951 319 951 q 500 979 456 951 q 556 1055 545 1008 z "},"Ằ":{"ha":780,"x_min":4,"x_max":777,"o":"m 7 0 l 4 46 l 71 65 l 350 779 l 419 821 l 709 65 l 777 46 l 773 0 l 524 0 l 521 46 l 604 65 l 522 274 l 507 315 l 354 696 l 385 722 l 235 313 l 220 273 l 145 65 l 228 46 l 225 0 l 7 0 m 189 256 l 189 323 q 262 320 214 321 q 380 319 311 319 q 494 320 446 319 q 567 323 543 321 l 567 256 q 466 258 514 258 q 380 259 418 259 q 295 258 342 259 q 189 256 248 258 m 385 876 q 240 918 300 876 q 167 1039 180 960 l 217 1055 q 274 979 229 1008 q 385 951 319 951 q 500 979 456 951 q 556 1055 545 1008 l 601 1039 q 530 918 587 960 q 385 876 472 876 m 372 1028 l 240 1190 l 332 1221 l 419 1044 l 372 1028 z "},"Ẳ":{"ha":780,"x_min":4,"x_max":777,"o":"m 7 0 l 4 46 l 71 65 l 350 779 l 419 821 l 709 65 l 777 46 l 773 0 l 524 0 l 521 46 l 604 65 l 522 274 l 507 315 l 354 696 l 385 722 l 235 313 l 220 273 l 145 65 l 228 46 l 225 0 l 7 0 m 189 256 l 189 323 q 262 320 214 321 q 380 319 311 319 q 494 320 446 319 q 567 323 543 321 l 567 256 q 466 258 514 258 q 380 259 418 259 q 295 258 342 259 q 189 256 248 258 m 389 1221 q 476 1199 442 1221 q 510 1138 510 1177 q 494 1094 510 1108 q 457 1069 477 1080 q 420 1044 437 1058 q 404 1001 404 1029 l 365 1001 l 365 1020 q 380 1075 365 1055 q 412 1109 396 1095 q 427 1142 427 1123 q 403 1185 427 1179 q 349 1184 378 1191 l 395 1192 l 350 1150 q 324 1128 332 1134 q 300 1122 316 1122 q 277 1132 286 1122 q 267 1156 267 1142 q 300 1200 267 1180 q 389 1221 334 1221 m 385 876 q 240 918 300 876 q 167 1039 180 960 l 217 1055 q 274 979 229 1008 q 385 951 319 951 q 500 979 456 951 q 556 1055 545 1008 l 601 1039 q 530 918 587 960 q 385 876 472 876 z "},"Ẵ":{"ha":780,"x_min":4,"x_max":777,"o":"m 7 0 l 4 46 l 71 65 l 350 779 l 419 821 l 709 65 l 777 46 l 773 0 l 524 0 l 521 46 l 604 65 l 522 274 l 507 315 l 354 696 l 385 722 l 235 313 l 220 273 l 145 65 l 228 46 l 225 0 l 7 0 m 189 256 l 189 323 q 262 320 214 321 q 380 319 311 319 q 494 320 446 319 q 567 323 543 321 l 567 256 q 466 258 514 258 q 380 259 418 259 q 295 258 342 259 q 189 256 248 258 m 384 876 q 239 918 298 876 q 165 1039 179 960 l 214 1055 q 272 979 228 1008 q 384 951 316 951 q 499 979 454 951 q 553 1055 544 1008 l 598 1039 q 528 918 585 960 q 384 876 471 876 m 476 1080 q 408 1095 442 1080 q 342 1126 374 1111 q 281 1142 311 1142 q 233 1126 251 1142 q 199 1080 216 1109 l 157 1101 q 211 1191 176 1157 q 289 1225 245 1225 q 357 1209 323 1225 q 422 1178 391 1194 q 484 1162 454 1162 q 530 1179 513 1162 q 564 1225 548 1196 l 608 1203 q 553 1113 587 1146 q 476 1080 519 1080 z "},"Â":{"ha":780,"x_min":4,"x_max":777,"o":"m 7 0 l 4 46 l 71 65 l 350 779 l 419 821 l 709 65 l 777 46 l 773 0 l 524 0 l 521 46 l 604 65 l 522 274 l 507 315 l 354 696 l 385 722 l 235 313 l 220 273 l 145 65 l 228 46 l 225 0 l 7 0 m 189 256 l 189 323 q 262 320 214 321 q 380 319 311 319 q 494 320 446 319 q 567 323 543 321 l 567 256 q 466 258 514 258 q 380 259 418 259 q 295 258 342 259 q 189 256 248 258 m 606 898 l 564 868 l 343 994 l 425 994 l 203 868 l 161 898 l 340 1044 l 427 1044 l 606 898 z "},"Ấ":{"ha":780,"x_min":4,"x_max":777,"o":"m 7 0 l 4 46 l 71 65 l 350 779 l 419 821 l 709 65 l 777 46 l 773 0 l 524 0 l 521 46 l 604 65 l 522 274 l 507 315 l 354 696 l 385 722 l 235 313 l 220 273 l 145 65 l 228 46 l 225 0 l 7 0 m 189 256 l 189 323 q 262 320 214 321 q 380 319 311 319 q 494 320 446 319 q 567 323 543 321 l 567 256 q 466 258 514 258 q 380 259 418 259 q 295 258 342 259 q 189 256 248 258 m 536 1016 l 490 1032 l 585 1225 l 680 1194 l 536 1016 m 606 898 l 564 868 l 343 994 l 425 994 l 203 868 l 161 898 l 340 1044 l 427 1044 l 606 898 z "},"Ậ":{"ha":780,"x_min":4,"x_max":777,"o":"m 7 0 l 4 46 l 71 65 l 350 779 l 419 821 l 709 65 l 777 46 l 773 0 l 524 0 l 521 46 l 604 65 l 522 274 l 507 315 l 354 696 l 385 722 l 235 313 l 220 273 l 145 65 l 228 46 l 225 0 l 7 0 m 189 256 l 189 323 q 262 320 214 321 q 380 319 311 319 q 494 320 446 319 q 567 323 543 321 l 567 256 q 466 258 514 258 q 380 259 418 259 q 295 258 342 259 q 189 256 248 258 m 376 -266 q 330 -249 350 -266 q 311 -205 311 -232 q 330 -160 311 -178 q 376 -142 350 -142 q 420 -160 401 -142 q 438 -205 438 -178 q 420 -249 438 -232 q 376 -266 401 -266 m 606 898 l 564 868 l 343 994 l 425 994 l 203 868 l 161 898 l 340 1044 l 427 1044 l 606 898 z "},"Ầ":{"ha":780,"x_min":4,"x_max":777,"o":"m 7 0 l 4 46 l 71 65 l 350 779 l 419 821 l 709 65 l 777 46 l 773 0 l 524 0 l 521 46 l 604 65 l 522 274 l 507 315 l 354 696 l 385 722 l 235 313 l 220 273 l 145 65 l 228 46 l 225 0 l 7 0 m 189 256 l 189 323 q 262 320 214 321 q 380 319 311 319 q 494 320 446 319 q 567 323 543 321 l 567 256 q 466 258 514 258 q 380 259 418 259 q 295 258 342 259 q 189 256 248 258 m 543 1016 l 399 1194 l 492 1225 l 590 1032 l 543 1016 m 606 898 l 564 868 l 343 994 l 425 994 l 203 868 l 161 898 l 340 1044 l 427 1044 l 606 898 z "},"Ẩ":{"ha":780,"x_min":4,"x_max":777,"o":"m 7 0 l 4 46 l 71 65 l 350 779 l 419 821 l 709 65 l 777 46 l 773 0 l 524 0 l 521 46 l 604 65 l 522 274 l 507 315 l 354 696 l 385 722 l 235 313 l 220 273 l 145 65 l 228 46 l 225 0 l 7 0 m 189 256 l 189 323 q 262 320 214 321 q 380 319 311 319 q 494 320 446 319 q 567 323 543 321 l 567 256 q 466 258 514 258 q 380 259 418 259 q 295 258 342 259 q 189 256 248 258 m 606 898 l 564 868 l 343 994 l 425 994 l 203 868 l 161 898 l 340 1044 l 427 1044 l 606 898 m 536 1221 q 624 1199 590 1221 q 658 1138 658 1177 q 642 1094 658 1108 q 605 1069 625 1080 q 568 1044 585 1058 q 552 1001 552 1029 l 513 1001 l 513 1020 q 528 1075 513 1055 q 558 1109 543 1095 q 574 1142 574 1123 q 550 1185 574 1179 q 496 1184 526 1191 l 543 1192 l 498 1150 q 472 1128 480 1134 q 449 1122 464 1122 q 424 1132 433 1122 q 415 1156 415 1142 q 448 1200 415 1180 q 536 1221 481 1221 z "},"Ẫ":{"ha":780,"x_min":4,"x_max":777,"o":"m 7 0 l 4 46 l 71 65 l 350 779 l 419 821 l 709 65 l 777 46 l 773 0 l 524 0 l 521 46 l 604 65 l 522 274 l 507 315 l 354 696 l 385 722 l 235 313 l 220 273 l 145 65 l 228 46 l 225 0 l 7 0 m 189 256 l 189 323 q 262 320 214 321 q 380 319 311 319 q 494 320 446 319 q 567 323 543 321 l 567 256 q 466 258 514 258 q 380 259 418 259 q 295 258 342 259 q 189 256 248 258 m 203 868 l 161 898 l 340 1044 l 427 1044 l 606 898 l 564 868 l 343 994 l 425 994 l 203 868 m 476 1080 q 408 1095 442 1080 q 342 1126 374 1111 q 281 1142 311 1142 q 233 1126 251 1142 q 199 1080 216 1109 l 157 1101 q 211 1191 176 1157 q 289 1225 245 1225 q 357 1209 323 1225 q 422 1178 391 1194 q 484 1162 454 1162 q 530 1179 513 1162 q 564 1225 548 1196 l 608 1203 q 553 1113 587 1146 q 476 1080 519 1080 z "},"Ȁ":{"ha":780,"x_min":4,"x_max":777,"o":"m 7 0 l 4 46 l 71 65 l 350 779 l 419 821 l 709 65 l 777 46 l 773 0 l 524 0 l 521 46 l 604 65 l 522 274 l 507 315 l 354 696 l 385 722 l 235 313 l 220 273 l 145 65 l 228 46 l 225 0 l 7 0 m 189 256 l 189 323 q 262 320 214 321 q 380 319 311 319 q 494 320 446 319 q 567 323 543 321 l 567 256 q 466 258 514 258 q 380 259 418 259 q 295 258 342 259 q 189 256 248 258 m 444 868 l 332 1029 l 420 1048 l 481 883 l 444 868 m 286 868 l 174 1029 l 262 1048 l 324 883 l 286 868 z "},"Ä":{"ha":780,"x_min":4,"x_max":777,"o":"m 7 0 l 4 46 l 71 65 l 350 779 l 419 821 l 709 65 l 777 46 l 773 0 l 524 0 l 521 46 l 604 65 l 522 274 l 507 315 l 354 696 l 385 722 l 235 313 l 220 273 l 145 65 l 228 46 l 225 0 l 7 0 m 189 256 l 189 323 q 262 320 214 321 q 380 319 311 319 q 494 320 446 319 q 567 323 543 321 l 567 256 q 466 258 514 258 q 380 259 418 259 q 295 258 342 259 q 189 256 248 258 m 255 902 q 211 919 229 902 q 193 963 193 936 q 211 1007 193 990 q 255 1024 229 1024 q 298 1007 281 1024 q 316 963 316 990 q 298 919 316 936 q 255 902 281 902 m 515 902 q 471 919 490 902 q 452 963 452 936 q 471 1007 452 990 q 515 1024 490 1024 q 558 1007 541 1024 q 575 963 575 990 q 558 919 575 936 q 515 902 541 902 z "},"Ȧ":{"ha":780,"x_min":4,"x_max":777,"o":"m 7 0 l 4 46 l 71 65 l 350 779 l 419 821 l 709 65 l 777 46 l 773 0 l 524 0 l 521 46 l 604 65 l 522 274 l 507 315 l 354 696 l 385 722 l 235 313 l 220 273 l 145 65 l 228 46 l 225 0 l 7 0 m 189 256 l 189 323 q 262 320 214 321 q 380 319 311 319 q 494 320 446 319 q 567 323 543 321 l 567 256 q 466 258 514 258 q 380 259 418 259 q 295 258 342 259 q 189 256 248 258 m 385 901 q 340 918 359 901 q 320 963 320 936 q 340 1007 320 989 q 385 1025 359 1025 q 429 1007 411 1025 q 448 963 448 989 q 429 918 448 936 q 385 901 411 901 z "},"Ạ":{"ha":780,"x_min":4,"x_max":777,"o":"m 7 0 l 4 46 l 71 65 l 350 779 l 419 821 l 709 65 l 777 46 l 773 0 l 524 0 l 521 46 l 604 65 l 522 274 l 507 315 l 354 696 l 385 722 l 235 313 l 220 273 l 145 65 l 228 46 l 225 0 l 7 0 m 189 256 l 189 323 q 262 320 214 321 q 380 319 311 319 q 494 320 446 319 q 567 323 543 321 l 567 256 q 466 258 514 258 q 380 259 418 259 q 295 258 342 259 q 189 256 248 258 m 376 -266 q 330 -249 350 -266 q 311 -205 311 -232 q 330 -160 311 -178 q 376 -142 350 -142 q 420 -160 401 -142 q 438 -205 438 -178 q 420 -249 438 -232 q 376 -266 401 -266 z "},"À":{"ha":780,"x_min":4,"x_max":777,"o":"m 7 0 l 4 46 l 71 65 l 350 779 l 419 821 l 709 65 l 777 46 l 773 0 l 524 0 l 521 46 l 604 65 l 522 274 l 507 315 l 354 696 l 385 722 l 235 313 l 220 273 l 145 65 l 228 46 l 225 0 l 7 0 m 189 256 l 189 323 q 262 320 214 321 q 380 319 311 319 q 494 320 446 319 q 567 323 543 321 l 567 256 q 466 258 514 258 q 380 259 418 259 q 295 258 342 259 q 189 256 248 258 m 359 869 l 227 1032 l 320 1063 l 408 887 l 359 869 z "},"Ả":{"ha":780,"x_min":4,"x_max":777,"o":"m 7 0 l 4 46 l 71 65 l 350 779 l 419 821 l 709 65 l 777 46 l 773 0 l 524 0 l 521 46 l 604 65 l 522 274 l 507 315 l 354 696 l 385 722 l 235 313 l 220 273 l 145 65 l 228 46 l 225 0 l 7 0 m 189 256 l 189 323 q 262 320 214 321 q 380 319 311 319 q 494 320 446 319 q 567 323 543 321 l 567 256 q 466 258 514 258 q 380 259 418 259 q 295 258 342 259 q 189 256 248 258 m 389 1122 q 476 1099 442 1122 q 510 1038 510 1077 q 494 987 510 1004 q 457 958 477 970 q 420 930 437 947 q 404 883 404 914 l 365 883 l 365 906 q 380 967 365 944 q 412 1007 396 990 q 427 1042 427 1024 q 403 1084 427 1078 q 349 1084 378 1090 l 395 1093 l 350 1050 q 324 1029 332 1035 q 300 1023 316 1023 q 277 1032 286 1023 q 267 1055 267 1042 q 300 1101 267 1081 q 389 1122 334 1122 z "},"Ȃ":{"ha":780,"x_min":4,"x_max":777,"o":"m 7 0 l 4 46 l 71 65 l 350 779 l 419 821 l 709 65 l 777 46 l 773 0 l 524 0 l 521 46 l 604 65 l 522 274 l 507 315 l 354 696 l 385 722 l 235 313 l 220 273 l 145 65 l 228 46 l 225 0 l 7 0 m 189 256 l 189 323 q 262 320 214 321 q 380 319 311 319 q 494 320 446 319 q 567 323 543 321 l 567 256 q 466 258 514 258 q 380 259 418 259 q 295 258 342 259 q 189 256 248 258 m 212 868 l 167 884 q 238 1004 180 962 q 382 1047 296 1047 q 528 1004 468 1047 q 601 884 587 962 l 551 868 q 494 943 538 916 q 382 971 450 971 q 267 943 312 971 q 212 868 222 916 z "},"Ā":{"ha":780,"x_min":4,"x_max":777,"o":"m 7 0 l 4 46 l 71 65 l 350 779 l 419 821 l 709 65 l 777 46 l 773 0 l 524 0 l 521 46 l 604 65 l 522 274 l 507 315 l 354 696 l 385 722 l 235 313 l 220 273 l 145 65 l 228 46 l 225 0 l 7 0 m 189 256 l 189 323 q 262 320 214 321 q 380 319 311 319 q 494 320 446 319 q 567 323 543 321 l 567 256 q 466 258 514 258 q 380 259 418 259 q 295 258 342 259 q 189 256 248 258 m 194 996 l 574 996 l 574 926 l 194 926 l 194 996 z "},"Ą":{"ha":780,"x_min":4,"x_max":796,"o":"m 656 -302 q 577 -286 610 -302 q 526 -243 544 -270 q 509 -183 509 -217 q 533 -104 509 -141 q 606 -34 557 -66 q 722 22 654 -1 l 731 0 l 524 0 l 521 46 l 604 65 l 522 274 l 507 315 l 354 696 l 385 722 l 235 313 l 220 273 l 145 65 l 228 46 l 225 0 l 7 0 l 4 46 l 71 65 l 350 779 l 419 821 l 709 65 l 777 46 l 773 0 q 643 -68 693 -22 q 593 -168 593 -114 q 615 -229 593 -206 q 674 -251 637 -251 q 724 -237 701 -251 q 768 -203 747 -224 l 796 -235 q 735 -284 770 -266 q 656 -302 700 -302 m 189 256 l 189 323 q 262 320 214 321 q 380 319 311 319 q 494 320 446 319 q 567 323 543 321 l 567 256 q 466 258 514 258 q 380 259 418 259 q 295 258 342 259 q 189 256 248 258 z "},"Å":{"ha":780,"x_min":4,"x_max":777,"o":"m 7 0 l 4 46 l 71 65 l 350 779 l 419 821 l 709 65 l 777 46 l 773 0 l 524 0 l 521 46 l 604 65 l 522 274 l 507 315 l 354 696 l 385 722 l 235 313 l 220 273 l 145 65 l 228 46 l 225 0 l 7 0 m 189 256 l 189 323 q 262 320 214 321 q 380 319 311 319 q 494 320 446 319 q 567 323 543 321 l 567 256 q 466 258 514 258 q 380 259 418 259 q 295 258 342 259 q 189 256 248 258 m 385 878 q 292 913 330 878 q 254 1002 254 949 q 292 1092 254 1055 q 385 1128 330 1128 q 477 1093 441 1128 q 514 1002 514 1057 q 477 913 514 949 q 385 878 439 878 m 387 918 q 444 942 422 918 q 467 1004 467 966 q 444 1067 467 1043 q 387 1090 422 1090 q 328 1067 351 1090 q 304 1004 304 1043 q 328 943 304 968 q 387 918 351 918 z "},"Ǻ":{"ha":780,"x_min":4,"x_max":777,"o":"m 7 0 l 4 46 l 71 65 l 350 779 l 419 821 l 709 65 l 777 46 l 773 0 l 524 0 l 521 46 l 604 65 l 522 274 l 507 315 l 354 696 l 385 722 l 235 313 l 220 273 l 145 65 l 228 46 l 225 0 l 7 0 m 189 256 l 189 323 q 262 320 214 321 q 380 319 311 319 q 494 320 446 319 q 567 323 543 321 l 567 256 q 466 258 514 258 q 380 259 418 259 q 295 258 342 259 q 189 256 248 258 m 385 878 q 292 913 330 878 q 254 1002 254 949 q 292 1092 254 1055 q 385 1128 330 1128 q 477 1093 441 1128 q 514 1002 514 1057 q 477 913 514 949 q 385 878 439 878 m 387 918 q 444 942 422 918 q 467 1004 467 966 q 444 1067 467 1043 q 387 1090 422 1090 q 328 1067 351 1090 q 304 1004 304 1043 q 328 943 304 968 q 387 918 351 918 m 473 1063 l 427 1081 l 506 1236 l 600 1204 l 473 1063 z "},"Ã":{"ha":780,"x_min":4,"x_max":777,"o":"m 7 0 l 4 46 l 71 65 l 350 779 l 419 821 l 709 65 l 777 46 l 773 0 l 524 0 l 521 46 l 604 65 l 522 274 l 507 315 l 354 696 l 385 722 l 235 313 l 220 273 l 145 65 l 228 46 l 225 0 l 7 0 m 189 256 l 189 323 q 262 320 214 321 q 380 319 311 319 q 494 320 446 319 q 567 323 543 321 l 567 256 q 466 258 514 258 q 380 259 418 259 q 295 258 342 259 q 189 256 248 258 m 610 1029 l 650 1009 q 585 916 627 951 q 491 882 544 882 q 410 901 450 882 q 331 941 369 921 q 258 960 293 960 q 199 942 221 960 q 157 892 178 924 l 118 913 q 183 1005 141 971 q 277 1039 225 1039 q 359 1020 319 1039 q 437 981 399 1001 q 513 962 476 962 q 568 981 547 962 q 610 1029 590 1000 z "},"Æ":{"ha":1081,"x_min":-15,"x_max":1035,"o":"m 985 -7 q 932 -1 952 -3 q 900 0 913 0 q 872 0 887 0 l 425 0 l 422 46 l 503 65 q 505 109 505 80 q 506 202 506 137 l 506 712 l 544 741 l 138 65 l 220 46 l 217 0 l -12 0 l -15 46 l 52 65 l 500 777 l 517 731 l 396 750 l 399 796 l 848 796 q 889 796 871 796 q 924 798 907 796 q 963 802 941 799 l 989 628 l 932 620 l 887 732 q 868 734 880 734 q 841 735 856 735 l 685 735 q 647 734 666 735 q 604 734 628 734 q 603 699 604 727 q 602 638 602 671 q 601 582 601 605 l 601 193 q 601 163 601 182 q 602 125 601 145 q 603 90 602 106 q 604 68 604 75 q 630 65 617 66 q 682 64 643 64 l 812 64 q 859 64 841 64 q 890 66 878 65 q 910 69 903 68 l 978 197 l 1035 186 l 985 -7 m 232 251 l 244 319 q 280 317 258 317 q 332 315 302 316 q 396 315 362 315 q 491 316 453 315 q 545 319 529 317 l 545 251 q 507 253 537 252 q 396 254 477 254 q 302 254 342 254 q 232 251 263 254 m 840 281 l 821 374 q 799 377 814 376 q 762 378 784 378 l 663 378 q 628 378 647 378 q 583 376 609 377 l 583 444 q 628 441 609 442 q 663 441 647 441 l 762 441 q 799 441 784 441 q 821 445 814 442 l 840 541 l 890 541 l 890 281 l 840 281 z "},"Ǽ":{"ha":1081,"x_min":-15,"x_max":1035,"o":"m 985 -7 q 932 -1 952 -3 q 900 0 913 0 q 872 0 887 0 l 425 0 l 422 46 l 503 65 q 505 109 505 80 q 506 202 506 137 l 506 712 l 544 741 l 138 65 l 220 46 l 217 0 l -12 0 l -15 46 l 52 65 l 500 777 l 517 731 l 396 750 l 399 796 l 848 796 q 889 796 871 796 q 924 798 907 796 q 963 802 941 799 l 989 628 l 932 620 l 887 732 q 868 734 880 734 q 841 735 856 735 l 685 735 q 647 734 666 735 q 604 734 628 734 q 603 699 604 727 q 602 638 602 671 q 601 582 601 605 l 601 193 q 601 163 601 182 q 602 125 601 145 q 603 90 602 106 q 604 68 604 75 q 630 65 617 66 q 682 64 643 64 l 812 64 q 859 64 841 64 q 890 66 878 65 q 910 69 903 68 l 978 197 l 1035 186 l 985 -7 m 232 251 l 244 319 q 280 317 258 317 q 332 315 302 316 q 396 315 362 315 q 491 316 453 315 q 545 319 529 317 l 545 251 q 507 253 537 252 q 396 254 477 254 q 302 254 342 254 q 232 251 263 254 m 840 281 l 821 374 q 799 377 814 376 q 762 378 784 378 l 663 378 q 628 378 647 378 q 583 376 609 377 l 583 444 q 628 441 609 442 q 663 441 647 441 l 762 441 q 799 441 784 441 q 821 445 814 442 l 840 541 l 890 541 l 890 281 l 840 281 m 579 869 l 530 887 l 618 1063 l 712 1032 l 579 869 z "},"B":{"ha":746,"x_min":65,"x_max":681,"o":"m 148 65 q 153 128 151 76 q 156 262 156 180 l 156 533 q 153 675 156 623 q 148 736 151 728 l 65 747 l 69 796 l 374 796 q 571 747 502 796 q 640 605 640 697 q 583 479 640 530 q 435 419 525 427 l 412 430 q 612 374 544 426 q 681 229 681 321 q 590 62 681 125 q 347 0 499 0 l 69 0 l 65 46 l 148 65 m 251 240 q 252 129 251 179 q 255 68 254 79 q 304 60 273 64 q 353 57 335 57 q 522 96 467 57 q 578 216 578 136 q 519 338 578 297 q 346 380 461 380 q 265 380 285 380 q 232 377 245 380 l 232 442 q 285 439 260 441 q 339 438 309 438 q 486 479 434 438 q 537 593 537 519 q 490 704 537 666 q 355 742 442 742 l 254 742 q 252 678 252 731 q 251 562 251 625 l 251 240 z "},"C":{"ha":812,"x_min":73,"x_max":772,"o":"m 496 -12 q 288 33 384 -12 q 132 168 191 77 q 73 395 73 259 q 102 551 73 476 q 186 683 130 625 q 323 774 241 741 q 513 808 406 808 q 628 798 566 808 q 741 766 690 787 l 750 587 l 694 582 l 656 707 q 585 736 631 727 q 500 745 540 745 q 324 699 392 745 q 226 577 256 652 q 195 415 195 502 q 237 216 195 297 q 349 94 278 136 q 506 53 419 53 q 585 62 551 53 q 655 90 620 72 l 719 218 l 772 213 l 735 45 q 626 5 686 22 q 496 -12 566 -12 z "},"Ć":{"ha":812,"x_min":73,"x_max":772,"o":"m 496 -12 q 288 33 384 -12 q 132 168 191 77 q 73 395 73 259 q 102 551 73 476 q 186 683 130 625 q 323 774 241 741 q 513 808 406 808 q 628 798 566 808 q 741 766 690 787 l 750 587 l 694 582 l 656 707 q 585 736 631 727 q 500 745 540 745 q 324 699 392 745 q 226 577 256 652 q 195 415 195 502 q 237 216 195 297 q 349 94 278 136 q 506 53 419 53 q 585 62 551 53 q 655 90 620 72 l 719 218 l 772 213 l 735 45 q 626 5 686 22 q 496 -12 566 -12 m 496 869 l 448 887 l 536 1063 l 629 1032 l 496 869 z "},"Č":{"ha":812,"x_min":73,"x_max":772,"o":"m 496 -12 q 288 33 384 -12 q 132 168 191 77 q 73 395 73 259 q 102 551 73 476 q 186 683 130 625 q 323 774 241 741 q 513 808 406 808 q 628 798 566 808 q 741 766 690 787 l 750 587 l 694 582 l 656 707 q 585 736 631 727 q 500 745 540 745 q 324 699 392 745 q 226 577 256 652 q 195 415 195 502 q 237 216 195 297 q 349 94 278 136 q 506 53 419 53 q 585 62 551 53 q 655 90 620 72 l 719 218 l 772 213 l 735 45 q 626 5 686 22 q 496 -12 566 -12 m 250 1025 l 292 1055 l 513 929 l 431 929 l 652 1055 l 694 1025 l 515 878 l 429 878 l 250 1025 z "},"Ç":{"ha":812,"x_min":73,"x_max":772,"o":"m 496 -12 q 288 33 384 -12 q 132 168 191 77 q 73 395 73 259 q 102 551 73 476 q 186 683 130 625 q 323 774 241 741 q 513 808 406 808 q 628 798 566 808 q 741 766 690 787 l 750 587 l 694 582 l 656 707 q 585 736 631 727 q 500 745 540 745 q 324 699 392 745 q 226 577 256 652 q 195 415 195 502 q 237 216 195 297 q 349 94 278 136 q 506 53 419 53 q 585 62 551 53 q 655 90 620 72 l 719 218 l 772 213 l 735 45 q 626 5 686 22 q 496 -12 566 -12 m 437 -302 q 374 -294 406 -302 q 316 -270 343 -285 l 342 -218 q 391 -241 365 -232 q 446 -251 418 -251 q 494 -237 475 -251 q 513 -197 513 -224 q 485 -154 513 -170 q 407 -144 457 -138 l 387 -118 l 465 18 l 530 18 l 437 -114 l 448 -72 q 555 -100 513 -72 q 597 -179 597 -129 q 551 -267 597 -231 q 437 -302 506 -302 z "},"Ḉ":{"ha":812,"x_min":73,"x_max":772,"o":"m 496 -12 q 288 33 384 -12 q 132 168 191 77 q 73 395 73 259 q 102 551 73 476 q 186 683 130 625 q 323 774 241 741 q 513 808 406 808 q 628 798 566 808 q 741 766 690 787 l 750 587 l 694 582 l 656 707 q 585 736 631 727 q 500 745 540 745 q 324 699 392 745 q 226 577 256 652 q 195 415 195 502 q 237 216 195 297 q 349 94 278 136 q 506 53 419 53 q 585 62 551 53 q 655 90 620 72 l 719 218 l 772 213 l 735 45 q 626 5 686 22 q 496 -12 566 -12 m 437 -302 q 374 -294 406 -302 q 316 -270 343 -285 l 342 -218 q 391 -241 365 -232 q 446 -251 418 -251 q 494 -237 475 -251 q 513 -197 513 -224 q 485 -154 513 -170 q 407 -144 457 -138 l 387 -118 l 465 18 l 530 18 l 437 -114 l 448 -72 q 555 -100 513 -72 q 597 -179 597 -129 q 551 -267 597 -231 q 437 -302 506 -302 m 496 869 l 448 887 l 536 1063 l 629 1032 l 496 869 z "},"Ĉ":{"ha":812,"x_min":73,"x_max":772,"o":"m 496 -12 q 288 33 384 -12 q 132 168 191 77 q 73 395 73 259 q 102 551 73 476 q 186 683 130 625 q 323 774 241 741 q 513 808 406 808 q 628 798 566 808 q 741 766 690 787 l 750 587 l 694 582 l 656 707 q 585 736 631 727 q 500 745 540 745 q 324 699 392 745 q 226 577 256 652 q 195 415 195 502 q 237 216 195 297 q 349 94 278 136 q 506 53 419 53 q 585 62 551 53 q 655 90 620 72 l 719 218 l 772 213 l 735 45 q 626 5 686 22 q 496 -12 566 -12 m 694 898 l 652 868 l 431 994 l 513 994 l 292 868 l 250 898 l 429 1044 l 515 1044 l 694 898 z "},"Ċ":{"ha":812,"x_min":73,"x_max":772,"o":"m 496 -12 q 288 33 384 -12 q 132 168 191 77 q 73 395 73 259 q 102 551 73 476 q 186 683 130 625 q 323 774 241 741 q 513 808 406 808 q 628 798 566 808 q 741 766 690 787 l 750 587 l 694 582 l 656 707 q 585 736 631 727 q 500 745 540 745 q 324 699 392 745 q 226 577 256 652 q 195 415 195 502 q 237 216 195 297 q 349 94 278 136 q 506 53 419 53 q 585 62 551 53 q 655 90 620 72 l 719 218 l 772 213 l 735 45 q 626 5 686 22 q 496 -12 566 -12 m 473 901 q 428 918 448 901 q 408 963 408 936 q 428 1007 408 989 q 473 1025 448 1025 q 517 1007 499 1025 q 536 963 536 989 q 517 918 536 936 q 473 901 499 901 z "},"D":{"ha":917,"x_min":69,"x_max":838,"o":"m 72 796 l 387 796 q 719 694 600 796 q 838 407 838 591 q 783 195 838 288 q 629 52 727 103 q 404 0 532 0 l 72 0 l 69 46 l 151 65 q 155 135 153 79 q 157 262 157 191 l 157 533 q 155 667 157 612 q 151 731 153 722 l 69 750 l 72 796 m 256 728 q 256 694 256 713 q 254 637 255 674 q 254 533 254 600 l 254 262 q 254 184 254 220 q 256 122 255 149 q 259 76 258 95 q 342 67 307 71 q 412 64 377 64 q 643 143 564 64 q 722 368 722 222 q 700 523 722 454 q 635 640 678 591 q 526 713 591 688 q 372 738 460 738 q 316 736 345 738 q 256 728 288 734 z "},"Ǆ":{"ha":1621,"x_min":69,"x_max":1584,"o":"m 72 796 l 387 796 q 719 694 600 796 q 838 407 838 591 q 783 195 838 288 q 629 52 727 103 q 404 0 532 0 l 72 0 l 69 46 l 151 65 q 155 135 153 79 q 157 262 157 191 l 157 533 q 155 667 157 612 q 151 731 153 722 l 69 750 l 72 796 m 256 728 q 256 694 256 713 q 254 637 255 674 q 254 533 254 600 l 254 262 q 254 184 254 220 q 256 122 255 149 q 259 76 258 95 q 342 67 307 71 q 412 64 377 64 q 643 143 564 64 q 722 368 722 222 q 700 523 722 454 q 635 640 678 591 q 526 713 591 688 q 372 738 460 738 q 316 736 345 738 q 256 728 288 734 m 1556 -5 q 1514 -2 1533 -3 q 1476 -1 1495 -1 q 1438 0 1458 0 l 1089 0 q 1042 -1 1063 0 q 996 -3 1020 -1 l 996 41 l 1444 776 l 1449 735 l 1123 735 q 1078 734 1097 735 q 1040 731 1058 734 l 1024 594 l 974 594 l 972 798 q 1028 796 1002 796 q 1080 796 1054 796 l 1447 796 q 1498 797 1473 796 q 1549 799 1523 798 l 1549 757 l 1100 20 l 1100 64 l 1431 64 q 1457 65 1444 64 q 1478 69 1469 66 l 1537 217 l 1586 213 l 1556 -5 z "},"Ð":{"ha":917,"x_min":56,"x_max":838,"o":"m 72 796 l 387 796 q 719 694 600 796 q 838 407 838 591 q 783 195 838 288 q 629 52 727 103 q 404 0 532 0 l 72 0 l 69 46 l 151 65 q 155 135 153 79 q 157 262 157 191 l 157 533 q 155 667 157 612 q 151 731 153 722 l 69 750 l 72 796 m 256 728 q 256 694 256 713 q 254 637 255 674 q 254 533 254 600 l 254 262 q 254 184 254 220 q 256 122 255 149 q 259 76 258 95 q 342 67 307 71 q 412 64 377 64 q 643 143 564 64 q 722 368 722 222 q 700 523 722 454 q 635 640 678 591 q 526 713 591 688 q 372 738 460 738 q 316 736 345 738 q 256 728 288 734 m 56 368 l 56 430 l 479 430 l 479 368 l 56 368 z "},"Ď":{"ha":917,"x_min":69,"x_max":838,"o":"m 72 796 l 387 796 q 719 694 600 796 q 838 407 838 591 q 783 195 838 288 q 629 52 727 103 q 404 0 532 0 l 72 0 l 69 46 l 151 65 q 155 135 153 79 q 157 262 157 191 l 157 533 q 155 667 157 612 q 151 731 153 722 l 69 750 l 72 796 m 256 728 q 256 694 256 713 q 254 637 255 674 q 254 533 254 600 l 254 262 q 254 184 254 220 q 256 122 255 149 q 259 76 258 95 q 342 67 307 71 q 412 64 377 64 q 643 143 564 64 q 722 368 722 222 q 700 523 722 454 q 635 640 678 591 q 526 713 591 688 q 372 738 460 738 q 316 736 345 738 q 256 728 288 734 m 225 1025 l 267 1055 l 488 929 l 407 929 l 628 1055 l 670 1025 l 491 878 l 404 878 l 225 1025 z "},"Đ":{"ha":917,"x_min":56,"x_max":838,"o":"m 72 796 l 387 796 q 719 694 600 796 q 838 407 838 591 q 783 195 838 288 q 629 52 727 103 q 404 0 532 0 l 72 0 l 69 46 l 151 65 q 155 135 153 79 q 157 262 157 191 l 157 533 q 155 667 157 612 q 151 731 153 722 l 69 750 l 72 796 m 256 728 q 256 694 256 713 q 254 637 255 674 q 254 533 254 600 l 254 262 q 254 184 254 220 q 256 122 255 149 q 259 76 258 95 q 342 67 307 71 q 412 64 377 64 q 643 143 564 64 q 722 368 722 222 q 700 523 722 454 q 635 640 678 591 q 526 713 591 688 q 372 738 460 738 q 316 736 345 738 q 256 728 288 734 m 56 368 l 56 430 l 479 430 l 479 368 l 56 368 z "},"Ḍ":{"ha":917,"x_min":69,"x_max":838,"o":"m 72 796 l 387 796 q 719 694 600 796 q 838 407 838 591 q 783 195 838 288 q 629 52 727 103 q 404 0 532 0 l 72 0 l 69 46 l 151 65 q 155 135 153 79 q 157 262 157 191 l 157 533 q 155 667 157 612 q 151 731 153 722 l 69 750 l 72 796 m 256 728 q 256 694 256 713 q 254 637 255 674 q 254 533 254 600 l 254 262 q 254 184 254 220 q 256 122 255 149 q 259 76 258 95 q 342 67 307 71 q 412 64 377 64 q 643 143 564 64 q 722 368 722 222 q 700 523 722 454 q 635 640 678 591 q 526 713 591 688 q 372 738 460 738 q 316 736 345 738 q 256 728 288 734 m 435 -266 q 390 -249 410 -266 q 370 -205 370 -232 q 390 -160 370 -178 q 435 -142 410 -142 q 479 -160 461 -142 q 498 -205 498 -178 q 479 -249 498 -232 q 435 -266 461 -266 z "},"Ḏ":{"ha":917,"x_min":69,"x_max":838,"o":"m 72 796 l 387 796 q 719 694 600 796 q 838 407 838 591 q 783 195 838 288 q 629 52 727 103 q 404 0 532 0 l 72 0 l 69 46 l 151 65 q 155 135 153 79 q 157 262 157 191 l 157 533 q 155 667 157 612 q 151 731 153 722 l 69 750 l 72 796 m 256 728 q 256 694 256 713 q 254 637 255 674 q 254 533 254 600 l 254 262 q 254 184 254 220 q 256 122 255 149 q 259 76 258 95 q 342 67 307 71 q 412 64 377 64 q 643 143 564 64 q 722 368 722 222 q 700 523 722 454 q 635 640 678 591 q 526 713 591 688 q 372 738 460 738 q 316 736 345 738 q 256 728 288 734 m 244 -171 l 624 -171 l 624 -239 l 244 -239 l 244 -171 z "},"ǅ":{"ha":1492,"x_min":69,"x_max":1453,"o":"m 72 796 l 387 796 q 719 694 600 796 q 838 407 838 591 q 783 195 838 288 q 629 52 727 103 q 404 0 532 0 l 72 0 l 69 46 l 151 65 q 155 135 153 79 q 157 262 157 191 l 157 533 q 155 667 157 612 q 151 731 153 722 l 69 750 l 72 796 m 256 728 q 256 694 256 713 q 254 637 255 674 q 254 533 254 600 l 254 262 q 254 184 254 220 q 256 122 255 149 q 259 76 258 95 q 342 67 307 71 q 412 64 377 64 q 643 143 564 64 q 722 368 722 222 q 700 523 722 454 q 635 640 678 591 q 526 713 591 688 q 372 738 460 738 q 316 736 345 738 q 256 728 288 734 z "},"E":{"ha":746,"x_min":69,"x_max":700,"o":"m 647 -7 q 583 -1 606 -1 q 537 0 560 0 l 72 0 l 69 46 l 151 65 q 154 95 153 72 q 155 160 155 118 q 156 262 156 202 l 156 533 q 155 637 156 594 q 154 703 155 680 q 151 731 153 726 l 69 750 l 72 796 l 513 796 q 546 796 530 796 q 581 798 562 796 q 629 802 601 799 l 654 628 l 598 620 l 553 732 q 532 734 545 734 q 503 735 518 735 l 335 735 q 291 734 309 735 q 254 731 273 734 q 253 701 254 726 q 252 643 252 675 q 251 582 251 610 l 251 193 q 252 144 251 170 q 253 97 252 118 q 254 69 254 76 q 290 65 271 66 q 331 64 309 64 l 479 64 q 526 64 507 64 q 557 66 545 65 q 575 69 570 68 l 646 197 l 700 186 l 647 -7 m 503 279 l 487 373 q 464 377 479 376 q 427 378 449 378 l 316 378 q 279 377 300 378 q 233 374 258 376 l 233 444 q 279 441 258 442 q 316 441 300 441 l 427 441 q 464 441 449 441 q 487 445 479 442 l 503 541 l 556 541 l 556 279 l 503 279 z "},"É":{"ha":746,"x_min":69,"x_max":700,"o":"m 647 -7 q 583 -1 606 -1 q 537 0 560 0 l 72 0 l 69 46 l 151 65 q 154 95 153 72 q 155 160 155 118 q 156 262 156 202 l 156 533 q 155 637 156 594 q 154 703 155 680 q 151 731 153 726 l 69 750 l 72 796 l 513 796 q 546 796 530 796 q 581 798 562 796 q 629 802 601 799 l 654 628 l 598 620 l 553 732 q 532 734 545 734 q 503 735 518 735 l 335 735 q 291 734 309 735 q 254 731 273 734 q 253 701 254 726 q 252 643 252 675 q 251 582 251 610 l 251 193 q 252 144 251 170 q 253 97 252 118 q 254 69 254 76 q 290 65 271 66 q 331 64 309 64 l 479 64 q 526 64 507 64 q 557 66 545 65 q 575 69 570 68 l 646 197 l 700 186 l 647 -7 m 503 279 l 487 373 q 464 377 479 376 q 427 378 449 378 l 316 378 q 279 377 300 378 q 233 374 258 376 l 233 444 q 279 441 258 442 q 316 441 300 441 l 427 441 q 464 441 449 441 q 487 445 479 442 l 503 541 l 556 541 l 556 279 l 503 279 m 400 869 l 351 887 l 439 1063 l 533 1032 l 400 869 z "},"Ĕ":{"ha":746,"x_min":69,"x_max":700,"o":"m 647 -7 q 583 -1 606 -1 q 537 0 560 0 l 72 0 l 69 46 l 151 65 q 154 95 153 72 q 155 160 155 118 q 156 262 156 202 l 156 533 q 155 637 156 594 q 154 703 155 680 q 151 731 153 726 l 69 750 l 72 796 l 513 796 q 546 796 530 796 q 581 798 562 796 q 629 802 601 799 l 654 628 l 598 620 l 553 732 q 532 734 545 734 q 503 735 518 735 l 335 735 q 291 734 309 735 q 254 731 273 734 q 253 701 254 726 q 252 643 252 675 q 251 582 251 610 l 251 193 q 252 144 251 170 q 253 97 252 118 q 254 69 254 76 q 290 65 271 66 q 331 64 309 64 l 479 64 q 526 64 507 64 q 557 66 545 65 q 575 69 570 68 l 646 197 l 700 186 l 647 -7 m 503 279 l 487 373 q 464 377 479 376 q 427 378 449 378 l 316 378 q 279 377 300 378 q 233 374 258 376 l 233 444 q 279 441 258 442 q 316 441 300 441 l 427 441 q 464 441 449 441 q 487 445 479 442 l 503 541 l 556 541 l 556 279 l 503 279 m 548 1055 l 593 1039 q 522 918 579 960 q 377 876 464 876 q 232 918 292 876 q 159 1039 172 960 l 209 1055 q 266 979 221 1008 q 377 951 311 951 q 492 979 448 951 q 548 1055 537 1008 z "},"Ě":{"ha":746,"x_min":69,"x_max":700,"o":"m 647 -7 q 583 -1 606 -1 q 537 0 560 0 l 72 0 l 69 46 l 151 65 q 154 95 153 72 q 155 160 155 118 q 156 262 156 202 l 156 533 q 155 637 156 594 q 154 703 155 680 q 151 731 153 726 l 69 750 l 72 796 l 513 796 q 546 796 530 796 q 581 798 562 796 q 629 802 601 799 l 654 628 l 598 620 l 553 732 q 532 734 545 734 q 503 735 518 735 l 335 735 q 291 734 309 735 q 254 731 273 734 q 253 701 254 726 q 252 643 252 675 q 251 582 251 610 l 251 193 q 252 144 251 170 q 253 97 252 118 q 254 69 254 76 q 290 65 271 66 q 331 64 309 64 l 479 64 q 526 64 507 64 q 557 66 545 65 q 575 69 570 68 l 646 197 l 700 186 l 647 -7 m 503 279 l 487 373 q 464 377 479 376 q 427 378 449 378 l 316 378 q 279 377 300 378 q 233 374 258 376 l 233 444 q 279 441 258 442 q 316 441 300 441 l 427 441 q 464 441 449 441 q 487 445 479 442 l 503 541 l 556 541 l 556 279 l 503 279 m 153 1025 l 195 1055 l 416 929 l 335 929 l 556 1055 l 598 1025 l 419 878 l 332 878 l 153 1025 z "},"Ḝ":{"ha":746,"x_min":69,"x_max":700,"o":"m 647 -7 q 583 -1 606 -1 q 537 0 560 0 l 72 0 l 69 46 l 151 65 q 154 95 153 72 q 155 160 155 118 q 156 262 156 202 l 156 533 q 155 637 156 594 q 154 703 155 680 q 151 731 153 726 l 69 750 l 72 796 l 513 796 q 546 796 530 796 q 581 798 562 796 q 629 802 601 799 l 654 628 l 598 620 l 553 732 q 532 734 545 734 q 503 735 518 735 l 335 735 q 291 734 309 735 q 254 731 273 734 q 253 701 254 726 q 252 643 252 675 q 251 582 251 610 l 251 193 q 252 144 251 170 q 253 97 252 118 q 254 69 254 76 q 290 65 271 66 q 331 64 309 64 l 479 64 q 526 64 507 64 q 557 66 545 65 q 575 69 570 68 l 646 197 l 700 186 l 647 -7 m 503 279 l 487 373 q 464 377 479 376 q 427 378 449 378 l 316 378 q 279 377 300 378 q 233 374 258 376 l 233 444 q 279 441 258 442 q 316 441 300 441 l 427 441 q 464 441 449 441 q 487 445 479 442 l 503 541 l 556 541 l 556 279 l 503 279 m 340 -302 q 278 -294 309 -302 q 220 -270 247 -285 l 245 -218 q 295 -241 269 -232 q 350 -251 321 -251 q 397 -237 378 -251 q 416 -197 416 -224 q 389 -154 416 -170 q 311 -144 361 -138 l 290 -118 l 369 18 l 434 18 l 340 -114 l 351 -72 q 458 -100 416 -72 q 500 -179 500 -129 q 455 -267 500 -231 q 340 -302 410 -302 m 548 1055 l 593 1039 q 522 918 579 960 q 377 876 464 876 q 232 918 292 876 q 159 1039 172 960 l 209 1055 q 266 979 221 1008 q 377 951 311 951 q 492 979 448 951 q 548 1055 537 1008 z "},"Ê":{"ha":746,"x_min":69,"x_max":700,"o":"m 647 -7 q 583 -1 606 -1 q 537 0 560 0 l 72 0 l 69 46 l 151 65 q 154 95 153 72 q 155 160 155 118 q 156 262 156 202 l 156 533 q 155 637 156 594 q 154 703 155 680 q 151 731 153 726 l 69 750 l 72 796 l 513 796 q 546 796 530 796 q 581 798 562 796 q 629 802 601 799 l 654 628 l 598 620 l 553 732 q 532 734 545 734 q 503 735 518 735 l 335 735 q 291 734 309 735 q 254 731 273 734 q 253 701 254 726 q 252 643 252 675 q 251 582 251 610 l 251 193 q 252 144 251 170 q 253 97 252 118 q 254 69 254 76 q 290 65 271 66 q 331 64 309 64 l 479 64 q 526 64 507 64 q 557 66 545 65 q 575 69 570 68 l 646 197 l 700 186 l 647 -7 m 503 279 l 487 373 q 464 377 479 376 q 427 378 449 378 l 316 378 q 279 377 300 378 q 233 374 258 376 l 233 444 q 279 441 258 442 q 316 441 300 441 l 427 441 q 464 441 449 441 q 487 445 479 442 l 503 541 l 556 541 l 556 279 l 503 279 m 598 898 l 556 868 l 335 994 l 416 994 l 195 868 l 153 898 l 332 1044 l 419 1044 l 598 898 z "},"Ế":{"ha":746,"x_min":69,"x_max":700,"o":"m 647 -7 q 583 -1 606 -1 q 537 0 560 0 l 72 0 l 69 46 l 151 65 q 154 95 153 72 q 155 160 155 118 q 156 262 156 202 l 156 533 q 155 637 156 594 q 154 703 155 680 q 151 731 153 726 l 69 750 l 72 796 l 513 796 q 546 796 530 796 q 581 798 562 796 q 629 802 601 799 l 654 628 l 598 620 l 553 732 q 532 734 545 734 q 503 735 518 735 l 335 735 q 291 734 309 735 q 254 731 273 734 q 253 701 254 726 q 252 643 252 675 q 251 582 251 610 l 251 193 q 252 144 251 170 q 253 97 252 118 q 254 69 254 76 q 290 65 271 66 q 331 64 309 64 l 479 64 q 526 64 507 64 q 557 66 545 65 q 575 69 570 68 l 646 197 l 700 186 l 647 -7 m 503 279 l 487 373 q 464 377 479 376 q 427 378 449 378 l 316 378 q 279 377 300 378 q 233 374 258 376 l 233 444 q 279 441 258 442 q 316 441 300 441 l 427 441 q 464 441 449 441 q 487 445 479 442 l 503 541 l 556 541 l 556 279 l 503 279 m 528 1016 l 481 1032 l 576 1225 l 671 1194 l 528 1016 m 598 898 l 556 868 l 335 994 l 416 994 l 195 868 l 153 898 l 332 1044 l 419 1044 l 598 898 z "},"Ệ":{"ha":746,"x_min":69,"x_max":700,"o":"m 647 -7 q 583 -1 606 -1 q 537 0 560 0 l 72 0 l 69 46 l 151 65 q 154 95 153 72 q 155 160 155 118 q 156 262 156 202 l 156 533 q 155 637 156 594 q 154 703 155 680 q 151 731 153 726 l 69 750 l 72 796 l 513 796 q 546 796 530 796 q 581 798 562 796 q 629 802 601 799 l 654 628 l 598 620 l 553 732 q 532 734 545 734 q 503 735 518 735 l 335 735 q 291 734 309 735 q 254 731 273 734 q 253 701 254 726 q 252 643 252 675 q 251 582 251 610 l 251 193 q 252 144 251 170 q 253 97 252 118 q 254 69 254 76 q 290 65 271 66 q 331 64 309 64 l 479 64 q 526 64 507 64 q 557 66 545 65 q 575 69 570 68 l 646 197 l 700 186 l 647 -7 m 503 279 l 487 373 q 464 377 479 376 q 427 378 449 378 l 316 378 q 279 377 300 378 q 233 374 258 376 l 233 444 q 279 441 258 442 q 316 441 300 441 l 427 441 q 464 441 449 441 q 487 445 479 442 l 503 541 l 556 541 l 556 279 l 503 279 m 377 -266 q 332 -249 351 -266 q 312 -205 312 -232 q 332 -160 312 -178 q 377 -142 351 -142 q 421 -160 403 -142 q 439 -205 439 -178 q 421 -249 439 -232 q 377 -266 403 -266 m 598 898 l 556 868 l 335 994 l 416 994 l 195 868 l 153 898 l 332 1044 l 419 1044 l 598 898 z "},"Ề":{"ha":746,"x_min":69,"x_max":700,"o":"m 647 -7 q 583 -1 606 -1 q 537 0 560 0 l 72 0 l 69 46 l 151 65 q 154 95 153 72 q 155 160 155 118 q 156 262 156 202 l 156 533 q 155 637 156 594 q 154 703 155 680 q 151 731 153 726 l 69 750 l 72 796 l 513 796 q 546 796 530 796 q 581 798 562 796 q 629 802 601 799 l 654 628 l 598 620 l 553 732 q 532 734 545 734 q 503 735 518 735 l 335 735 q 291 734 309 735 q 254 731 273 734 q 253 701 254 726 q 252 643 252 675 q 251 582 251 610 l 251 193 q 252 144 251 170 q 253 97 252 118 q 254 69 254 76 q 290 65 271 66 q 331 64 309 64 l 479 64 q 526 64 507 64 q 557 66 545 65 q 575 69 570 68 l 646 197 l 700 186 l 647 -7 m 503 279 l 487 373 q 464 377 479 376 q 427 378 449 378 l 316 378 q 279 377 300 378 q 233 374 258 376 l 233 444 q 279 441 258 442 q 316 441 300 441 l 427 441 q 464 441 449 441 q 487 445 479 442 l 503 541 l 556 541 l 556 279 l 503 279 m 534 1016 l 391 1194 l 484 1225 l 582 1032 l 534 1016 m 598 898 l 556 868 l 335 994 l 416 994 l 195 868 l 153 898 l 332 1044 l 419 1044 l 598 898 z "},"Ể":{"ha":746,"x_min":69,"x_max":700,"o":"m 647 -7 q 583 -1 606 -1 q 537 0 560 0 l 72 0 l 69 46 l 151 65 q 154 95 153 72 q 155 160 155 118 q 156 262 156 202 l 156 533 q 155 637 156 594 q 154 703 155 680 q 151 731 153 726 l 69 750 l 72 796 l 513 796 q 546 796 530 796 q 581 798 562 796 q 629 802 601 799 l 654 628 l 598 620 l 553 732 q 532 734 545 734 q 503 735 518 735 l 335 735 q 291 734 309 735 q 254 731 273 734 q 253 701 254 726 q 252 643 252 675 q 251 582 251 610 l 251 193 q 252 144 251 170 q 253 97 252 118 q 254 69 254 76 q 290 65 271 66 q 331 64 309 64 l 479 64 q 526 64 507 64 q 557 66 545 65 q 575 69 570 68 l 646 197 l 700 186 l 647 -7 m 503 279 l 487 373 q 464 377 479 376 q 427 378 449 378 l 316 378 q 279 377 300 378 q 233 374 258 376 l 233 444 q 279 441 258 442 q 316 441 300 441 l 427 441 q 464 441 449 441 q 487 445 479 442 l 503 541 l 556 541 l 556 279 l 503 279 m 598 898 l 556 868 l 335 994 l 416 994 l 195 868 l 153 898 l 332 1044 l 419 1044 l 598 898 m 528 1221 q 616 1199 582 1221 q 650 1138 650 1177 q 633 1094 650 1108 q 597 1069 617 1080 q 560 1044 576 1058 q 544 1001 544 1029 l 505 1001 l 505 1020 q 519 1075 505 1055 q 550 1109 534 1095 q 566 1142 566 1123 q 542 1185 566 1179 q 488 1184 518 1191 l 534 1192 l 490 1150 q 464 1128 472 1134 q 441 1122 456 1122 q 416 1132 425 1122 q 407 1156 407 1142 q 440 1200 407 1180 q 528 1221 473 1221 z "},"Ễ":{"ha":746,"x_min":69,"x_max":700,"o":"m 647 -7 q 583 -1 606 -1 q 537 0 560 0 l 72 0 l 69 46 l 151 65 q 154 95 153 72 q 155 160 155 118 q 156 262 156 202 l 156 533 q 155 637 156 594 q 154 703 155 680 q 151 731 153 726 l 69 750 l 72 796 l 513 796 q 546 796 530 796 q 581 798 562 796 q 629 802 601 799 l 654 628 l 598 620 l 553 732 q 532 734 545 734 q 503 735 518 735 l 335 735 q 291 734 309 735 q 254 731 273 734 q 253 701 254 726 q 252 643 252 675 q 251 582 251 610 l 251 193 q 252 144 251 170 q 253 97 252 118 q 254 69 254 76 q 290 65 271 66 q 331 64 309 64 l 479 64 q 526 64 507 64 q 557 66 545 65 q 575 69 570 68 l 646 197 l 700 186 l 647 -7 m 503 279 l 487 373 q 464 377 479 376 q 427 378 449 378 l 316 378 q 279 377 300 378 q 233 374 258 376 l 233 444 q 279 441 258 442 q 316 441 300 441 l 427 441 q 464 441 449 441 q 487 445 479 442 l 503 541 l 556 541 l 556 279 l 503 279 m 195 868 l 153 898 l 332 1044 l 419 1044 l 598 898 l 556 868 l 335 994 l 416 994 l 195 868 m 468 1080 q 400 1095 434 1080 q 334 1126 366 1111 q 273 1142 302 1142 q 225 1126 243 1142 q 191 1080 208 1109 l 149 1101 q 203 1191 168 1157 q 281 1225 237 1225 q 349 1209 315 1225 q 414 1178 382 1194 q 476 1162 446 1162 q 522 1179 505 1162 q 556 1225 540 1196 l 600 1203 q 545 1113 579 1146 q 468 1080 511 1080 z "},"Ȅ":{"ha":746,"x_min":69,"x_max":700,"o":"m 647 -7 q 583 -1 606 -1 q 537 0 560 0 l 72 0 l 69 46 l 151 65 q 154 95 153 72 q 155 160 155 118 q 156 262 156 202 l 156 533 q 155 637 156 594 q 154 703 155 680 q 151 731 153 726 l 69 750 l 72 796 l 513 796 q 546 796 530 796 q 581 798 562 796 q 629 802 601 799 l 654 628 l 598 620 l 553 732 q 532 734 545 734 q 503 735 518 735 l 335 735 q 291 734 309 735 q 254 731 273 734 q 253 701 254 726 q 252 643 252 675 q 251 582 251 610 l 251 193 q 252 144 251 170 q 253 97 252 118 q 254 69 254 76 q 290 65 271 66 q 331 64 309 64 l 479 64 q 526 64 507 64 q 557 66 545 65 q 575 69 570 68 l 646 197 l 700 186 l 647 -7 m 503 279 l 487 373 q 464 377 479 376 q 427 378 449 378 l 316 378 q 279 377 300 378 q 233 374 258 376 l 233 444 q 279 441 258 442 q 316 441 300 441 l 427 441 q 464 441 449 441 q 487 445 479 442 l 503 541 l 556 541 l 556 279 l 503 279 m 435 868 l 324 1029 l 412 1048 l 473 883 l 435 868 m 278 868 l 165 1029 l 254 1048 l 316 883 l 278 868 z "},"Ë":{"ha":746,"x_min":69,"x_max":700,"o":"m 647 -7 q 583 -1 606 -1 q 537 0 560 0 l 72 0 l 69 46 l 151 65 q 154 95 153 72 q 155 160 155 118 q 156 262 156 202 l 156 533 q 155 637 156 594 q 154 703 155 680 q 151 731 153 726 l 69 750 l 72 796 l 513 796 q 546 796 530 796 q 581 798 562 796 q 629 802 601 799 l 654 628 l 598 620 l 553 732 q 532 734 545 734 q 503 735 518 735 l 335 735 q 291 734 309 735 q 254 731 273 734 q 253 701 254 726 q 252 643 252 675 q 251 582 251 610 l 251 193 q 252 144 251 170 q 253 97 252 118 q 254 69 254 76 q 290 65 271 66 q 331 64 309 64 l 479 64 q 526 64 507 64 q 557 66 545 65 q 575 69 570 68 l 646 197 l 700 186 l 647 -7 m 503 279 l 487 373 q 464 377 479 376 q 427 378 449 378 l 316 378 q 279 377 300 378 q 233 374 258 376 l 233 444 q 279 441 258 442 q 316 441 300 441 l 427 441 q 464 441 449 441 q 487 445 479 442 l 503 541 l 556 541 l 556 279 l 503 279 m 247 902 q 203 919 221 902 q 184 963 184 936 q 203 1007 184 990 q 247 1024 221 1024 q 290 1007 273 1024 q 308 963 308 990 q 290 919 308 936 q 247 902 273 902 m 507 902 q 463 919 481 902 q 444 963 444 936 q 463 1007 444 990 q 507 1024 481 1024 q 550 1007 533 1024 q 567 963 567 990 q 550 919 567 936 q 507 902 533 902 z "},"Ė":{"ha":746,"x_min":69,"x_max":700,"o":"m 647 -7 q 583 -1 606 -1 q 537 0 560 0 l 72 0 l 69 46 l 151 65 q 154 95 153 72 q 155 160 155 118 q 156 262 156 202 l 156 533 q 155 637 156 594 q 154 703 155 680 q 151 731 153 726 l 69 750 l 72 796 l 513 796 q 546 796 530 796 q 581 798 562 796 q 629 802 601 799 l 654 628 l 598 620 l 553 732 q 532 734 545 734 q 503 735 518 735 l 335 735 q 291 734 309 735 q 254 731 273 734 q 253 701 254 726 q 252 643 252 675 q 251 582 251 610 l 251 193 q 252 144 251 170 q 253 97 252 118 q 254 69 254 76 q 290 65 271 66 q 331 64 309 64 l 479 64 q 526 64 507 64 q 557 66 545 65 q 575 69 570 68 l 646 197 l 700 186 l 647 -7 m 503 279 l 487 373 q 464 377 479 376 q 427 378 449 378 l 316 378 q 279 377 300 378 q 233 374 258 376 l 233 444 q 279 441 258 442 q 316 441 300 441 l 427 441 q 464 441 449 441 q 487 445 479 442 l 503 541 l 556 541 l 556 279 l 503 279 m 377 901 q 332 918 351 901 q 312 963 312 936 q 332 1007 312 989 q 377 1025 351 1025 q 421 1007 403 1025 q 439 963 439 989 q 421 918 439 936 q 377 901 403 901 z "},"Ẹ":{"ha":746,"x_min":69,"x_max":700,"o":"m 647 -7 q 583 -1 606 -1 q 537 0 560 0 l 72 0 l 69 46 l 151 65 q 154 95 153 72 q 155 160 155 118 q 156 262 156 202 l 156 533 q 155 637 156 594 q 154 703 155 680 q 151 731 153 726 l 69 750 l 72 796 l 513 796 q 546 796 530 796 q 581 798 562 796 q 629 802 601 799 l 654 628 l 598 620 l 553 732 q 532 734 545 734 q 503 735 518 735 l 335 735 q 291 734 309 735 q 254 731 273 734 q 253 701 254 726 q 252 643 252 675 q 251 582 251 610 l 251 193 q 252 144 251 170 q 253 97 252 118 q 254 69 254 76 q 290 65 271 66 q 331 64 309 64 l 479 64 q 526 64 507 64 q 557 66 545 65 q 575 69 570 68 l 646 197 l 700 186 l 647 -7 m 503 279 l 487 373 q 464 377 479 376 q 427 378 449 378 l 316 378 q 279 377 300 378 q 233 374 258 376 l 233 444 q 279 441 258 442 q 316 441 300 441 l 427 441 q 464 441 449 441 q 487 445 479 442 l 503 541 l 556 541 l 556 279 l 503 279 m 377 -266 q 332 -249 351 -266 q 312 -205 312 -232 q 332 -160 312 -178 q 377 -142 351 -142 q 421 -160 403 -142 q 439 -205 439 -178 q 421 -249 439 -232 q 377 -266 403 -266 z "},"È":{"ha":746,"x_min":69,"x_max":700,"o":"m 647 -7 q 583 -1 606 -1 q 537 0 560 0 l 72 0 l 69 46 l 151 65 q 154 95 153 72 q 155 160 155 118 q 156 262 156 202 l 156 533 q 155 637 156 594 q 154 703 155 680 q 151 731 153 726 l 69 750 l 72 796 l 513 796 q 546 796 530 796 q 581 798 562 796 q 629 802 601 799 l 654 628 l 598 620 l 553 732 q 532 734 545 734 q 503 735 518 735 l 335 735 q 291 734 309 735 q 254 731 273 734 q 253 701 254 726 q 252 643 252 675 q 251 582 251 610 l 251 193 q 252 144 251 170 q 253 97 252 118 q 254 69 254 76 q 290 65 271 66 q 331 64 309 64 l 479 64 q 526 64 507 64 q 557 66 545 65 q 575 69 570 68 l 646 197 l 700 186 l 647 -7 m 503 279 l 487 373 q 464 377 479 376 q 427 378 449 378 l 316 378 q 279 377 300 378 q 233 374 258 376 l 233 444 q 279 441 258 442 q 316 441 300 441 l 427 441 q 464 441 449 441 q 487 445 479 442 l 503 541 l 556 541 l 556 279 l 503 279 m 351 869 l 218 1032 l 312 1063 l 400 887 l 351 869 z "},"Ẻ":{"ha":746,"x_min":69,"x_max":700,"o":"m 647 -7 q 583 -1 606 -1 q 537 0 560 0 l 72 0 l 69 46 l 151 65 q 154 95 153 72 q 155 160 155 118 q 156 262 156 202 l 156 533 q 155 637 156 594 q 154 703 155 680 q 151 731 153 726 l 69 750 l 72 796 l 513 796 q 546 796 530 796 q 581 798 562 796 q 629 802 601 799 l 654 628 l 598 620 l 553 732 q 532 734 545 734 q 503 735 518 735 l 335 735 q 291 734 309 735 q 254 731 273 734 q 253 701 254 726 q 252 643 252 675 q 251 582 251 610 l 251 193 q 252 144 251 170 q 253 97 252 118 q 254 69 254 76 q 290 65 271 66 q 331 64 309 64 l 479 64 q 526 64 507 64 q 557 66 545 65 q 575 69 570 68 l 646 197 l 700 186 l 647 -7 m 503 279 l 487 373 q 464 377 479 376 q 427 378 449 378 l 316 378 q 279 377 300 378 q 233 374 258 376 l 233 444 q 279 441 258 442 q 316 441 300 441 l 427 441 q 464 441 449 441 q 487 445 479 442 l 503 541 l 556 541 l 556 279 l 503 279 m 381 1122 q 468 1099 434 1122 q 502 1038 502 1077 q 486 987 502 1004 q 449 958 469 970 q 412 930 429 947 q 396 883 396 914 l 357 883 l 357 906 q 372 967 357 944 q 404 1007 388 990 q 419 1042 419 1024 q 395 1084 419 1078 q 340 1084 370 1090 l 387 1093 l 342 1050 q 316 1029 324 1035 q 292 1023 308 1023 q 269 1032 278 1023 q 259 1055 259 1042 q 292 1101 259 1081 q 381 1122 326 1122 z "},"Ȇ":{"ha":746,"x_min":69,"x_max":700,"o":"m 647 -7 q 583 -1 606 -1 q 537 0 560 0 l 72 0 l 69 46 l 151 65 q 154 95 153 72 q 155 160 155 118 q 156 262 156 202 l 156 533 q 155 637 156 594 q 154 703 155 680 q 151 731 153 726 l 69 750 l 72 796 l 513 796 q 546 796 530 796 q 581 798 562 796 q 629 802 601 799 l 654 628 l 598 620 l 553 732 q 532 734 545 734 q 503 735 518 735 l 335 735 q 291 734 309 735 q 254 731 273 734 q 253 701 254 726 q 252 643 252 675 q 251 582 251 610 l 251 193 q 252 144 251 170 q 253 97 252 118 q 254 69 254 76 q 290 65 271 66 q 331 64 309 64 l 479 64 q 526 64 507 64 q 557 66 545 65 q 575 69 570 68 l 646 197 l 700 186 l 647 -7 m 503 279 l 487 373 q 464 377 479 376 q 427 378 449 378 l 316 378 q 279 377 300 378 q 233 374 258 376 l 233 444 q 279 441 258 442 q 316 441 300 441 l 427 441 q 464 441 449 441 q 487 445 479 442 l 503 541 l 556 541 l 556 279 l 503 279 m 203 868 l 159 884 q 230 1004 172 962 q 374 1047 288 1047 q 519 1004 460 1047 q 593 884 579 962 l 543 868 q 486 943 530 916 q 374 971 442 971 q 259 943 304 971 q 203 868 214 916 z "},"Ē":{"ha":746,"x_min":69,"x_max":700,"o":"m 647 -7 q 583 -1 606 -1 q 537 0 560 0 l 72 0 l 69 46 l 151 65 q 154 95 153 72 q 155 160 155 118 q 156 262 156 202 l 156 533 q 155 637 156 594 q 154 703 155 680 q 151 731 153 726 l 69 750 l 72 796 l 513 796 q 546 796 530 796 q 581 798 562 796 q 629 802 601 799 l 654 628 l 598 620 l 553 732 q 532 734 545 734 q 503 735 518 735 l 335 735 q 291 734 309 735 q 254 731 273 734 q 253 701 254 726 q 252 643 252 675 q 251 582 251 610 l 251 193 q 252 144 251 170 q 253 97 252 118 q 254 69 254 76 q 290 65 271 66 q 331 64 309 64 l 479 64 q 526 64 507 64 q 557 66 545 65 q 575 69 570 68 l 646 197 l 700 186 l 647 -7 m 503 279 l 487 373 q 464 377 479 376 q 427 378 449 378 l 316 378 q 279 377 300 378 q 233 374 258 376 l 233 444 q 279 441 258 442 q 316 441 300 441 l 427 441 q 464 441 449 441 q 487 445 479 442 l 503 541 l 556 541 l 556 279 l 503 279 m 186 996 l 566 996 l 566 926 l 186 926 l 186 996 z "},"Ḗ":{"ha":746,"x_min":69,"x_max":700,"o":"m 647 -7 q 583 -1 606 -1 q 537 0 560 0 l 72 0 l 69 46 l 151 65 q 154 95 153 72 q 155 160 155 118 q 156 262 156 202 l 156 533 q 155 637 156 594 q 154 703 155 680 q 151 731 153 726 l 69 750 l 72 796 l 513 796 q 546 796 530 796 q 581 798 562 796 q 629 802 601 799 l 654 628 l 598 620 l 553 732 q 532 734 545 734 q 503 735 518 735 l 335 735 q 291 734 309 735 q 254 731 273 734 q 253 701 254 726 q 252 643 252 675 q 251 582 251 610 l 251 193 q 252 144 251 170 q 253 97 252 118 q 254 69 254 76 q 290 65 271 66 q 331 64 309 64 l 479 64 q 526 64 507 64 q 557 66 545 65 q 575 69 570 68 l 646 197 l 700 186 l 647 -7 m 503 279 l 487 373 q 464 377 479 376 q 427 378 449 378 l 316 378 q 279 377 300 378 q 233 374 258 376 l 233 444 q 279 441 258 442 q 316 441 300 441 l 427 441 q 464 441 449 441 q 487 445 479 442 l 503 541 l 556 541 l 556 279 l 503 279 m 403 1040 l 355 1055 l 446 1225 l 541 1194 l 403 1040 m 161 936 l 161 1005 l 590 1005 l 590 936 l 161 936 z "},"Ḕ":{"ha":746,"x_min":69,"x_max":700,"o":"m 647 -7 q 583 -1 606 -1 q 537 0 560 0 l 72 0 l 69 46 l 151 65 q 154 95 153 72 q 155 160 155 118 q 156 262 156 202 l 156 533 q 155 637 156 594 q 154 703 155 680 q 151 731 153 726 l 69 750 l 72 796 l 513 796 q 546 796 530 796 q 581 798 562 796 q 629 802 601 799 l 654 628 l 598 620 l 553 732 q 532 734 545 734 q 503 735 518 735 l 335 735 q 291 734 309 735 q 254 731 273 734 q 253 701 254 726 q 252 643 252 675 q 251 582 251 610 l 251 193 q 252 144 251 170 q 253 97 252 118 q 254 69 254 76 q 290 65 271 66 q 331 64 309 64 l 479 64 q 526 64 507 64 q 557 66 545 65 q 575 69 570 68 l 646 197 l 700 186 l 647 -7 m 503 279 l 487 373 q 464 377 479 376 q 427 378 449 378 l 316 378 q 279 377 300 378 q 233 374 258 376 l 233 444 q 279 441 258 442 q 316 441 300 441 l 427 441 q 464 441 449 441 q 487 445 479 442 l 503 541 l 556 541 l 556 279 l 503 279 m 590 1005 l 590 936 l 161 936 l 161 1005 l 590 1005 m 349 1040 l 210 1194 l 305 1225 l 396 1055 l 349 1040 z "},"Ę":{"ha":746,"x_min":69,"x_max":722,"o":"m 583 -302 q 505 -287 538 -302 q 453 -244 472 -271 q 434 -183 434 -217 q 472 -85 434 -133 q 575 0 510 -38 l 72 0 l 69 46 l 151 65 q 154 95 153 72 q 155 160 155 118 q 156 262 156 202 l 156 533 q 155 637 156 594 q 154 703 155 680 q 151 731 153 726 l 69 750 l 72 796 l 513 796 q 546 796 530 796 q 581 798 562 796 q 629 802 601 799 l 654 628 l 598 620 l 553 732 q 532 734 545 734 q 503 735 518 735 l 335 735 q 291 734 309 735 q 254 731 273 734 q 253 701 254 726 q 252 643 252 675 q 251 582 251 610 l 251 193 q 252 144 251 170 q 253 97 252 118 q 254 69 254 76 q 290 65 271 66 q 331 64 309 64 l 479 64 q 526 64 507 64 q 557 66 545 65 q 575 69 570 68 l 646 197 l 700 186 l 650 0 q 519 -168 519 -77 q 541 -229 519 -206 q 600 -251 563 -251 q 693 -203 646 -251 l 722 -235 q 583 -302 663 -302 m 503 279 l 487 373 q 464 377 479 376 q 427 378 449 378 l 316 378 q 279 377 300 378 q 233 374 258 376 l 233 444 q 279 441 258 442 q 316 441 300 441 l 427 441 q 464 441 449 441 q 487 445 479 442 l 503 541 l 556 541 l 556 279 l 503 279 z "},"Ẽ":{"ha":746,"x_min":69,"x_max":700,"o":"m 647 -7 q 583 -1 606 -1 q 537 0 560 0 l 72 0 l 69 46 l 151 65 q 154 95 153 72 q 155 160 155 118 q 156 262 156 202 l 156 533 q 155 637 156 594 q 154 703 155 680 q 151 731 153 726 l 69 750 l 72 796 l 513 796 q 546 796 530 796 q 581 798 562 796 q 629 802 601 799 l 654 628 l 598 620 l 553 732 q 532 734 545 734 q 503 735 518 735 l 335 735 q 291 734 309 735 q 254 731 273 734 q 253 701 254 726 q 252 643 252 675 q 251 582 251 610 l 251 193 q 252 144 251 170 q 253 97 252 118 q 254 69 254 76 q 290 65 271 66 q 331 64 309 64 l 479 64 q 526 64 507 64 q 557 66 545 65 q 575 69 570 68 l 646 197 l 700 186 l 647 -7 m 503 279 l 487 373 q 464 377 479 376 q 427 378 449 378 l 316 378 q 279 377 300 378 q 233 374 258 376 l 233 444 q 279 441 258 442 q 316 441 300 441 l 427 441 q 464 441 449 441 q 487 445 479 442 l 503 541 l 556 541 l 556 279 l 503 279 m 602 1029 l 642 1009 q 577 916 618 951 q 483 882 536 882 q 401 901 442 882 q 323 941 361 921 q 250 960 285 960 q 191 942 213 960 q 149 892 170 924 l 110 913 q 175 1005 133 971 q 269 1039 217 1039 q 351 1020 311 1039 q 429 981 391 1001 q 505 962 468 962 q 560 981 538 962 q 602 1029 582 1000 z "},"F":{"ha":675,"x_min":71,"x_max":651,"o":"m 79 0 l 76 46 l 152 65 q 154 91 153 71 q 155 151 155 111 q 156 252 156 190 l 157 563 q 157 654 157 618 q 155 708 156 689 q 153 731 155 727 l 71 750 l 73 796 l 510 796 q 543 796 528 796 q 578 798 559 796 q 625 802 598 799 l 651 628 l 594 620 l 549 732 q 530 734 543 734 q 502 735 517 735 l 338 735 q 292 734 317 735 q 252 732 267 734 q 252 710 252 727 q 251 669 251 693 q 251 617 251 646 q 251 562 251 589 l 252 270 q 253 152 252 194 q 254 90 254 110 q 256 65 255 71 l 366 49 l 363 0 l 79 0 m 500 270 l 483 368 q 459 372 476 370 q 419 373 442 373 l 296 373 q 269 373 285 373 q 228 372 254 373 l 228 439 q 262 437 245 438 q 296 437 279 437 l 419 437 q 460 438 446 437 q 483 442 475 439 l 500 536 l 552 536 l 552 270 l 500 270 z "},"G":{"ha":876,"x_min":72,"x_max":826,"o":"m 510 -12 q 290 33 389 -12 q 131 168 190 77 q 72 393 72 259 q 101 550 72 476 q 186 682 130 624 q 326 774 243 741 q 515 808 408 808 q 633 798 570 808 q 745 766 697 787 l 754 594 l 701 589 l 662 707 q 591 736 637 727 q 505 745 545 745 q 325 699 393 745 q 224 577 256 652 q 193 415 193 502 q 236 216 193 297 q 353 93 279 134 q 519 52 426 52 q 616 64 563 52 q 708 107 669 77 l 674 31 l 674 174 q 673 257 674 222 q 669 309 671 292 l 578 323 l 581 372 l 823 372 l 826 326 l 768 311 q 768 280 768 305 q 768 217 768 255 q 769 129 768 163 q 772 62 770 95 q 647 8 720 28 q 510 -12 574 -12 z "},"Ğ":{"ha":876,"x_min":72,"x_max":826,"o":"m 510 -12 q 290 33 389 -12 q 131 168 190 77 q 72 393 72 259 q 101 550 72 476 q 186 682 130 624 q 326 774 243 741 q 515 808 408 808 q 633 798 570 808 q 745 766 697 787 l 754 594 l 701 589 l 662 707 q 591 736 637 727 q 505 745 545 745 q 325 699 393 745 q 224 577 256 652 q 193 415 193 502 q 236 216 193 297 q 353 93 279 134 q 519 52 426 52 q 616 64 563 52 q 708 107 669 77 l 674 31 l 674 174 q 673 257 674 222 q 669 309 671 292 l 578 323 l 581 372 l 823 372 l 826 326 l 768 311 q 768 280 768 305 q 768 217 768 255 q 769 129 768 163 q 772 62 770 95 q 647 8 720 28 q 510 -12 574 -12 m 650 1055 l 694 1039 q 623 918 681 960 q 479 876 566 876 q 334 918 393 876 q 260 1039 274 960 l 311 1055 q 368 979 323 1008 q 479 951 412 951 q 594 979 549 951 q 650 1055 639 1008 z "},"Ǧ":{"ha":876,"x_min":72,"x_max":826,"o":"m 510 -12 q 290 33 389 -12 q 131 168 190 77 q 72 393 72 259 q 101 550 72 476 q 186 682 130 624 q 326 774 243 741 q 515 808 408 808 q 633 798 570 808 q 745 766 697 787 l 754 594 l 701 589 l 662 707 q 591 736 637 727 q 505 745 545 745 q 325 699 393 745 q 224 577 256 652 q 193 415 193 502 q 236 216 193 297 q 353 93 279 134 q 519 52 426 52 q 616 64 563 52 q 708 107 669 77 l 674 31 l 674 174 q 673 257 674 222 q 669 309 671 292 l 578 323 l 581 372 l 823 372 l 826 326 l 768 311 q 768 280 768 305 q 768 217 768 255 q 769 129 768 163 q 772 62 770 95 q 647 8 720 28 q 510 -12 574 -12 m 255 1025 l 297 1055 l 518 929 l 437 929 l 658 1055 l 700 1025 l 521 878 l 434 878 l 255 1025 z "},"Ĝ":{"ha":876,"x_min":72,"x_max":826,"o":"m 510 -12 q 290 33 389 -12 q 131 168 190 77 q 72 393 72 259 q 101 550 72 476 q 186 682 130 624 q 326 774 243 741 q 515 808 408 808 q 633 798 570 808 q 745 766 697 787 l 754 594 l 701 589 l 662 707 q 591 736 637 727 q 505 745 545 745 q 325 699 393 745 q 224 577 256 652 q 193 415 193 502 q 236 216 193 297 q 353 93 279 134 q 519 52 426 52 q 616 64 563 52 q 708 107 669 77 l 674 31 l 674 174 q 673 257 674 222 q 669 309 671 292 l 578 323 l 581 372 l 823 372 l 826 326 l 768 311 q 768 280 768 305 q 768 217 768 255 q 769 129 768 163 q 772 62 770 95 q 647 8 720 28 q 510 -12 574 -12 m 700 898 l 658 868 l 437 994 l 518 994 l 297 868 l 255 898 l 434 1044 l 521 1044 l 700 898 z "},"Ģ":{"ha":876,"x_min":72,"x_max":826,"o":"m 510 -12 q 290 33 389 -12 q 131 168 190 77 q 72 393 72 259 q 101 550 72 476 q 186 682 130 624 q 326 774 243 741 q 515 808 408 808 q 633 798 570 808 q 745 766 697 787 l 754 594 l 701 589 l 662 707 q 591 736 637 727 q 505 745 545 745 q 325 699 393 745 q 224 577 256 652 q 193 415 193 502 q 236 216 193 297 q 353 93 279 134 q 519 52 426 52 q 616 64 563 52 q 708 107 669 77 l 674 31 l 674 174 q 673 257 674 222 q 669 309 671 292 l 578 323 l 581 372 l 823 372 l 826 326 l 768 311 q 768 280 768 305 q 768 217 768 255 q 769 129 768 163 q 772 62 770 95 q 647 8 720 28 q 510 -12 574 -12 m 393 -385 l 377 -353 q 442 -319 418 -340 q 467 -274 467 -297 q 459 -248 467 -258 q 441 -232 452 -239 q 422 -214 430 -225 q 415 -184 415 -203 q 431 -149 415 -163 q 468 -136 446 -136 q 508 -146 492 -136 q 532 -176 524 -157 q 540 -218 540 -194 q 521 -288 540 -255 q 469 -345 502 -320 q 393 -385 437 -370 z "},"Ġ":{"ha":876,"x_min":72,"x_max":826,"o":"m 510 -12 q 290 33 389 -12 q 131 168 190 77 q 72 393 72 259 q 101 550 72 476 q 186 682 130 624 q 326 774 243 741 q 515 808 408 808 q 633 798 570 808 q 745 766 697 787 l 754 594 l 701 589 l 662 707 q 591 736 637 727 q 505 745 545 745 q 325 699 393 745 q 224 577 256 652 q 193 415 193 502 q 236 216 193 297 q 353 93 279 134 q 519 52 426 52 q 616 64 563 52 q 708 107 669 77 l 674 31 l 674 174 q 673 257 674 222 q 669 309 671 292 l 578 323 l 581 372 l 823 372 l 826 326 l 768 311 q 768 280 768 305 q 768 217 768 255 q 769 129 768 163 q 772 62 770 95 q 647 8 720 28 q 510 -12 574 -12 m 479 901 q 433 918 453 901 q 414 963 414 936 q 433 1007 414 989 q 479 1025 453 1025 q 523 1007 505 1025 q 541 963 541 989 q 523 918 541 936 q 479 901 505 901 z "},"Ḡ":{"ha":876,"x_min":72,"x_max":826,"o":"m 510 -12 q 290 33 389 -12 q 131 168 190 77 q 72 393 72 259 q 101 550 72 476 q 186 682 130 624 q 326 774 243 741 q 515 808 408 808 q 633 798 570 808 q 745 766 697 787 l 754 594 l 701 589 l 662 707 q 591 736 637 727 q 505 745 545 745 q 325 699 393 745 q 224 577 256 652 q 193 415 193 502 q 236 216 193 297 q 353 93 279 134 q 519 52 426 52 q 616 64 563 52 q 708 107 669 77 l 674 31 l 674 174 q 673 257 674 222 q 669 309 671 292 l 578 323 l 581 372 l 823 372 l 826 326 l 768 311 q 768 280 768 305 q 768 217 768 255 q 769 129 768 163 q 772 62 770 95 q 647 8 720 28 q 510 -12 574 -12 m 288 996 l 667 996 l 667 926 l 288 926 l 288 996 z "},"H":{"ha":901,"x_min":68,"x_max":836,"o":"m 562 0 l 559 46 l 642 65 q 646 90 644 71 q 648 152 647 110 q 648 262 648 194 l 648 533 q 648 645 648 604 q 646 707 647 686 q 642 731 644 727 l 559 750 l 562 796 l 833 796 l 836 750 l 753 731 q 748 707 750 727 q 745 646 746 688 q 745 533 745 605 l 745 262 q 745 151 745 193 q 748 90 746 110 q 753 65 750 71 l 836 46 l 833 0 l 562 0 m 71 0 l 68 46 l 152 65 q 154 95 153 72 q 155 159 155 118 q 156 262 156 201 l 156 533 q 155 637 156 595 q 154 703 155 680 q 152 731 153 726 l 68 750 l 71 796 l 339 796 l 342 750 l 259 731 q 256 707 258 727 q 253 645 254 686 q 252 533 252 604 l 252 262 q 253 152 252 194 q 256 90 254 110 q 259 65 258 71 l 342 46 l 339 0 l 71 0 m 239 373 l 239 446 q 319 444 263 445 q 452 442 374 442 q 583 444 529 442 q 661 446 637 445 l 661 373 q 579 378 628 377 q 452 378 530 378 q 321 378 372 378 q 239 373 270 377 z "},"Ħ":{"ha":901,"x_min":54,"x_max":846,"o":"m 562 0 l 559 46 l 642 65 q 646 90 644 71 q 648 152 647 110 q 648 262 648 194 l 648 533 q 648 645 648 604 q 646 707 647 686 q 642 731 644 727 l 559 750 l 562 796 l 833 796 l 836 750 l 753 731 q 748 707 750 727 q 745 646 746 688 q 745 533 745 605 l 745 262 q 745 151 745 193 q 748 90 746 110 q 753 65 750 71 l 836 46 l 833 0 l 562 0 m 71 0 l 68 46 l 152 65 q 154 95 153 72 q 155 159 155 118 q 156 262 156 201 l 156 533 q 155 637 156 595 q 154 703 155 680 q 152 731 153 726 l 68 750 l 71 796 l 339 796 l 342 750 l 259 731 q 256 707 258 727 q 253 645 254 686 q 252 533 252 604 l 252 262 q 253 152 252 194 q 256 90 254 110 q 259 65 258 71 l 342 46 l 339 0 l 71 0 m 239 373 l 239 446 q 319 444 263 445 q 452 442 374 442 q 583 444 529 442 q 661 446 637 445 l 661 373 q 579 378 628 377 q 452 378 530 378 q 321 378 372 378 q 239 373 270 377 m 54 557 l 54 620 l 848 620 l 848 557 l 54 557 z "},"Ḫ":{"ha":901,"x_min":68,"x_max":836,"o":"m 562 0 l 559 46 l 642 65 q 646 90 644 71 q 648 152 647 110 q 648 262 648 194 l 648 533 q 648 645 648 604 q 646 707 647 686 q 642 731 644 727 l 559 750 l 562 796 l 833 796 l 836 750 l 753 731 q 748 707 750 727 q 745 646 746 688 q 745 533 745 605 l 745 262 q 745 151 745 193 q 748 90 746 110 q 753 65 750 71 l 836 46 l 833 0 l 562 0 m 71 0 l 68 46 l 152 65 q 154 95 153 72 q 155 159 155 118 q 156 262 156 201 l 156 533 q 155 637 156 595 q 154 703 155 680 q 152 731 153 726 l 68 750 l 71 796 l 339 796 l 342 750 l 259 731 q 256 707 258 727 q 253 645 254 686 q 252 533 252 604 l 252 262 q 253 152 252 194 q 256 90 254 110 q 259 65 258 71 l 342 46 l 339 0 l 71 0 m 239 373 l 239 446 q 319 444 263 445 q 452 442 374 442 q 583 444 529 442 q 661 446 637 445 l 661 373 q 579 378 628 377 q 452 378 530 378 q 321 378 372 378 q 239 373 270 377 m 583 -100 l 628 -118 q 577 -258 623 -209 q 453 -308 532 -308 q 328 -258 374 -308 q 275 -118 282 -209 l 326 -100 q 369 -196 335 -163 q 454 -229 403 -229 q 542 -196 509 -229 q 583 -100 575 -163 z "},"Ĥ":{"ha":901,"x_min":68,"x_max":836,"o":"m 562 0 l 559 46 l 642 65 q 646 90 644 71 q 648 152 647 110 q 648 262 648 194 l 648 533 q 648 645 648 604 q 646 707 647 686 q 642 731 644 727 l 559 750 l 562 796 l 833 796 l 836 750 l 753 731 q 748 707 750 727 q 745 646 746 688 q 745 533 745 605 l 745 262 q 745 151 745 193 q 748 90 746 110 q 753 65 750 71 l 836 46 l 833 0 l 562 0 m 71 0 l 68 46 l 152 65 q 154 95 153 72 q 155 159 155 118 q 156 262 156 201 l 156 533 q 155 637 156 595 q 154 703 155 680 q 152 731 153 726 l 68 750 l 71 796 l 339 796 l 342 750 l 259 731 q 256 707 258 727 q 253 645 254 686 q 252 533 252 604 l 252 262 q 253 152 252 194 q 256 90 254 110 q 259 65 258 71 l 342 46 l 339 0 l 71 0 m 239 373 l 239 446 q 319 444 263 445 q 452 442 374 442 q 583 444 529 442 q 661 446 637 445 l 661 373 q 579 378 628 377 q 452 378 530 378 q 321 378 372 378 q 239 373 270 377 m 674 898 l 632 868 l 411 994 l 492 994 l 271 868 l 229 898 l 408 1044 l 495 1044 l 674 898 z "},"Ḥ":{"ha":901,"x_min":68,"x_max":836,"o":"m 562 0 l 559 46 l 642 65 q 646 90 644 71 q 648 152 647 110 q 648 262 648 194 l 648 533 q 648 645 648 604 q 646 707 647 686 q 642 731 644 727 l 559 750 l 562 796 l 833 796 l 836 750 l 753 731 q 748 707 750 727 q 745 646 746 688 q 745 533 745 605 l 745 262 q 745 151 745 193 q 748 90 746 110 q 753 65 750 71 l 836 46 l 833 0 l 562 0 m 71 0 l 68 46 l 152 65 q 154 95 153 72 q 155 159 155 118 q 156 262 156 201 l 156 533 q 155 637 156 595 q 154 703 155 680 q 152 731 153 726 l 68 750 l 71 796 l 339 796 l 342 750 l 259 731 q 256 707 258 727 q 253 645 254 686 q 252 533 252 604 l 252 262 q 253 152 252 194 q 256 90 254 110 q 259 65 258 71 l 342 46 l 339 0 l 71 0 m 239 373 l 239 446 q 319 444 263 445 q 452 442 374 442 q 583 444 529 442 q 661 446 637 445 l 661 373 q 579 378 628 377 q 452 378 530 378 q 321 378 372 378 q 239 373 270 377 m 453 -266 q 408 -249 427 -266 q 388 -205 388 -232 q 408 -160 388 -178 q 453 -142 427 -142 q 497 -160 479 -142 q 515 -205 515 -178 q 497 -249 515 -232 q 453 -266 479 -266 z "},"I":{"ha":408,"x_min":69,"x_max":342,"o":"m 72 0 l 69 46 l 152 65 q 154 95 153 72 q 155 159 155 118 q 156 262 156 201 l 156 533 q 155 637 156 595 q 154 703 155 680 q 152 731 153 726 l 69 750 l 72 796 l 339 796 l 342 750 l 259 731 q 256 707 258 727 q 253 645 254 686 q 252 533 252 604 l 252 262 q 253 152 252 194 q 256 90 254 110 q 259 65 258 71 l 342 46 l 339 0 l 72 0 z "},"Ĳ":{"ha":817,"x_min":69,"x_max":750,"o":"m 72 0 l 69 46 l 152 65 q 154 95 153 72 q 155 159 155 118 q 156 262 156 201 l 156 533 q 155 637 156 595 q 154 703 155 680 q 152 731 153 726 l 69 750 l 72 796 l 339 796 l 342 750 l 259 731 q 256 707 258 727 q 253 645 254 686 q 252 533 252 604 l 252 262 q 253 152 252 194 q 256 90 254 110 q 259 65 258 71 l 342 46 l 339 0 l 72 0 m 667 731 q 664 705 666 727 q 661 642 662 684 q 661 532 661 601 l 662 27 q 637 -140 662 -73 q 565 -241 612 -208 q 454 -275 518 -275 q 353 -248 396 -275 q 309 -184 309 -220 q 322 -152 309 -164 q 357 -140 335 -140 q 390 -148 374 -140 q 422 -172 406 -156 l 486 -237 l 446 -224 q 512 -213 486 -231 q 551 -152 538 -195 q 563 -39 563 -109 l 564 532 q 564 634 564 593 q 562 700 563 675 q 560 731 562 724 l 468 750 l 471 796 l 747 796 l 750 750 l 667 731 z "},"Í":{"ha":408,"x_min":69,"x_max":361,"o":"m 72 0 l 69 46 l 152 65 q 154 95 153 72 q 155 159 155 118 q 156 262 156 201 l 156 533 q 155 637 156 595 q 154 703 155 680 q 152 731 153 726 l 69 750 l 72 796 l 339 796 l 342 750 l 259 731 q 256 707 258 727 q 253 645 254 686 q 252 533 252 604 l 252 262 q 253 152 252 194 q 256 90 254 110 q 259 65 258 71 l 342 46 l 339 0 l 72 0 m 229 869 l 180 887 l 269 1063 l 362 1032 l 229 869 z "},"Ĭ":{"ha":408,"x_min":-12,"x_max":422,"o":"m 72 0 l 69 46 l 152 65 q 154 95 153 72 q 155 159 155 118 q 156 262 156 201 l 156 533 q 155 637 156 595 q 154 703 155 680 q 152 731 153 726 l 69 750 l 72 796 l 339 796 l 342 750 l 259 731 q 256 707 258 727 q 253 645 254 686 q 252 533 252 604 l 252 262 q 253 152 252 194 q 256 90 254 110 q 259 65 258 71 l 342 46 l 339 0 l 72 0 m 377 1055 l 422 1039 q 351 918 408 960 q 206 876 293 876 q 61 918 121 876 q -12 1039 1 960 l 38 1055 q 95 979 50 1008 q 206 951 140 951 q 321 979 277 951 q 377 1055 366 1008 z "},"Ǐ":{"ha":408,"x_min":-18,"x_max":427,"o":"m 72 0 l 69 46 l 152 65 q 154 95 153 72 q 155 159 155 118 q 156 262 156 201 l 156 533 q 155 637 156 595 q 154 703 155 680 q 152 731 153 726 l 69 750 l 72 796 l 339 796 l 342 750 l 259 731 q 256 707 258 727 q 253 645 254 686 q 252 533 252 604 l 252 262 q 253 152 252 194 q 256 90 254 110 q 259 65 258 71 l 342 46 l 339 0 l 72 0 m -18 1025 l 24 1055 l 245 929 l 164 929 l 385 1055 l 427 1025 l 248 878 l 161 878 l -18 1025 z "},"Î":{"ha":408,"x_min":-18,"x_max":427,"o":"m 72 0 l 69 46 l 152 65 q 154 95 153 72 q 155 159 155 118 q 156 262 156 201 l 156 533 q 155 637 156 595 q 154 703 155 680 q 152 731 153 726 l 69 750 l 72 796 l 339 796 l 342 750 l 259 731 q 256 707 258 727 q 253 645 254 686 q 252 533 252 604 l 252 262 q 253 152 252 194 q 256 90 254 110 q 259 65 258 71 l 342 46 l 339 0 l 72 0 m 427 898 l 385 868 l 164 994 l 245 994 l 24 868 l -18 898 l 161 1044 l 248 1044 l 427 898 z "},"Ȉ":{"ha":408,"x_min":-5,"x_max":342,"o":"m 72 0 l 69 46 l 152 65 q 154 95 153 72 q 155 159 155 118 q 156 262 156 201 l 156 533 q 155 637 156 595 q 154 703 155 680 q 152 731 153 726 l 69 750 l 72 796 l 339 796 l 342 750 l 259 731 q 256 707 258 727 q 253 645 254 686 q 252 533 252 604 l 252 262 q 253 152 252 194 q 256 90 254 110 q 259 65 258 71 l 342 46 l 339 0 l 72 0 m 264 868 l 153 1029 l 241 1048 l 302 883 l 264 868 m 107 868 l -5 1029 l 83 1048 l 145 883 l 107 868 z "},"Ï":{"ha":408,"x_min":14,"x_max":396,"o":"m 72 0 l 69 46 l 152 65 q 154 95 153 72 q 155 159 155 118 q 156 262 156 201 l 156 533 q 155 637 156 595 q 154 703 155 680 q 152 731 153 726 l 69 750 l 72 796 l 339 796 l 342 750 l 259 731 q 256 707 258 727 q 253 645 254 686 q 252 533 252 604 l 252 262 q 253 152 252 194 q 256 90 254 110 q 259 65 258 71 l 342 46 l 339 0 l 72 0 m 76 902 q 32 919 50 902 q 14 963 14 936 q 32 1007 14 990 q 76 1024 50 1024 q 119 1007 102 1024 q 137 963 137 990 q 119 919 137 936 q 76 902 102 902 m 336 902 q 292 919 311 902 q 273 963 273 936 q 292 1007 273 990 q 336 1024 311 1024 q 379 1007 362 1024 q 396 963 396 990 q 379 919 396 936 q 336 902 362 902 z "},"Ḯ":{"ha":408,"x_min":14,"x_max":396,"o":"m 72 0 l 69 46 l 152 65 q 154 95 153 72 q 155 159 155 118 q 156 262 156 201 l 156 533 q 155 637 156 595 q 154 703 155 680 q 152 731 153 726 l 69 750 l 72 796 l 339 796 l 342 750 l 259 731 q 256 707 258 727 q 253 645 254 686 q 252 533 252 604 l 252 262 q 253 152 252 194 q 256 90 254 110 q 259 65 258 71 l 342 46 l 339 0 l 72 0 m 228 1023 l 182 1039 l 275 1225 l 370 1194 l 228 1023 m 76 902 q 32 919 50 902 q 14 963 14 936 q 32 1007 14 990 q 76 1024 50 1024 q 119 1007 102 1024 q 137 963 137 990 q 119 919 137 936 q 76 902 102 902 m 336 902 q 292 919 311 902 q 273 963 273 936 q 292 1007 273 990 q 336 1024 311 1024 q 379 1007 362 1024 q 396 963 396 990 q 379 919 396 936 q 336 902 362 902 z "},"İ":{"ha":408,"x_min":69,"x_max":342,"o":"m 72 0 l 69 46 l 152 65 q 154 95 153 72 q 155 159 155 118 q 156 262 156 201 l 156 533 q 155 637 156 595 q 154 703 155 680 q 152 731 153 726 l 69 750 l 72 796 l 339 796 l 342 750 l 259 731 q 256 707 258 727 q 253 645 254 686 q 252 533 252 604 l 252 262 q 253 152 252 194 q 256 90 254 110 q 259 65 258 71 l 342 46 l 339 0 l 72 0 m 206 901 q 161 918 180 901 q 141 963 141 936 q 161 1007 141 989 q 206 1025 180 1025 q 250 1007 232 1025 q 269 963 269 989 q 250 918 269 936 q 206 901 232 901 z "},"Ị":{"ha":408,"x_min":69,"x_max":342,"o":"m 72 0 l 69 46 l 152 65 q 154 95 153 72 q 155 159 155 118 q 156 262 156 201 l 156 533 q 155 637 156 595 q 154 703 155 680 q 152 731 153 726 l 69 750 l 72 796 l 339 796 l 342 750 l 259 731 q 256 707 258 727 q 253 645 254 686 q 252 533 252 604 l 252 262 q 253 152 252 194 q 256 90 254 110 q 259 65 258 71 l 342 46 l 339 0 l 72 0 m 206 -266 q 161 -249 180 -266 q 141 -205 141 -232 q 161 -160 141 -178 q 206 -142 180 -142 q 250 -160 232 -142 q 269 -205 269 -178 q 250 -249 269 -232 q 206 -266 232 -266 z "},"Ì":{"ha":408,"x_min":47,"x_max":342,"o":"m 72 0 l 69 46 l 152 65 q 154 95 153 72 q 155 159 155 118 q 156 262 156 201 l 156 533 q 155 637 156 595 q 154 703 155 680 q 152 731 153 726 l 69 750 l 72 796 l 339 796 l 342 750 l 259 731 q 256 707 258 727 q 253 645 254 686 q 252 533 252 604 l 252 262 q 253 152 252 194 q 256 90 254 110 q 259 65 258 71 l 342 46 l 339 0 l 72 0 m 180 869 l 47 1032 l 141 1063 l 229 887 l 180 869 z "},"Ỉ":{"ha":408,"x_min":69,"x_max":342,"o":"m 72 0 l 69 46 l 152 65 q 154 95 153 72 q 155 159 155 118 q 156 262 156 201 l 156 533 q 155 637 156 595 q 154 703 155 680 q 152 731 153 726 l 69 750 l 72 796 l 339 796 l 342 750 l 259 731 q 256 707 258 727 q 253 645 254 686 q 252 533 252 604 l 252 262 q 253 152 252 194 q 256 90 254 110 q 259 65 258 71 l 342 46 l 339 0 l 72 0 m 210 1122 q 297 1099 263 1122 q 331 1038 331 1077 q 315 987 331 1004 q 278 958 298 970 q 241 930 258 947 q 225 883 225 914 l 186 883 l 186 906 q 201 967 186 944 q 233 1007 217 990 q 248 1042 248 1024 q 224 1084 248 1078 q 170 1084 199 1090 l 216 1093 l 171 1050 q 145 1029 153 1035 q 121 1023 137 1023 q 98 1032 107 1023 q 88 1055 88 1042 q 121 1101 88 1081 q 210 1122 155 1122 z "},"Ȋ":{"ha":408,"x_min":-12,"x_max":422,"o":"m 72 0 l 69 46 l 152 65 q 154 95 153 72 q 155 159 155 118 q 156 262 156 201 l 156 533 q 155 637 156 595 q 154 703 155 680 q 152 731 153 726 l 69 750 l 72 796 l 339 796 l 342 750 l 259 731 q 256 707 258 727 q 253 645 254 686 q 252 533 252 604 l 252 262 q 253 152 252 194 q 256 90 254 110 q 259 65 258 71 l 342 46 l 339 0 l 72 0 m 33 868 l -12 884 q 59 1004 1 962 q 203 1047 117 1047 q 349 1004 289 1047 q 422 884 408 962 l 372 868 q 315 943 359 916 q 203 971 271 971 q 88 943 133 971 q 33 868 43 916 z "},"Ī":{"ha":408,"x_min":15,"x_max":395,"o":"m 72 0 l 69 46 l 152 65 q 154 95 153 72 q 155 159 155 118 q 156 262 156 201 l 156 533 q 155 637 156 595 q 154 703 155 680 q 152 731 153 726 l 69 750 l 72 796 l 339 796 l 342 750 l 259 731 q 256 707 258 727 q 253 645 254 686 q 252 533 252 604 l 252 262 q 253 152 252 194 q 256 90 254 110 q 259 65 258 71 l 342 46 l 339 0 l 72 0 m 15 996 l 395 996 l 395 926 l 15 926 l 15 996 z "},"Į":{"ha":408,"x_min":58,"x_max":342,"o":"m 252 262 q 253 153 252 195 q 256 91 254 111 q 262 65 258 71 l 342 46 l 339 0 q 241 -21 285 0 q 170 -77 197 -42 q 144 -159 144 -113 q 163 -227 144 -203 q 222 -251 183 -251 q 308 -205 266 -251 l 339 -235 q 279 -285 313 -267 q 209 -302 245 -302 q 102 -264 145 -302 q 58 -170 58 -227 q 110 -52 58 -103 q 247 15 161 -1 l 256 0 l 72 0 l 69 46 l 152 65 q 154 95 153 72 q 155 160 155 118 q 156 262 156 202 l 156 533 q 155 636 156 594 q 154 702 155 678 q 152 731 153 726 l 69 750 l 72 796 l 339 796 l 342 750 l 259 731 q 256 706 258 727 q 253 644 254 685 q 252 533 252 602 l 252 262 z "},"Ĩ":{"ha":408,"x_min":-61,"x_max":471,"o":"m 72 0 l 69 46 l 152 65 q 154 95 153 72 q 155 159 155 118 q 156 262 156 201 l 156 533 q 155 637 156 595 q 154 703 155 680 q 152 731 153 726 l 69 750 l 72 796 l 339 796 l 342 750 l 259 731 q 256 707 258 727 q 253 645 254 686 q 252 533 252 604 l 252 262 q 253 152 252 194 q 256 90 254 110 q 259 65 258 71 l 342 46 l 339 0 l 72 0 m 431 1029 l 471 1009 q 406 916 448 951 q 312 882 365 882 q 231 901 271 882 q 152 941 190 921 q 79 960 114 960 q 20 942 42 960 q -22 892 -1 924 l -61 913 q 4 1005 -38 971 q 98 1039 46 1039 q 180 1020 140 1039 q 258 981 220 1001 q 334 962 297 962 q 389 981 368 962 q 431 1029 411 1000 z "},"J":{"ha":408,"x_min":-99,"x_max":342,"o":"m 259 731 q 256 705 258 727 q 253 642 254 684 q 252 532 252 601 l 254 27 q 229 -140 254 -73 q 157 -241 203 -208 q 46 -275 110 -275 q -56 -248 -12 -275 q -99 -184 -99 -220 q -86 -152 -99 -164 q -52 -140 -73 -140 q -18 -148 -34 -140 q 14 -172 -3 -156 l 77 -237 l 38 -224 q 104 -213 77 -231 q 142 -152 130 -195 q 155 -39 155 -109 l 156 532 q 155 634 156 593 q 154 700 155 675 q 152 731 153 724 l 60 750 l 62 796 l 339 796 l 342 750 l 259 731 z "},"Ĵ":{"ha":408,"x_min":-99,"x_max":427,"o":"m 259 731 q 256 705 258 727 q 253 642 254 684 q 252 532 252 601 l 254 27 q 229 -140 254 -73 q 157 -241 203 -208 q 46 -275 110 -275 q -56 -248 -12 -275 q -99 -184 -99 -220 q -86 -152 -99 -164 q -52 -140 -73 -140 q -18 -148 -34 -140 q 14 -172 -3 -156 l 77 -237 l 38 -224 q 104 -213 77 -231 q 142 -152 130 -195 q 155 -39 155 -109 l 156 532 q 155 634 156 593 q 154 700 155 675 q 152 731 153 724 l 60 750 l 62 796 l 339 796 l 342 750 l 259 731 m 427 898 l 385 868 l 164 994 l 245 994 l 24 868 l -18 898 l 161 1044 l 248 1044 l 427 898 z "},"K":{"ha":774,"x_min":69,"x_max":783,"o":"m 491 0 l 488 46 l 574 60 q 549 92 563 75 q 518 129 536 110 l 298 374 l 241 374 l 241 420 l 317 441 l 597 731 l 514 750 l 515 796 l 766 796 l 768 747 l 693 734 l 359 412 l 365 448 l 623 165 q 660 125 643 144 q 690 91 677 106 q 716 66 704 76 l 783 47 l 783 0 l 491 0 m 73 0 l 71 46 l 152 65 q 156 124 155 76 q 157 262 157 172 l 157 533 q 157 637 157 595 q 155 703 156 680 q 152 731 155 726 l 69 750 l 72 796 l 340 796 l 343 750 l 260 731 q 257 706 259 727 q 254 643 255 685 q 254 533 254 601 l 254 262 q 255 124 254 172 q 258 65 256 76 l 345 46 l 340 0 l 73 0 z "},"Ķ":{"ha":774,"x_min":69,"x_max":783,"o":"m 491 0 l 488 46 l 574 60 q 549 92 563 75 q 518 129 536 110 l 298 374 l 241 374 l 241 420 l 317 441 l 597 731 l 514 750 l 515 796 l 766 796 l 768 747 l 693 734 l 359 412 l 365 448 l 623 165 q 660 125 643 144 q 690 91 677 106 q 716 66 704 76 l 783 47 l 783 0 l 491 0 m 73 0 l 71 46 l 152 65 q 156 124 155 76 q 157 262 157 172 l 157 533 q 157 637 157 595 q 155 703 156 680 q 152 731 155 726 l 69 750 l 72 796 l 340 796 l 343 750 l 260 731 q 257 706 259 727 q 254 643 255 685 q 254 533 254 601 l 254 262 q 255 124 254 172 q 258 65 256 76 l 345 46 l 340 0 l 73 0 m 339 -385 l 323 -353 q 388 -319 363 -340 q 412 -274 412 -297 q 405 -248 412 -258 q 387 -232 397 -239 q 368 -214 376 -225 q 361 -184 361 -203 q 376 -149 361 -163 q 414 -136 392 -136 q 454 -146 438 -136 q 477 -176 469 -157 q 486 -218 486 -194 q 467 -288 486 -255 q 415 -345 448 -320 q 339 -385 382 -370 z "},"L":{"ha":678,"x_min":69,"x_max":675,"o":"m 623 -5 q 589 -3 609 -4 q 551 -1 570 -1 q 514 0 532 0 l 73 0 l 69 46 l 152 65 q 155 94 153 72 q 157 159 156 117 q 157 262 157 201 l 157 533 q 157 637 157 597 q 156 701 157 678 q 152 730 155 724 l 69 750 l 73 796 l 372 796 l 374 747 l 262 730 q 258 705 259 726 q 256 642 256 684 q 255 533 255 601 l 255 262 q 256 140 255 194 q 258 73 256 85 q 294 71 275 72 q 335 69 313 69 l 454 69 q 506 71 484 69 q 551 75 528 72 l 620 203 l 675 191 l 623 -5 z "},"Ǉ":{"ha":1082,"x_min":69,"x_max":1015,"o":"m 623 -5 q 589 -3 609 -4 q 551 -1 570 -1 q 514 0 532 0 l 73 0 l 69 46 l 152 65 q 155 94 153 72 q 157 159 156 117 q 157 262 157 201 l 157 533 q 157 637 157 597 q 156 701 157 678 q 152 730 155 724 l 69 750 l 73 796 l 372 796 l 374 747 l 262 730 q 258 705 259 726 q 256 642 256 684 q 255 533 255 601 l 255 262 q 256 140 255 194 q 258 73 256 85 q 294 71 275 72 q 335 69 313 69 l 454 69 q 506 71 484 69 q 551 75 528 72 l 620 203 l 675 191 l 623 -5 m 933 731 q 930 705 932 727 q 927 642 928 684 q 926 532 926 601 l 928 27 q 903 -140 928 -73 q 831 -241 878 -208 q 720 -275 784 -275 q 618 -248 662 -275 q 575 -184 575 -220 q 588 -152 575 -164 q 623 -140 601 -140 q 656 -148 640 -140 q 688 -172 671 -156 l 751 -237 l 712 -224 q 778 -213 751 -231 q 817 -152 804 -195 q 829 -39 829 -109 l 830 532 q 829 634 830 593 q 828 700 829 675 q 826 731 827 724 l 734 750 l 736 796 l 1013 796 l 1016 750 l 933 731 z "},"Ĺ":{"ha":678,"x_min":69,"x_max":675,"o":"m 623 -5 q 589 -3 609 -4 q 551 -1 570 -1 q 514 0 532 0 l 73 0 l 69 46 l 152 65 q 155 94 153 72 q 157 159 156 117 q 157 262 157 201 l 157 533 q 157 637 157 597 q 156 701 157 678 q 152 730 155 724 l 69 750 l 73 796 l 372 796 l 374 747 l 262 730 q 258 705 259 726 q 256 642 256 684 q 255 533 255 601 l 255 262 q 256 140 255 194 q 258 73 256 85 q 294 71 275 72 q 335 69 313 69 l 454 69 q 506 71 484 69 q 551 75 528 72 l 620 203 l 675 191 l 623 -5 m 231 869 l 182 887 l 270 1063 l 363 1032 l 231 869 z "},"Ľ":{"ha":678,"x_min":69,"x_max":675,"o":"m 623 -5 q 589 -3 609 -4 q 551 -1 570 -1 q 514 0 532 0 l 73 0 l 69 46 l 152 65 q 155 94 153 72 q 157 159 156 117 q 157 262 157 201 l 157 533 q 157 637 157 597 q 156 701 157 678 q 152 730 155 724 l 69 750 l 73 796 l 372 796 l 374 747 l 262 730 q 258 705 259 726 q 256 642 256 684 q 255 533 255 601 l 255 262 q 256 140 255 194 q 258 73 256 85 q 294 71 275 72 q 335 69 313 69 l 454 69 q 506 71 484 69 q 551 75 528 72 l 620 203 l 675 191 l 623 -5 m 510 549 l 488 571 q 529 625 517 601 q 541 665 541 650 q 533 690 541 681 q 515 707 525 700 q 497 724 505 713 q 490 754 490 735 q 505 789 490 774 q 544 803 521 803 q 584 792 568 803 q 608 762 600 781 q 616 719 616 743 q 604 666 616 694 q 568 608 591 637 q 510 549 544 578 z "},"Ļ":{"ha":678,"x_min":69,"x_max":675,"o":"m 623 -5 q 589 -3 609 -4 q 551 -1 570 -1 q 514 0 532 0 l 73 0 l 69 46 l 152 65 q 155 94 153 72 q 157 159 156 117 q 157 262 157 201 l 157 533 q 157 637 157 597 q 156 701 157 678 q 152 730 155 724 l 69 750 l 73 796 l 372 796 l 374 747 l 262 730 q 258 705 259 726 q 256 642 256 684 q 255 533 255 601 l 255 262 q 256 140 255 194 q 258 73 256 85 q 294 71 275 72 q 335 69 313 69 l 454 69 q 506 71 484 69 q 551 75 528 72 l 620 203 l 675 191 l 623 -5 m 288 -385 l 271 -353 q 336 -319 312 -340 q 361 -274 361 -297 q 353 -248 361 -258 q 335 -232 346 -239 q 317 -214 324 -225 q 309 -184 309 -203 q 325 -149 309 -163 q 362 -136 340 -136 q 402 -146 387 -136 q 426 -176 418 -157 q 434 -218 434 -194 q 415 -288 434 -255 q 363 -345 396 -320 q 288 -385 331 -370 z "},"Ŀ":{"ha":678,"x_min":69,"x_max":675,"o":"m 623 -5 q 589 -3 609 -4 q 551 -1 570 -1 q 514 0 532 0 l 73 0 l 69 46 l 152 65 q 155 94 153 72 q 157 159 156 117 q 157 262 157 201 l 157 533 q 157 637 157 597 q 156 701 157 678 q 152 730 155 724 l 69 750 l 73 796 l 372 796 l 374 747 l 262 730 q 258 705 259 726 q 256 642 256 684 q 255 533 255 601 l 255 262 q 256 140 255 194 q 258 73 256 85 q 294 71 275 72 q 335 69 313 69 l 454 69 q 506 71 484 69 q 551 75 528 72 l 620 203 l 675 191 l 623 -5 m 456 372 q 410 389 430 372 q 389 434 389 406 q 410 479 389 461 q 456 496 430 496 q 500 479 481 496 q 519 434 519 461 q 500 389 519 406 q 456 372 481 372 z "},"Ḷ":{"ha":678,"x_min":69,"x_max":675,"o":"m 623 -5 q 589 -3 609 -4 q 551 -1 570 -1 q 514 0 532 0 l 73 0 l 69 46 l 152 65 q 155 94 153 72 q 157 159 156 117 q 157 262 157 201 l 157 533 q 157 637 157 597 q 156 701 157 678 q 152 730 155 724 l 69 750 l 73 796 l 372 796 l 374 747 l 262 730 q 258 705 259 726 q 256 642 256 684 q 255 533 255 601 l 255 262 q 256 140 255 194 q 258 73 256 85 q 294 71 275 72 q 335 69 313 69 l 454 69 q 506 71 484 69 q 551 75 528 72 l 620 203 l 675 191 l 623 -5 m 373 -266 q 328 -249 347 -266 q 308 -205 308 -232 q 328 -160 308 -178 q 373 -142 347 -142 q 417 -160 399 -142 q 435 -205 435 -178 q 417 -249 435 -232 q 373 -266 399 -266 z "},"ǈ":{"ha":1010,"x_min":69,"x_max":930,"o":"m 623 -5 q 589 -3 609 -4 q 551 -1 570 -1 q 514 0 532 0 l 73 0 l 69 46 l 152 65 q 155 94 153 72 q 157 159 156 117 q 157 262 157 201 l 157 533 q 157 637 157 597 q 156 701 157 678 q 152 730 155 724 l 69 750 l 73 796 l 372 796 l 374 747 l 262 730 q 258 705 259 726 q 256 642 256 684 q 255 533 255 601 l 255 262 q 256 140 255 194 q 258 73 256 85 q 294 71 275 72 q 335 69 313 69 l 454 69 q 506 71 484 69 q 551 75 528 72 l 620 203 l 675 191 l 623 -5 z "},"Ḻ":{"ha":678,"x_min":69,"x_max":675,"o":"m 623 -5 q 589 -3 609 -4 q 551 -1 570 -1 q 514 0 532 0 l 73 0 l 69 46 l 152 65 q 155 94 153 72 q 157 159 156 117 q 157 262 157 201 l 157 533 q 157 637 157 597 q 156 701 157 678 q 152 730 155 724 l 69 750 l 73 796 l 372 796 l 374 747 l 262 730 q 258 705 259 726 q 256 642 256 684 q 255 533 255 601 l 255 262 q 256 140 255 194 q 258 73 256 85 q 294 71 275 72 q 335 69 313 69 l 454 69 q 506 71 484 69 q 551 75 528 72 l 620 203 l 675 191 l 623 -5 m 182 -171 l 562 -171 l 562 -239 l 182 -239 l 182 -171 z "},"Ł":{"ha":678,"x_min":38,"x_max":675,"o":"m 623 -5 q 589 -3 609 -4 q 551 -1 570 -1 q 514 0 532 0 l 73 0 l 69 46 l 152 65 q 155 94 153 72 q 157 159 156 117 q 157 262 157 201 l 157 533 q 157 637 157 597 q 156 701 157 678 q 152 730 155 724 l 69 750 l 73 796 l 372 796 l 374 747 l 262 730 q 258 705 259 726 q 256 642 256 684 q 255 533 255 601 l 255 262 q 256 140 255 194 q 258 73 256 85 q 294 71 275 72 q 335 69 313 69 l 454 69 q 506 71 484 69 q 551 75 528 72 l 620 203 l 675 191 l 623 -5 m 77 247 l 39 301 l 438 575 l 475 521 l 77 247 z "},"M":{"ha":1139,"x_min":60,"x_max":1067,"o":"m 80 796 l 300 796 l 585 132 l 566 132 l 852 796 l 1054 796 l 1057 750 l 974 732 q 973 656 972 711 q 975 545 974 601 l 979 296 q 981 178 981 224 q 983 106 982 133 q 985 64 985 80 l 1067 46 l 1065 0 l 800 0 l 796 46 l 878 64 q 879 104 879 84 q 879 163 879 125 q 878 269 879 201 l 875 757 l 902 757 l 572 -4 l 536 -4 l 208 760 l 229 760 l 229 300 q 230 131 229 183 q 232 65 231 79 l 323 46 l 320 0 l 62 0 l 60 46 l 151 65 q 153 101 152 76 q 155 169 153 126 q 156 275 156 212 l 160 547 q 161 652 161 600 q 159 731 160 705 l 77 750 l 80 796 z "},"Ṃ":{"ha":1139,"x_min":60,"x_max":1067,"o":"m 80 796 l 300 796 l 585 132 l 566 132 l 852 796 l 1054 796 l 1057 750 l 974 732 q 973 656 972 711 q 975 545 974 601 l 979 296 q 981 178 981 224 q 983 106 982 133 q 985 64 985 80 l 1067 46 l 1065 0 l 800 0 l 796 46 l 878 64 q 879 104 879 84 q 879 163 879 125 q 878 269 879 201 l 875 757 l 902 757 l 572 -4 l 536 -4 l 208 760 l 229 760 l 229 300 q 230 131 229 183 q 232 65 231 79 l 323 46 l 320 0 l 62 0 l 60 46 l 151 65 q 153 101 152 76 q 155 169 153 126 q 156 275 156 212 l 160 547 q 161 652 161 600 q 159 731 160 705 l 77 750 l 80 796 m 562 -266 q 516 -249 536 -266 q 496 -205 496 -232 q 516 -160 496 -178 q 562 -142 536 -142 q 606 -160 587 -142 q 624 -205 624 -178 q 606 -249 624 -232 q 562 -266 587 -266 z "},"N":{"ha":907,"x_min":69,"x_max":840,"o":"m 681 176 l 681 509 q 680 640 681 593 q 677 707 678 686 q 674 731 675 728 l 583 750 l 586 796 l 836 796 l 840 750 l 757 731 q 755 707 757 728 q 751 639 753 686 q 750 509 750 591 l 750 168 q 750 86 750 130 q 751 -5 750 42 l 697 -5 l 210 678 l 228 678 l 228 288 q 230 158 228 205 q 234 90 232 111 q 236 65 236 69 l 327 46 l 324 0 l 72 0 l 69 46 l 151 65 q 153 89 152 69 q 156 156 155 109 q 157 288 157 203 l 157 534 q 157 642 157 602 q 155 701 156 681 q 151 731 153 722 l 69 750 l 72 796 l 250 796 l 697 176 l 681 176 z "},"Ǌ":{"ha":1309,"x_min":69,"x_max":1242,"o":"m 681 176 l 681 509 q 680 640 681 593 q 677 707 678 686 q 674 731 675 728 l 583 750 l 586 796 l 836 796 l 840 750 l 757 731 q 755 707 757 728 q 751 639 753 686 q 750 509 750 591 l 750 168 q 750 86 750 130 q 751 -5 750 42 l 697 -5 l 210 678 l 228 678 l 228 288 q 230 158 228 205 q 234 90 232 111 q 236 65 236 69 l 327 46 l 324 0 l 72 0 l 69 46 l 151 65 q 153 89 152 69 q 156 156 155 109 q 157 288 157 203 l 157 534 q 157 642 157 602 q 155 701 156 681 q 151 731 153 722 l 69 750 l 72 796 l 250 796 l 697 176 l 681 176 m 1160 731 q 1156 705 1158 727 q 1154 642 1154 684 q 1153 532 1153 601 l 1154 27 q 1129 -140 1154 -73 q 1057 -241 1104 -208 q 947 -275 1010 -275 q 845 -248 888 -275 q 802 -184 802 -220 q 814 -152 802 -164 q 849 -140 827 -140 q 882 -148 867 -140 q 914 -172 898 -156 l 978 -237 l 939 -224 q 1004 -213 978 -231 q 1043 -152 1031 -195 q 1055 -39 1055 -109 l 1057 532 q 1056 634 1057 593 q 1055 700 1055 675 q 1053 731 1054 724 l 960 750 l 963 796 l 1240 796 l 1242 750 l 1160 731 z "},"Ń":{"ha":907,"x_min":69,"x_max":840,"o":"m 681 176 l 681 509 q 680 640 681 593 q 677 707 678 686 q 674 731 675 728 l 583 750 l 586 796 l 836 796 l 840 750 l 757 731 q 755 707 757 728 q 751 639 753 686 q 750 509 750 591 l 750 168 q 750 86 750 130 q 751 -5 750 42 l 697 -5 l 210 678 l 228 678 l 228 288 q 230 158 228 205 q 234 90 232 111 q 236 65 236 69 l 327 46 l 324 0 l 72 0 l 69 46 l 151 65 q 153 89 152 69 q 156 156 155 109 q 157 288 157 203 l 157 534 q 157 642 157 602 q 155 701 156 681 q 151 731 153 722 l 69 750 l 72 796 l 250 796 l 697 176 l 681 176 m 479 869 l 430 887 l 518 1063 l 612 1032 l 479 869 z "},"Ň":{"ha":907,"x_min":69,"x_max":840,"o":"m 681 176 l 681 509 q 680 640 681 593 q 677 707 678 686 q 674 731 675 728 l 583 750 l 586 796 l 836 796 l 840 750 l 757 731 q 755 707 757 728 q 751 639 753 686 q 750 509 750 591 l 750 168 q 750 86 750 130 q 751 -5 750 42 l 697 -5 l 210 678 l 228 678 l 228 288 q 230 158 228 205 q 234 90 232 111 q 236 65 236 69 l 327 46 l 324 0 l 72 0 l 69 46 l 151 65 q 153 89 152 69 q 156 156 155 109 q 157 288 157 203 l 157 534 q 157 642 157 602 q 155 701 156 681 q 151 731 153 722 l 69 750 l 72 796 l 250 796 l 697 176 l 681 176 m 232 1025 l 274 1055 l 495 929 l 414 929 l 635 1055 l 677 1025 l 498 878 l 411 878 l 232 1025 z "},"Ņ":{"ha":907,"x_min":69,"x_max":840,"o":"m 681 176 l 681 509 q 680 640 681 593 q 677 707 678 686 q 674 731 675 728 l 583 750 l 586 796 l 836 796 l 840 750 l 757 731 q 755 707 757 728 q 751 639 753 686 q 750 509 750 591 l 750 168 q 750 86 750 130 q 751 -5 750 42 l 697 -5 l 210 678 l 228 678 l 228 288 q 230 158 228 205 q 234 90 232 111 q 236 65 236 69 l 327 46 l 324 0 l 72 0 l 69 46 l 151 65 q 153 89 152 69 q 156 156 155 109 q 157 288 157 203 l 157 534 q 157 642 157 602 q 155 701 156 681 q 151 731 153 722 l 69 750 l 72 796 l 250 796 l 697 176 l 681 176 m 370 -385 l 354 -353 q 419 -319 395 -340 q 444 -274 444 -297 q 436 -248 444 -258 q 418 -232 429 -239 q 399 -214 407 -225 q 392 -184 392 -203 q 408 -149 392 -163 q 445 -136 423 -136 q 485 -146 469 -136 q 509 -176 500 -157 q 517 -218 517 -194 q 498 -288 517 -255 q 446 -345 479 -320 q 370 -385 414 -370 z "},"Ṅ":{"ha":907,"x_min":69,"x_max":840,"o":"m 681 176 l 681 509 q 680 640 681 593 q 677 707 678 686 q 674 731 675 728 l 583 750 l 586 796 l 836 796 l 840 750 l 757 731 q 755 707 757 728 q 751 639 753 686 q 750 509 750 591 l 750 168 q 750 86 750 130 q 751 -5 750 42 l 697 -5 l 210 678 l 228 678 l 228 288 q 230 158 228 205 q 234 90 232 111 q 236 65 236 69 l 327 46 l 324 0 l 72 0 l 69 46 l 151 65 q 153 89 152 69 q 156 156 155 109 q 157 288 157 203 l 157 534 q 157 642 157 602 q 155 701 156 681 q 151 731 153 722 l 69 750 l 72 796 l 250 796 l 697 176 l 681 176 m 456 901 q 410 918 430 901 q 391 963 391 936 q 410 1007 391 989 q 456 1025 430 1025 q 500 1007 481 1025 q 518 963 518 989 q 500 918 518 936 q 456 901 481 901 z "},"Ṇ":{"ha":907,"x_min":69,"x_max":840,"o":"m 681 176 l 681 509 q 680 640 681 593 q 677 707 678 686 q 674 731 675 728 l 583 750 l 586 796 l 836 796 l 840 750 l 757 731 q 755 707 757 728 q 751 639 753 686 q 750 509 750 591 l 750 168 q 750 86 750 130 q 751 -5 750 42 l 697 -5 l 210 678 l 228 678 l 228 288 q 230 158 228 205 q 234 90 232 111 q 236 65 236 69 l 327 46 l 324 0 l 72 0 l 69 46 l 151 65 q 153 89 152 69 q 156 156 155 109 q 157 288 157 203 l 157 534 q 157 642 157 602 q 155 701 156 681 q 151 731 153 722 l 69 750 l 72 796 l 250 796 l 697 176 l 681 176 m 456 -266 q 410 -249 430 -266 q 391 -205 391 -232 q 410 -160 391 -178 q 456 -142 430 -142 q 500 -160 481 -142 q 518 -205 518 -178 q 500 -249 518 -232 q 456 -266 481 -266 z "},"Ŋ":{"ha":907,"x_min":69,"x_max":838,"o":"m 540 -275 q 467 -261 500 -275 q 414 -224 434 -247 q 395 -179 395 -202 q 409 -146 395 -159 q 446 -134 423 -134 q 479 -142 463 -134 q 515 -168 496 -149 l 582 -235 l 526 -220 q 605 -201 571 -227 q 659 -123 639 -175 q 680 -4 680 -72 l 680 106 l 697 -5 l 210 678 l 228 678 l 228 288 q 230 159 228 206 q 234 90 232 111 q 236 65 236 69 l 327 46 l 324 0 l 72 0 l 69 46 l 151 65 q 153 90 152 69 q 156 157 155 110 q 157 288 157 205 l 157 534 q 157 642 157 602 q 155 701 156 681 q 151 731 153 722 l 69 750 l 72 796 l 250 796 l 697 176 l 681 176 l 681 509 q 680 640 681 593 q 677 707 678 686 q 674 731 675 728 l 583 750 l 586 796 l 836 796 l 838 750 l 757 731 q 755 707 757 728 q 751 639 753 686 q 750 509 750 591 l 750 11 q 693 -197 750 -118 q 540 -275 636 -275 z "},"ǋ":{"ha":1240,"x_min":69,"x_max":1158,"o":"m 681 176 l 681 509 q 680 640 681 593 q 677 707 678 686 q 674 731 675 728 l 583 750 l 586 796 l 836 796 l 840 750 l 757 731 q 755 707 757 728 q 751 639 753 686 q 750 509 750 591 l 750 168 q 750 86 750 130 q 751 -5 750 42 l 697 -5 l 210 678 l 228 678 l 228 288 q 230 158 228 205 q 234 90 232 111 q 236 65 236 69 l 327 46 l 324 0 l 72 0 l 69 46 l 151 65 q 153 89 152 69 q 156 156 155 109 q 157 288 157 203 l 157 534 q 157 642 157 602 q 155 701 156 681 q 151 731 153 722 l 69 750 l 72 796 l 250 796 l 697 176 l 681 176 z "},"Ṉ":{"ha":907,"x_min":69,"x_max":840,"o":"m 681 176 l 681 509 q 680 640 681 593 q 677 707 678 686 q 674 731 675 728 l 583 750 l 586 796 l 836 796 l 840 750 l 757 731 q 755 707 757 728 q 751 639 753 686 q 750 509 750 591 l 750 168 q 750 86 750 130 q 751 -5 750 42 l 697 -5 l 210 678 l 228 678 l 228 288 q 230 158 228 205 q 234 90 232 111 q 236 65 236 69 l 327 46 l 324 0 l 72 0 l 69 46 l 151 65 q 153 89 152 69 q 156 156 155 109 q 157 288 157 203 l 157 534 q 157 642 157 602 q 155 701 156 681 q 151 731 153 722 l 69 750 l 72 796 l 250 796 l 697 176 l 681 176 m 264 -171 l 644 -171 l 644 -239 l 264 -239 l 264 -171 z "},"Ñ":{"ha":907,"x_min":69,"x_max":840,"o":"m 681 176 l 681 509 q 680 640 681 593 q 677 707 678 686 q 674 731 675 728 l 583 750 l 586 796 l 836 796 l 840 750 l 757 731 q 755 707 757 728 q 751 639 753 686 q 750 509 750 591 l 750 168 q 750 86 750 130 q 751 -5 750 42 l 697 -5 l 210 678 l 228 678 l 228 288 q 230 158 228 205 q 234 90 232 111 q 236 65 236 69 l 327 46 l 324 0 l 72 0 l 69 46 l 151 65 q 153 89 152 69 q 156 156 155 109 q 157 288 157 203 l 157 534 q 157 642 157 602 q 155 701 156 681 q 151 731 153 722 l 69 750 l 72 796 l 250 796 l 697 176 l 681 176 m 681 1029 l 720 1009 q 656 916 697 951 q 562 882 614 882 q 480 901 521 882 q 401 941 439 921 q 328 960 363 960 q 270 942 292 960 q 228 892 248 924 l 189 913 q 254 1005 212 971 q 347 1039 296 1039 q 429 1020 389 1039 q 508 981 469 1001 q 583 962 547 962 q 639 981 617 962 q 681 1029 661 1000 z "},"O":{"ha":925,"x_min":72,"x_max":852,"o":"m 469 -12 q 263 39 353 -12 q 123 183 174 91 q 72 396 72 275 q 124 608 72 514 q 267 755 176 701 q 473 808 358 808 q 671 757 586 808 q 804 614 755 705 q 852 403 852 524 q 823 241 852 316 q 742 109 793 165 q 621 20 690 52 q 469 -12 551 -12 m 483 53 q 616 92 560 53 q 705 203 673 132 q 736 370 736 275 q 701 567 736 483 q 603 699 666 651 q 457 747 540 747 q 264 659 335 747 q 193 418 193 570 q 230 229 193 312 q 334 100 267 146 q 483 53 400 53 z "},"Ó":{"ha":925,"x_min":72,"x_max":852,"o":"m 469 -12 q 263 39 353 -12 q 123 183 174 91 q 72 396 72 275 q 124 608 72 514 q 267 755 176 701 q 473 808 358 808 q 671 757 586 808 q 804 614 755 705 q 852 403 852 524 q 823 241 852 316 q 742 109 793 165 q 621 20 690 52 q 469 -12 551 -12 m 483 53 q 616 92 560 53 q 705 203 673 132 q 736 370 736 275 q 701 567 736 483 q 603 699 666 651 q 457 747 540 747 q 264 659 335 747 q 193 418 193 570 q 230 229 193 312 q 334 100 267 146 q 483 53 400 53 m 486 869 l 437 887 l 525 1063 l 618 1032 l 486 869 z "},"Ŏ":{"ha":925,"x_min":72,"x_max":852,"o":"m 469 -12 q 263 39 353 -12 q 123 183 174 91 q 72 396 72 275 q 124 608 72 514 q 267 755 176 701 q 473 808 358 808 q 671 757 586 808 q 804 614 755 705 q 852 403 852 524 q 823 241 852 316 q 742 109 793 165 q 621 20 690 52 q 469 -12 551 -12 m 483 53 q 616 92 560 53 q 705 203 673 132 q 736 370 736 275 q 701 567 736 483 q 603 699 666 651 q 457 747 540 747 q 264 659 335 747 q 193 418 193 570 q 230 229 193 312 q 334 100 267 146 q 483 53 400 53 m 633 1055 l 678 1039 q 607 918 665 960 q 463 876 549 876 q 317 918 377 876 q 244 1039 258 960 l 294 1055 q 351 979 307 1008 q 463 951 396 951 q 578 979 533 951 q 633 1055 623 1008 z "},"Ô":{"ha":925,"x_min":72,"x_max":852,"o":"m 469 -12 q 263 39 353 -12 q 123 183 174 91 q 72 396 72 275 q 124 608 72 514 q 267 755 176 701 q 473 808 358 808 q 671 757 586 808 q 804 614 755 705 q 852 403 852 524 q 823 241 852 316 q 742 109 793 165 q 621 20 690 52 q 469 -12 551 -12 m 483 53 q 616 92 560 53 q 705 203 673 132 q 736 370 736 275 q 701 567 736 483 q 603 699 666 651 q 457 747 540 747 q 264 659 335 747 q 193 418 193 570 q 230 229 193 312 q 334 100 267 146 q 483 53 400 53 m 684 898 l 642 868 l 420 994 l 502 994 l 281 868 l 239 898 l 418 1044 l 505 1044 l 684 898 z "},"Ố":{"ha":925,"x_min":72,"x_max":852,"o":"m 469 -12 q 263 39 353 -12 q 123 183 174 91 q 72 396 72 275 q 124 608 72 514 q 267 755 176 701 q 473 808 358 808 q 671 757 586 808 q 804 614 755 705 q 852 403 852 524 q 823 241 852 316 q 742 109 793 165 q 621 20 690 52 q 469 -12 551 -12 m 483 53 q 616 92 560 53 q 705 203 673 132 q 736 370 736 275 q 701 567 736 483 q 603 699 666 651 q 457 747 540 747 q 264 659 335 747 q 193 418 193 570 q 230 229 193 312 q 334 100 267 146 q 483 53 400 53 m 613 1016 l 567 1032 l 662 1225 l 757 1194 l 613 1016 m 684 898 l 642 868 l 420 994 l 502 994 l 281 868 l 239 898 l 418 1044 l 505 1044 l 684 898 z "},"Ộ":{"ha":925,"x_min":72,"x_max":852,"o":"m 469 -12 q 263 39 353 -12 q 123 183 174 91 q 72 396 72 275 q 124 608 72 514 q 267 755 176 701 q 473 808 358 808 q 671 757 586 808 q 804 614 755 705 q 852 403 852 524 q 823 241 852 316 q 742 109 793 165 q 621 20 690 52 q 469 -12 551 -12 m 483 53 q 616 92 560 53 q 705 203 673 132 q 736 370 736 275 q 701 567 736 483 q 603 699 666 651 q 457 747 540 747 q 264 659 335 747 q 193 418 193 570 q 230 229 193 312 q 334 100 267 146 q 483 53 400 53 m 463 -266 q 417 -249 437 -266 q 397 -205 397 -232 q 417 -160 397 -178 q 463 -142 437 -142 q 507 -160 488 -142 q 525 -205 525 -178 q 507 -249 525 -232 q 463 -266 488 -266 m 684 898 l 642 868 l 420 994 l 502 994 l 281 868 l 239 898 l 418 1044 l 505 1044 l 684 898 z "},"Ồ":{"ha":925,"x_min":72,"x_max":852,"o":"m 469 -12 q 263 39 353 -12 q 123 183 174 91 q 72 396 72 275 q 124 608 72 514 q 267 755 176 701 q 473 808 358 808 q 671 757 586 808 q 804 614 755 705 q 852 403 852 524 q 823 241 852 316 q 742 109 793 165 q 621 20 690 52 q 469 -12 551 -12 m 483 53 q 616 92 560 53 q 705 203 673 132 q 736 370 736 275 q 701 567 736 483 q 603 699 666 651 q 457 747 540 747 q 264 659 335 747 q 193 418 193 570 q 230 229 193 312 q 334 100 267 146 q 483 53 400 53 m 620 1016 l 476 1194 l 570 1225 l 667 1032 l 620 1016 m 684 898 l 642 868 l 420 994 l 502 994 l 281 868 l 239 898 l 418 1044 l 505 1044 l 684 898 z "},"Ổ":{"ha":925,"x_min":72,"x_max":852,"o":"m 469 -12 q 263 39 353 -12 q 123 183 174 91 q 72 396 72 275 q 124 608 72 514 q 267 755 176 701 q 473 808 358 808 q 671 757 586 808 q 804 614 755 705 q 852 403 852 524 q 823 241 852 316 q 742 109 793 165 q 621 20 690 52 q 469 -12 551 -12 m 483 53 q 616 92 560 53 q 705 203 673 132 q 736 370 736 275 q 701 567 736 483 q 603 699 666 651 q 457 747 540 747 q 264 659 335 747 q 193 418 193 570 q 230 229 193 312 q 334 100 267 146 q 483 53 400 53 m 684 898 l 642 868 l 420 994 l 502 994 l 281 868 l 239 898 l 418 1044 l 505 1044 l 684 898 m 613 1221 q 701 1199 667 1221 q 735 1138 735 1177 q 719 1094 735 1108 q 682 1069 703 1080 q 646 1044 662 1058 q 629 1001 629 1029 l 590 1001 l 590 1020 q 605 1075 590 1055 q 635 1109 620 1095 q 651 1142 651 1123 q 627 1185 651 1179 q 574 1184 604 1191 l 620 1192 l 575 1150 q 549 1128 557 1134 q 526 1122 541 1122 q 501 1132 510 1122 q 492 1156 492 1142 q 526 1200 492 1180 q 613 1221 559 1221 z "},"Ỗ":{"ha":925,"x_min":72,"x_max":852,"o":"m 469 -12 q 263 39 353 -12 q 123 183 174 91 q 72 396 72 275 q 124 608 72 514 q 267 755 176 701 q 473 808 358 808 q 671 757 586 808 q 804 614 755 705 q 852 403 852 524 q 823 241 852 316 q 742 109 793 165 q 621 20 690 52 q 469 -12 551 -12 m 483 53 q 616 92 560 53 q 705 203 673 132 q 736 370 736 275 q 701 567 736 483 q 603 699 666 651 q 457 747 540 747 q 264 659 335 747 q 193 418 193 570 q 230 229 193 312 q 334 100 267 146 q 483 53 400 53 m 281 868 l 239 898 l 418 1044 l 505 1044 l 684 898 l 642 868 l 420 994 l 502 994 l 281 868 m 553 1080 q 486 1095 519 1080 q 420 1126 452 1111 q 358 1142 388 1142 q 311 1126 328 1142 q 277 1080 293 1109 l 235 1101 q 288 1191 254 1157 q 366 1225 323 1225 q 434 1209 400 1225 q 500 1178 468 1194 q 562 1162 532 1162 q 608 1179 590 1162 q 642 1225 625 1196 l 685 1203 q 631 1113 665 1146 q 553 1080 597 1080 z "},"Ȍ":{"ha":925,"x_min":72,"x_max":852,"o":"m 469 -12 q 263 39 353 -12 q 123 183 174 91 q 72 396 72 275 q 124 608 72 514 q 267 755 176 701 q 473 808 358 808 q 671 757 586 808 q 804 614 755 705 q 852 403 852 524 q 823 241 852 316 q 742 109 793 165 q 621 20 690 52 q 469 -12 551 -12 m 483 53 q 616 92 560 53 q 705 203 673 132 q 736 370 736 275 q 701 567 736 483 q 603 699 666 651 q 457 747 540 747 q 264 659 335 747 q 193 418 193 570 q 230 229 193 312 q 334 100 267 146 q 483 53 400 53 m 521 868 l 410 1029 l 498 1048 l 559 883 l 521 868 m 363 868 l 251 1029 l 339 1048 l 401 883 l 363 868 z "},"Ö":{"ha":925,"x_min":72,"x_max":852,"o":"m 469 -12 q 263 39 353 -12 q 123 183 174 91 q 72 396 72 275 q 124 608 72 514 q 267 755 176 701 q 473 808 358 808 q 671 757 586 808 q 804 614 755 705 q 852 403 852 524 q 823 241 852 316 q 742 109 793 165 q 621 20 690 52 q 469 -12 551 -12 m 483 53 q 616 92 560 53 q 705 203 673 132 q 736 370 736 275 q 701 567 736 483 q 603 699 666 651 q 457 747 540 747 q 264 659 335 747 q 193 418 193 570 q 230 229 193 312 q 334 100 267 146 q 483 53 400 53 m 332 902 q 288 919 307 902 q 270 963 270 936 q 288 1007 270 990 q 332 1024 307 1024 q 376 1007 358 1024 q 393 963 393 990 q 376 919 393 936 q 332 902 358 902 m 593 902 q 548 919 567 902 q 529 963 529 936 q 548 1007 529 990 q 593 1024 567 1024 q 635 1007 618 1024 q 652 963 652 990 q 635 919 652 936 q 593 902 618 902 z "},"Ȫ":{"ha":925,"x_min":72,"x_max":852,"o":"m 469 -12 q 263 39 353 -12 q 123 183 174 91 q 72 396 72 275 q 124 608 72 514 q 267 755 176 701 q 473 808 358 808 q 671 757 586 808 q 804 614 755 705 q 852 403 852 524 q 823 241 852 316 q 742 109 793 165 q 621 20 690 52 q 469 -12 551 -12 m 483 53 q 616 92 560 53 q 705 203 673 132 q 736 370 736 275 q 701 567 736 483 q 603 699 666 651 q 457 747 540 747 q 264 659 335 747 q 193 418 193 570 q 230 229 193 312 q 334 100 267 146 q 483 53 400 53 m 247 1191 l 675 1191 l 675 1122 l 247 1122 l 247 1191 m 332 902 q 288 919 307 902 q 270 963 270 936 q 288 1007 270 990 q 332 1024 307 1024 q 376 1007 358 1024 q 393 963 393 990 q 376 919 393 936 q 332 902 358 902 m 593 902 q 548 919 567 902 q 529 963 529 936 q 548 1007 529 990 q 593 1024 567 1024 q 635 1007 618 1024 q 652 963 652 990 q 635 919 652 936 q 593 902 618 902 z "},"Ȱ":{"ha":925,"x_min":72,"x_max":852,"o":"m 469 -12 q 263 39 353 -12 q 123 183 174 91 q 72 396 72 275 q 124 608 72 514 q 267 755 176 701 q 473 808 358 808 q 671 757 586 808 q 804 614 755 705 q 852 403 852 524 q 823 241 852 316 q 742 109 793 165 q 621 20 690 52 q 469 -12 551 -12 m 483 53 q 616 92 560 53 q 705 203 673 132 q 736 370 736 275 q 701 567 736 483 q 603 699 666 651 q 457 747 540 747 q 264 659 335 747 q 193 418 193 570 q 230 229 193 312 q 334 100 267 146 q 483 53 400 53 m 247 1122 l 247 1191 l 675 1191 l 675 1122 l 247 1122 m 463 902 q 418 919 437 902 q 399 963 399 936 q 418 1007 399 990 q 463 1024 437 1024 q 506 1007 488 1024 q 524 963 524 990 q 506 919 524 936 q 463 902 488 902 z "},"Ọ":{"ha":925,"x_min":72,"x_max":852,"o":"m 469 -12 q 263 39 353 -12 q 123 183 174 91 q 72 396 72 275 q 124 608 72 514 q 267 755 176 701 q 473 808 358 808 q 671 757 586 808 q 804 614 755 705 q 852 403 852 524 q 823 241 852 316 q 742 109 793 165 q 621 20 690 52 q 469 -12 551 -12 m 483 53 q 616 92 560 53 q 705 203 673 132 q 736 370 736 275 q 701 567 736 483 q 603 699 666 651 q 457 747 540 747 q 264 659 335 747 q 193 418 193 570 q 230 229 193 312 q 334 100 267 146 q 483 53 400 53 m 463 -266 q 417 -249 437 -266 q 397 -205 397 -232 q 417 -160 397 -178 q 463 -142 437 -142 q 507 -160 488 -142 q 525 -205 525 -178 q 507 -249 525 -232 q 463 -266 488 -266 z "},"Ò":{"ha":925,"x_min":72,"x_max":852,"o":"m 469 -12 q 263 39 353 -12 q 123 183 174 91 q 72 396 72 275 q 124 608 72 514 q 267 755 176 701 q 473 808 358 808 q 671 757 586 808 q 804 614 755 705 q 852 403 852 524 q 823 241 852 316 q 742 109 793 165 q 621 20 690 52 q 469 -12 551 -12 m 483 53 q 616 92 560 53 q 705 203 673 132 q 736 370 736 275 q 701 567 736 483 q 603 699 666 651 q 457 747 540 747 q 264 659 335 747 q 193 418 193 570 q 230 229 193 312 q 334 100 267 146 q 483 53 400 53 m 437 869 l 304 1032 l 397 1063 l 486 887 l 437 869 z "},"Ỏ":{"ha":925,"x_min":72,"x_max":852,"o":"m 469 -12 q 263 39 353 -12 q 123 183 174 91 q 72 396 72 275 q 124 608 72 514 q 267 755 176 701 q 473 808 358 808 q 671 757 586 808 q 804 614 755 705 q 852 403 852 524 q 823 241 852 316 q 742 109 793 165 q 621 20 690 52 q 469 -12 551 -12 m 483 53 q 616 92 560 53 q 705 203 673 132 q 736 370 736 275 q 701 567 736 483 q 603 699 666 651 q 457 747 540 747 q 264 659 335 747 q 193 418 193 570 q 230 229 193 312 q 334 100 267 146 q 483 53 400 53 m 467 1122 q 553 1099 519 1122 q 587 1038 587 1077 q 571 987 587 1004 q 534 958 555 970 q 498 930 514 947 q 481 883 481 914 l 442 883 l 442 906 q 458 967 442 944 q 489 1007 473 990 q 505 1042 505 1024 q 480 1084 505 1078 q 426 1084 456 1090 l 472 1093 l 427 1050 q 401 1029 410 1035 q 377 1023 393 1023 q 354 1032 363 1023 q 345 1055 345 1042 q 378 1101 345 1081 q 467 1122 411 1122 z "},"Ơ":{"ha":925,"x_min":72,"x_max":891,"o":"m 891 883 q 865 806 891 848 q 784 739 838 765 q 646 724 730 713 l 674 755 q 804 612 757 704 q 852 403 852 521 q 823 241 852 316 q 742 109 793 165 q 621 20 690 52 q 469 -12 551 -12 q 263 39 353 -12 q 123 183 174 91 q 72 396 72 275 q 125 608 72 514 q 269 755 178 701 q 476 808 361 808 q 588 797 540 808 q 677 785 636 785 q 747 808 722 785 q 774 894 773 830 l 777 960 q 836 961 810 967 q 876 936 861 955 q 891 883 891 917 m 483 53 q 616 93 560 53 q 705 204 673 133 q 736 370 736 275 q 701 567 736 483 q 603 699 666 651 q 457 747 540 747 q 264 659 335 747 q 193 418 193 570 q 230 229 193 312 q 334 100 267 146 q 483 53 400 53 z "},"Ớ":{"ha":925,"x_min":72,"x_max":891,"o":"m 891 883 q 865 806 891 848 q 784 739 838 765 q 646 724 730 713 l 674 755 q 804 612 757 704 q 852 403 852 521 q 823 241 852 316 q 742 109 793 165 q 621 20 690 52 q 469 -12 551 -12 q 263 39 353 -12 q 123 183 174 91 q 72 396 72 275 q 125 608 72 514 q 269 755 178 701 q 476 808 361 808 q 588 797 540 808 q 677 785 636 785 q 747 808 722 785 q 774 894 773 830 l 777 960 q 836 961 810 967 q 876 936 861 955 q 891 883 891 917 m 483 53 q 616 93 560 53 q 705 204 673 133 q 736 370 736 275 q 701 567 736 483 q 603 699 666 651 q 457 747 540 747 q 264 659 335 747 q 193 418 193 570 q 230 229 193 312 q 334 100 267 146 q 483 53 400 53 m 486 869 l 437 887 l 525 1063 l 618 1032 l 486 869 z "},"Ợ":{"ha":925,"x_min":72,"x_max":891,"o":"m 891 883 q 865 806 891 848 q 784 739 838 765 q 646 724 730 713 l 674 755 q 804 612 757 704 q 852 403 852 521 q 823 241 852 316 q 742 109 793 165 q 621 20 690 52 q 469 -12 551 -12 q 263 39 353 -12 q 123 183 174 91 q 72 396 72 275 q 125 608 72 514 q 269 755 178 701 q 476 808 361 808 q 588 797 540 808 q 677 785 636 785 q 747 808 722 785 q 774 894 773 830 l 777 960 q 836 961 810 967 q 876 936 861 955 q 891 883 891 917 m 483 53 q 616 93 560 53 q 705 204 673 133 q 736 370 736 275 q 701 567 736 483 q 603 699 666 651 q 457 747 540 747 q 264 659 335 747 q 193 418 193 570 q 230 229 193 312 q 334 100 267 146 q 483 53 400 53 m 463 -266 q 417 -249 437 -266 q 397 -205 397 -232 q 417 -160 397 -178 q 463 -142 437 -142 q 507 -160 488 -142 q 525 -205 525 -178 q 507 -249 525 -232 q 463 -266 488 -266 z "},"Ờ":{"ha":925,"x_min":72,"x_max":891,"o":"m 891 883 q 865 806 891 848 q 784 739 838 765 q 646 724 730 713 l 674 755 q 804 612 757 704 q 852 403 852 521 q 823 241 852 316 q 742 109 793 165 q 621 20 690 52 q 469 -12 551 -12 q 263 39 353 -12 q 123 183 174 91 q 72 396 72 275 q 125 608 72 514 q 269 755 178 701 q 476 808 361 808 q 588 797 540 808 q 677 785 636 785 q 747 808 722 785 q 774 894 773 830 l 777 960 q 836 961 810 967 q 876 936 861 955 q 891 883 891 917 m 483 53 q 616 93 560 53 q 705 204 673 133 q 736 370 736 275 q 701 567 736 483 q 603 699 666 651 q 457 747 540 747 q 264 659 335 747 q 193 418 193 570 q 230 229 193 312 q 334 100 267 146 q 483 53 400 53 m 437 869 l 304 1032 l 397 1063 l 486 887 l 437 869 z "},"Ở":{"ha":925,"x_min":72,"x_max":891,"o":"m 891 883 q 865 806 891 848 q 784 739 838 765 q 646 724 730 713 l 674 755 q 804 612 757 704 q 852 403 852 521 q 823 241 852 316 q 742 109 793 165 q 621 20 690 52 q 469 -12 551 -12 q 263 39 353 -12 q 123 183 174 91 q 72 396 72 275 q 125 608 72 514 q 269 755 178 701 q 476 808 361 808 q 588 797 540 808 q 677 785 636 785 q 747 808 722 785 q 774 894 773 830 l 777 960 q 836 961 810 967 q 876 936 861 955 q 891 883 891 917 m 483 53 q 616 93 560 53 q 705 204 673 133 q 736 370 736 275 q 701 567 736 483 q 603 699 666 651 q 457 747 540 747 q 264 659 335 747 q 193 418 193 570 q 230 229 193 312 q 334 100 267 146 q 483 53 400 53 m 467 1122 q 553 1099 519 1122 q 587 1038 587 1077 q 571 987 587 1004 q 534 958 555 970 q 498 930 514 947 q 481 883 481 914 l 442 883 l 442 906 q 458 967 442 944 q 489 1007 473 990 q 505 1042 505 1024 q 480 1084 505 1078 q 426 1084 456 1090 l 472 1093 l 427 1050 q 401 1029 410 1035 q 377 1023 393 1023 q 354 1032 363 1023 q 345 1055 345 1042 q 378 1101 345 1081 q 467 1122 411 1122 z "},"Ỡ":{"ha":925,"x_min":72,"x_max":891,"o":"m 891 883 q 865 806 891 848 q 784 739 838 765 q 646 724 730 713 l 674 755 q 804 612 757 704 q 852 403 852 521 q 823 241 852 316 q 742 109 793 165 q 621 20 690 52 q 469 -12 551 -12 q 263 39 353 -12 q 123 183 174 91 q 72 396 72 275 q 125 608 72 514 q 269 755 178 701 q 476 808 361 808 q 588 797 540 808 q 677 785 636 785 q 747 808 722 785 q 774 894 773 830 l 777 960 q 836 961 810 967 q 876 936 861 955 q 891 883 891 917 m 483 53 q 616 93 560 53 q 705 204 673 133 q 736 370 736 275 q 701 567 736 483 q 603 699 666 651 q 457 747 540 747 q 264 659 335 747 q 193 418 193 570 q 230 229 193 312 q 334 100 267 146 q 483 53 400 53 m 688 1029 l 727 1009 q 663 916 704 951 q 568 882 621 882 q 487 901 528 882 q 408 941 446 921 q 335 960 370 960 q 277 942 298 960 q 235 892 255 924 l 195 913 q 260 1005 218 971 q 354 1039 302 1039 q 436 1020 396 1039 q 515 981 476 1001 q 590 962 553 962 q 646 981 624 962 q 688 1029 667 1000 z "},"Ő":{"ha":925,"x_min":72,"x_max":852,"o":"m 469 -12 q 263 39 353 -12 q 123 183 174 91 q 72 396 72 275 q 124 608 72 514 q 267 755 176 701 q 473 808 358 808 q 671 757 586 808 q 804 614 755 705 q 852 403 852 524 q 823 241 852 316 q 742 109 793 165 q 621 20 690 52 q 469 -12 551 -12 m 483 53 q 616 92 560 53 q 705 203 673 132 q 736 370 736 275 q 701 567 736 483 q 603 699 666 651 q 457 747 540 747 q 264 659 335 747 q 193 418 193 570 q 230 229 193 312 q 334 100 267 146 q 483 53 400 53 m 559 868 l 521 883 l 583 1048 l 671 1029 l 559 868 m 401 868 l 363 883 l 425 1048 l 513 1029 l 401 868 z "},"Ȏ":{"ha":925,"x_min":72,"x_max":852,"o":"m 469 -12 q 263 39 353 -12 q 123 183 174 91 q 72 396 72 275 q 124 608 72 514 q 267 755 176 701 q 473 808 358 808 q 671 757 586 808 q 804 614 755 705 q 852 403 852 524 q 823 241 852 316 q 742 109 793 165 q 621 20 690 52 q 469 -12 551 -12 m 483 53 q 616 92 560 53 q 705 203 673 132 q 736 370 736 275 q 701 567 736 483 q 603 699 666 651 q 457 747 540 747 q 264 659 335 747 q 193 418 193 570 q 230 229 193 312 q 334 100 267 146 q 483 53 400 53 m 289 868 l 244 884 q 315 1004 258 962 q 460 1047 373 1047 q 605 1004 545 1047 q 678 884 665 962 l 628 868 q 572 943 616 916 q 460 971 528 971 q 345 943 389 971 q 289 868 300 916 z "},"Ō":{"ha":925,"x_min":72,"x_max":852,"o":"m 469 -12 q 263 39 353 -12 q 123 183 174 91 q 72 396 72 275 q 124 608 72 514 q 267 755 176 701 q 473 808 358 808 q 671 757 586 808 q 804 614 755 705 q 852 403 852 524 q 823 241 852 316 q 742 109 793 165 q 621 20 690 52 q 469 -12 551 -12 m 483 53 q 616 92 560 53 q 705 203 673 132 q 736 370 736 275 q 701 567 736 483 q 603 699 666 651 q 457 747 540 747 q 264 659 335 747 q 193 418 193 570 q 230 229 193 312 q 334 100 267 146 q 483 53 400 53 m 271 996 l 651 996 l 651 926 l 271 926 l 271 996 z "},"Ṓ":{"ha":925,"x_min":72,"x_max":852,"o":"m 469 -12 q 263 39 353 -12 q 123 183 174 91 q 72 396 72 275 q 124 608 72 514 q 267 755 176 701 q 473 808 358 808 q 671 757 586 808 q 804 614 755 705 q 852 403 852 524 q 823 241 852 316 q 742 109 793 165 q 621 20 690 52 q 469 -12 551 -12 m 483 53 q 616 92 560 53 q 705 203 673 132 q 736 370 736 275 q 701 567 736 483 q 603 699 666 651 q 457 747 540 747 q 264 659 335 747 q 193 418 193 570 q 230 229 193 312 q 334 100 267 146 q 483 53 400 53 m 488 1040 l 441 1055 l 532 1225 l 627 1194 l 488 1040 m 247 936 l 247 1005 l 675 1005 l 675 936 l 247 936 z "},"Ṑ":{"ha":925,"x_min":72,"x_max":852,"o":"m 469 -12 q 263 39 353 -12 q 123 183 174 91 q 72 396 72 275 q 124 608 72 514 q 267 755 176 701 q 473 808 358 808 q 671 757 586 808 q 804 614 755 705 q 852 403 852 524 q 823 241 852 316 q 742 109 793 165 q 621 20 690 52 q 469 -12 551 -12 m 483 53 q 616 92 560 53 q 705 203 673 132 q 736 370 736 275 q 701 567 736 483 q 603 699 666 651 q 457 747 540 747 q 264 659 335 747 q 193 418 193 570 q 230 229 193 312 q 334 100 267 146 q 483 53 400 53 m 675 1005 l 675 936 l 247 936 l 247 1005 l 675 1005 m 434 1040 l 296 1194 l 391 1225 l 481 1055 l 434 1040 z "},"Ǫ":{"ha":925,"x_min":72,"x_max":852,"o":"m 506 -302 q 427 -287 460 -302 q 376 -243 393 -271 q 358 -183 358 -216 q 412 -66 358 -121 q 557 24 465 -12 l 511 -12 l 469 -12 q 263 39 353 -12 q 123 183 174 91 q 72 396 72 275 q 124 608 72 514 q 267 755 176 701 q 473 808 358 808 q 671 757 586 808 q 804 614 755 705 q 852 403 852 524 q 820 233 852 311 q 732 98 788 155 q 606 15 677 42 q 484 -67 525 -16 q 444 -168 444 -118 q 465 -229 444 -206 q 524 -251 487 -251 q 575 -237 552 -251 q 617 -203 598 -224 l 646 -235 q 585 -283 620 -264 q 506 -302 551 -302 m 483 53 q 616 93 560 53 q 705 204 673 133 q 736 370 736 275 q 701 567 736 483 q 603 699 666 651 q 457 747 540 747 q 264 659 335 747 q 193 418 193 570 q 230 229 193 312 q 334 100 267 146 q 483 53 400 53 z "},"Ø":{"ha":925,"x_min":72,"x_max":852,"o":"m 469 -12 q 263 39 353 -12 q 123 183 174 91 q 72 396 72 275 q 124 608 72 514 q 267 755 176 701 q 473 808 358 808 q 671 757 586 808 q 804 614 755 705 q 852 403 852 524 q 823 241 852 316 q 742 109 793 165 q 621 20 690 52 q 469 -12 551 -12 m 483 53 q 616 92 560 53 q 705 203 673 132 q 736 370 736 275 q 701 567 736 483 q 603 699 666 651 q 457 747 540 747 q 264 659 335 747 q 193 418 193 570 q 230 229 193 312 q 334 100 267 146 q 483 53 400 53 m 201 -87 l 142 -53 l 722 884 l 780 850 l 201 -87 z "},"Ǿ":{"ha":925,"x_min":72,"x_max":852,"o":"m 469 -12 q 263 39 353 -12 q 123 183 174 91 q 72 396 72 275 q 124 608 72 514 q 267 755 176 701 q 473 808 358 808 q 671 757 586 808 q 804 614 755 705 q 852 403 852 524 q 823 241 852 316 q 742 109 793 165 q 621 20 690 52 q 469 -12 551 -12 m 483 53 q 616 92 560 53 q 705 203 673 132 q 736 370 736 275 q 701 567 736 483 q 603 699 666 651 q 457 747 540 747 q 264 659 335 747 q 193 418 193 570 q 230 229 193 312 q 334 100 267 146 q 483 53 400 53 m 201 -87 l 142 -53 l 722 884 l 780 850 l 201 -87 m 486 869 l 437 887 l 525 1063 l 618 1032 l 486 869 z "},"Õ":{"ha":925,"x_min":72,"x_max":852,"o":"m 469 -12 q 263 39 353 -12 q 123 183 174 91 q 72 396 72 275 q 124 608 72 514 q 267 755 176 701 q 473 808 358 808 q 671 757 586 808 q 804 614 755 705 q 852 403 852 524 q 823 241 852 316 q 742 109 793 165 q 621 20 690 52 q 469 -12 551 -12 m 483 53 q 616 92 560 53 q 705 203 673 132 q 736 370 736 275 q 701 567 736 483 q 603 699 666 651 q 457 747 540 747 q 264 659 335 747 q 193 418 193 570 q 230 229 193 312 q 334 100 267 146 q 483 53 400 53 m 688 1029 l 727 1009 q 663 916 704 951 q 568 882 621 882 q 487 901 528 882 q 408 941 446 921 q 335 960 370 960 q 277 942 298 960 q 235 892 255 924 l 195 913 q 260 1005 218 971 q 354 1039 302 1039 q 436 1020 396 1039 q 515 981 476 1001 q 590 962 553 962 q 646 981 624 962 q 688 1029 667 1000 z "},"Ṍ":{"ha":925,"x_min":72,"x_max":852,"o":"m 469 -12 q 263 39 353 -12 q 123 183 174 91 q 72 396 72 275 q 124 608 72 514 q 267 755 176 701 q 473 808 358 808 q 671 757 586 808 q 804 614 755 705 q 852 403 852 524 q 823 241 852 316 q 742 109 793 165 q 621 20 690 52 q 469 -12 551 -12 m 483 53 q 616 92 560 53 q 705 203 673 132 q 736 370 736 275 q 701 567 736 483 q 603 699 666 651 q 457 747 540 747 q 264 659 335 747 q 193 418 193 570 q 230 229 193 312 q 334 100 267 146 q 483 53 400 53 m 484 1040 l 438 1055 l 528 1225 l 623 1194 l 484 1040 m 553 875 q 486 890 519 875 q 420 922 452 906 q 358 937 388 937 q 311 921 328 937 q 277 875 293 905 l 235 897 q 288 986 254 952 q 366 1020 323 1020 q 434 1005 400 1020 q 500 975 468 990 q 562 959 532 959 q 608 975 590 959 q 642 1021 625 991 l 685 998 q 631 908 665 941 q 553 875 597 875 z "},"Ṏ":{"ha":925,"x_min":72,"x_max":852,"o":"m 469 -12 q 263 39 353 -12 q 123 183 174 91 q 72 396 72 275 q 124 608 72 514 q 267 755 176 701 q 473 808 358 808 q 671 757 586 808 q 804 614 755 705 q 852 403 852 524 q 823 241 852 316 q 742 109 793 165 q 621 20 690 52 q 469 -12 551 -12 m 483 53 q 616 92 560 53 q 705 203 673 132 q 736 370 736 275 q 701 567 736 483 q 603 699 666 651 q 457 747 540 747 q 264 659 335 747 q 193 418 193 570 q 230 229 193 312 q 334 100 267 146 q 483 53 400 53 m 338 1096 q 293 1114 312 1096 q 274 1158 274 1131 q 293 1204 274 1187 q 338 1221 312 1221 q 381 1204 363 1221 q 399 1158 399 1187 q 381 1114 399 1131 q 338 1096 363 1096 m 595 1096 q 551 1114 570 1096 q 532 1158 532 1131 q 551 1204 532 1187 q 595 1221 570 1221 q 639 1204 621 1221 q 656 1158 656 1187 q 639 1114 656 1131 q 595 1096 621 1096 m 557 875 q 490 890 524 875 q 424 922 456 906 q 362 937 392 937 q 315 921 332 937 q 281 875 297 905 l 239 897 q 292 986 258 952 q 370 1020 327 1020 q 438 1005 404 1020 q 504 975 472 990 q 566 959 536 959 q 612 975 594 959 q 646 1021 629 991 l 689 998 q 635 908 669 941 q 557 875 601 875 z "},"Ȭ":{"ha":925,"x_min":72,"x_max":852,"o":"m 469 -12 q 263 39 353 -12 q 123 183 174 91 q 72 396 72 275 q 124 608 72 514 q 267 755 176 701 q 473 808 358 808 q 671 757 586 808 q 804 614 755 705 q 852 403 852 524 q 823 241 852 316 q 742 109 793 165 q 621 20 690 52 q 469 -12 551 -12 m 483 53 q 616 92 560 53 q 705 203 673 132 q 736 370 736 275 q 701 567 736 483 q 603 699 666 651 q 457 747 540 747 q 264 659 335 747 q 193 418 193 570 q 230 229 193 312 q 334 100 267 146 q 483 53 400 53 m 553 875 q 486 890 519 875 q 420 922 452 906 q 358 937 388 937 q 311 921 328 937 q 277 875 293 905 l 235 897 q 288 986 254 952 q 366 1020 323 1020 q 434 1005 400 1020 q 500 975 468 990 q 562 959 532 959 q 608 975 590 959 q 642 1021 625 991 l 685 998 q 631 908 665 941 q 553 875 597 875 m 247 1095 l 247 1164 l 675 1164 l 675 1095 l 247 1095 z "},"Œ":{"ha":1242,"x_min":73,"x_max":1195,"o":"m 533 -12 q 286 35 388 -12 q 128 173 183 83 q 73 391 73 263 q 106 559 73 483 q 197 691 138 636 q 338 776 256 746 q 517 806 419 806 q 610 801 568 806 q 694 796 652 796 l 1008 796 q 1040 796 1025 796 q 1075 798 1055 796 q 1124 802 1095 799 l 1149 628 l 1093 620 l 1048 732 q 1027 734 1040 734 q 1000 735 1015 735 l 840 735 q 797 734 819 735 q 758 730 774 732 q 758 699 758 724 q 756 642 757 674 q 755 582 755 610 l 755 193 q 756 145 755 171 q 758 98 757 119 q 758 71 758 77 q 800 65 783 66 q 836 64 818 64 l 972 64 q 1020 64 1001 64 q 1051 66 1039 65 q 1069 69 1063 68 l 1139 197 l 1195 186 l 1143 -7 q 1096 -1 1115 -3 q 1063 0 1077 0 q 1032 0 1048 0 l 719 0 q 634 -6 684 0 q 533 -12 585 -12 m 543 54 q 603 59 572 54 q 658 71 633 64 q 660 108 659 85 q 661 169 661 130 q 661 267 661 208 l 661 537 q 660 614 661 579 q 659 676 659 648 q 655 723 658 704 q 585 736 620 732 q 511 741 551 741 q 278 649 361 741 q 195 407 195 557 q 288 147 195 240 q 543 54 381 54 m 998 279 l 982 373 q 960 377 974 376 q 924 378 945 378 l 821 378 q 783 377 804 378 q 738 374 762 376 l 738 444 q 783 441 762 442 q 821 441 804 441 l 924 441 q 960 441 945 441 q 982 445 974 442 l 998 541 l 1050 541 l 1050 279 l 998 279 z "},"P":{"ha":678,"x_min":69,"x_max":617,"o":"m 76 0 l 73 46 l 152 65 q 154 86 153 71 q 155 142 155 102 q 156 255 156 182 l 157 547 q 156 656 157 617 q 154 710 155 694 q 152 728 153 726 l 69 750 l 72 796 l 346 796 q 544 737 471 796 q 617 567 617 678 q 578 437 617 492 q 476 353 538 382 q 340 324 414 324 q 281 328 308 324 q 231 335 254 331 l 231 401 q 289 389 264 393 q 336 385 313 385 q 468 425 420 385 q 515 551 515 465 q 463 695 515 648 q 335 742 411 742 l 254 742 q 253 703 254 732 q 252 631 252 673 q 251 547 251 590 l 252 255 q 253 143 252 182 q 256 89 254 104 q 258 68 258 73 l 370 49 l 368 0 l 76 0 z "},"Þ":{"ha":677,"x_min":68,"x_max":616,"o":"m 79 0 l 76 46 l 152 65 q 155 124 155 76 q 156 262 156 172 l 156 533 q 155 673 156 624 q 151 730 153 722 l 68 750 l 71 796 l 331 796 l 335 750 l 252 730 q 252 709 252 723 q 251 670 251 694 l 251 612 l 237 650 l 345 650 q 543 590 469 650 q 616 420 616 530 q 576 290 616 345 q 475 205 537 235 q 338 176 412 176 q 279 180 305 176 q 229 189 252 184 l 229 251 q 288 237 263 241 q 335 233 312 233 q 467 276 419 233 q 514 404 514 319 q 461 547 514 502 q 334 593 408 593 l 251 593 l 251 153 q 252 101 251 126 q 255 65 254 76 l 368 49 l 365 0 l 79 0 z "},"Q":{"ha":925,"x_min":72,"x_max":979,"o":"m 469 -11 q 263 41 353 -11 q 123 184 174 92 q 72 396 72 275 q 124 608 72 514 q 267 755 176 701 q 473 808 358 808 q 671 757 586 808 q 804 614 755 705 q 852 403 852 524 q 823 241 852 316 q 745 109 795 165 q 627 22 694 53 q 483 -9 560 -9 l 469 -11 m 811 -178 q 745 -172 776 -178 q 681 -153 713 -167 q 608 -119 648 -140 q 557 -90 586 -109 q 496 -50 528 -71 q 434 -14 464 -30 q 382 7 404 3 l 518 7 q 621 -13 581 1 q 704 -50 661 -27 q 797 -88 751 -76 q 884 -100 842 -100 q 928 -97 907 -100 q 968 -88 948 -94 l 979 -134 q 900 -167 944 -156 q 811 -178 856 -178 m 483 53 q 616 93 560 53 q 705 204 673 133 q 736 370 736 275 q 701 567 736 483 q 603 699 666 651 q 457 747 540 747 q 264 659 335 747 q 193 418 193 570 q 230 229 193 312 q 334 100 267 146 q 483 53 400 53 z "},"R":{"ha":749,"x_min":71,"x_max":753,"o":"m 76 0 l 72 46 l 155 68 q 155 96 155 76 q 156 141 156 115 q 157 198 156 167 q 157 262 157 229 l 157 533 q 157 639 157 597 q 155 703 156 681 q 152 731 155 726 l 71 750 l 73 796 l 354 796 q 540 747 475 796 q 605 604 605 697 q 569 485 605 537 q 469 403 533 433 q 323 373 406 373 l 235 373 l 235 430 l 319 430 q 455 472 407 430 q 503 590 503 514 q 462 703 503 665 q 340 742 420 742 l 255 742 q 253 733 254 738 q 252 713 252 728 q 252 660 252 697 q 252 556 252 623 l 252 262 q 253 159 252 197 q 255 100 254 121 q 258 68 256 80 l 339 46 l 336 0 l 76 0 m 700 -12 q 603 9 646 -12 q 518 84 560 31 q 422 228 476 137 l 324 396 l 412 416 l 555 203 q 627 109 595 142 q 688 58 658 75 q 753 35 718 42 l 751 -8 q 726 -12 741 -11 q 700 -12 712 -12 z "},"Ŕ":{"ha":749,"x_min":71,"x_max":753,"o":"m 76 0 l 72 46 l 155 68 q 155 96 155 76 q 156 141 156 115 q 157 198 156 167 q 157 262 157 229 l 157 533 q 157 639 157 597 q 155 703 156 681 q 152 731 155 726 l 71 750 l 73 796 l 354 796 q 540 747 475 796 q 605 604 605 697 q 569 485 605 537 q 469 403 533 433 q 323 373 406 373 l 235 373 l 235 430 l 319 430 q 455 472 407 430 q 503 590 503 514 q 462 703 503 665 q 340 742 420 742 l 255 742 q 253 733 254 738 q 252 713 252 728 q 252 660 252 697 q 252 556 252 623 l 252 262 q 253 159 252 197 q 255 100 254 121 q 258 68 256 80 l 339 46 l 336 0 l 76 0 m 700 -12 q 603 9 646 -12 q 518 84 560 31 q 422 228 476 137 l 324 396 l 412 416 l 555 203 q 627 109 595 142 q 688 58 658 75 q 753 35 718 42 l 751 -8 q 726 -12 741 -11 q 700 -12 712 -12 m 376 869 l 327 887 l 415 1063 l 509 1032 l 376 869 z "},"Ř":{"ha":749,"x_min":71,"x_max":753,"o":"m 76 0 l 72 46 l 155 68 q 155 96 155 76 q 156 141 156 115 q 157 198 156 167 q 157 262 157 229 l 157 533 q 157 639 157 597 q 155 703 156 681 q 152 731 155 726 l 71 750 l 73 796 l 354 796 q 540 747 475 796 q 605 604 605 697 q 569 485 605 537 q 469 403 533 433 q 323 373 406 373 l 235 373 l 235 430 l 319 430 q 455 472 407 430 q 503 590 503 514 q 462 703 503 665 q 340 742 420 742 l 255 742 q 253 733 254 738 q 252 713 252 728 q 252 660 252 697 q 252 556 252 623 l 252 262 q 253 159 252 197 q 255 100 254 121 q 258 68 256 80 l 339 46 l 336 0 l 76 0 m 700 -12 q 603 9 646 -12 q 518 84 560 31 q 422 228 476 137 l 324 396 l 412 416 l 555 203 q 627 109 595 142 q 688 58 658 75 q 753 35 718 42 l 751 -8 q 726 -12 741 -11 q 700 -12 712 -12 m 129 1025 l 171 1055 l 392 929 l 311 929 l 532 1055 l 574 1025 l 395 878 l 308 878 l 129 1025 z "},"Ŗ":{"ha":749,"x_min":71,"x_max":753,"o":"m 76 0 l 72 46 l 155 68 q 155 96 155 76 q 156 141 156 115 q 157 198 156 167 q 157 262 157 229 l 157 533 q 157 639 157 597 q 155 703 156 681 q 152 731 155 726 l 71 750 l 73 796 l 354 796 q 540 747 475 796 q 605 604 605 697 q 569 485 605 537 q 469 403 533 433 q 323 373 406 373 l 235 373 l 235 430 l 319 430 q 455 472 407 430 q 503 590 503 514 q 462 703 503 665 q 340 742 420 742 l 255 742 q 253 733 254 738 q 252 713 252 728 q 252 660 252 697 q 252 556 252 623 l 252 262 q 253 159 252 197 q 255 100 254 121 q 258 68 256 80 l 339 46 l 336 0 l 76 0 m 700 -12 q 603 9 646 -12 q 518 84 560 31 q 422 228 476 137 l 324 396 l 412 416 l 555 203 q 627 109 595 142 q 688 58 658 75 q 753 35 718 42 l 751 -8 q 726 -12 741 -11 q 700 -12 712 -12 m 330 -385 l 313 -353 q 378 -319 354 -340 q 403 -274 403 -297 q 395 -248 403 -258 q 377 -232 388 -239 q 359 -214 366 -225 q 351 -184 351 -203 q 367 -149 351 -163 q 404 -136 382 -136 q 444 -146 429 -136 q 468 -176 460 -157 q 476 -218 476 -194 q 457 -288 476 -255 q 406 -345 438 -320 q 330 -385 373 -370 z "},"Ȑ":{"ha":749,"x_min":71,"x_max":753,"o":"m 76 0 l 72 46 l 155 68 q 155 96 155 76 q 156 141 156 115 q 157 198 156 167 q 157 262 157 229 l 157 533 q 157 639 157 597 q 155 703 156 681 q 152 731 155 726 l 71 750 l 73 796 l 354 796 q 540 747 475 796 q 605 604 605 697 q 569 485 605 537 q 469 403 533 433 q 323 373 406 373 l 235 373 l 235 430 l 319 430 q 455 472 407 430 q 503 590 503 514 q 462 703 503 665 q 340 742 420 742 l 255 742 q 253 733 254 738 q 252 713 252 728 q 252 660 252 697 q 252 556 252 623 l 252 262 q 253 159 252 197 q 255 100 254 121 q 258 68 256 80 l 339 46 l 336 0 l 76 0 m 700 -12 q 603 9 646 -12 q 518 84 560 31 q 422 228 476 137 l 324 396 l 412 416 l 555 203 q 627 109 595 142 q 688 58 658 75 q 753 35 718 42 l 751 -8 q 726 -12 741 -11 q 700 -12 712 -12 m 411 868 l 300 1029 l 388 1048 l 449 883 l 411 868 m 254 868 l 141 1029 l 229 1048 l 292 883 l 254 868 z "},"Ṛ":{"ha":749,"x_min":71,"x_max":753,"o":"m 76 0 l 72 46 l 155 68 q 155 96 155 76 q 156 141 156 115 q 157 198 156 167 q 157 262 157 229 l 157 533 q 157 639 157 597 q 155 703 156 681 q 152 731 155 726 l 71 750 l 73 796 l 354 796 q 540 747 475 796 q 605 604 605 697 q 569 485 605 537 q 469 403 533 433 q 323 373 406 373 l 235 373 l 235 430 l 319 430 q 455 472 407 430 q 503 590 503 514 q 462 703 503 665 q 340 742 420 742 l 255 742 q 253 733 254 738 q 252 713 252 728 q 252 660 252 697 q 252 556 252 623 l 252 262 q 253 159 252 197 q 255 100 254 121 q 258 68 256 80 l 339 46 l 336 0 l 76 0 m 700 -12 q 603 9 646 -12 q 518 84 560 31 q 422 228 476 137 l 324 396 l 412 416 l 555 203 q 627 109 595 142 q 688 58 658 75 q 753 35 718 42 l 751 -8 q 726 -12 741 -11 q 700 -12 712 -12 m 415 -266 q 370 -249 389 -266 q 350 -205 350 -232 q 370 -160 350 -178 q 415 -142 389 -142 q 459 -160 441 -142 q 477 -205 477 -178 q 459 -249 477 -232 q 415 -266 441 -266 z "},"Ȓ":{"ha":749,"x_min":71,"x_max":753,"o":"m 76 0 l 72 46 l 155 68 q 155 96 155 76 q 156 141 156 115 q 157 198 156 167 q 157 262 157 229 l 157 533 q 157 639 157 597 q 155 703 156 681 q 152 731 155 726 l 71 750 l 73 796 l 354 796 q 540 747 475 796 q 605 604 605 697 q 569 485 605 537 q 469 403 533 433 q 323 373 406 373 l 235 373 l 235 430 l 319 430 q 455 472 407 430 q 503 590 503 514 q 462 703 503 665 q 340 742 420 742 l 255 742 q 253 733 254 738 q 252 713 252 728 q 252 660 252 697 q 252 556 252 623 l 252 262 q 253 159 252 197 q 255 100 254 121 q 258 68 256 80 l 339 46 l 336 0 l 76 0 m 700 -12 q 603 9 646 -12 q 518 84 560 31 q 422 228 476 137 l 324 396 l 412 416 l 555 203 q 627 109 595 142 q 688 58 658 75 q 753 35 718 42 l 751 -8 q 726 -12 741 -11 q 700 -12 712 -12 m 179 868 l 134 884 q 205 1004 148 962 q 350 1047 263 1047 q 495 1004 435 1047 q 568 884 555 962 l 518 868 q 462 943 506 916 q 350 971 418 971 q 235 943 279 971 q 179 868 190 916 z "},"Ṟ":{"ha":749,"x_min":71,"x_max":753,"o":"m 76 0 l 72 46 l 155 68 q 155 96 155 76 q 156 141 156 115 q 157 198 156 167 q 157 262 157 229 l 157 533 q 157 639 157 597 q 155 703 156 681 q 152 731 155 726 l 71 750 l 73 796 l 354 796 q 540 747 475 796 q 605 604 605 697 q 569 485 605 537 q 469 403 533 433 q 323 373 406 373 l 235 373 l 235 430 l 319 430 q 455 472 407 430 q 503 590 503 514 q 462 703 503 665 q 340 742 420 742 l 255 742 q 253 733 254 738 q 252 713 252 728 q 252 660 252 697 q 252 556 252 623 l 252 262 q 253 159 252 197 q 255 100 254 121 q 258 68 256 80 l 339 46 l 336 0 l 76 0 m 700 -12 q 603 9 646 -12 q 518 84 560 31 q 422 228 476 137 l 324 396 l 412 416 l 555 203 q 627 109 595 142 q 688 58 658 75 q 753 35 718 42 l 751 -8 q 726 -12 741 -11 q 700 -12 712 -12 m 224 -171 l 604 -171 l 604 -239 l 224 -239 l 224 -171 z "},"S":{"ha":639,"x_min":76,"x_max":582,"o":"m 302 -12 q 182 2 243 -12 q 83 38 121 16 l 76 206 l 126 212 l 161 96 q 237 62 197 75 q 324 50 277 50 q 435 84 392 50 q 479 178 479 118 q 450 258 479 227 q 375 315 420 290 q 279 362 330 339 q 182 415 228 385 q 108 487 137 445 q 79 593 79 529 q 115 705 79 656 q 213 782 151 754 q 355 810 275 810 q 424 806 392 810 q 484 796 456 803 q 533 779 511 789 l 543 618 l 492 613 l 456 722 q 340 750 414 750 q 225 715 269 750 q 182 624 182 680 q 211 539 182 574 q 286 479 240 505 q 382 431 331 454 q 478 379 433 408 q 553 309 524 350 q 582 208 582 269 q 546 96 582 145 q 447 17 510 46 q 302 -12 384 -12 z "},"Ś":{"ha":639,"x_min":76,"x_max":582,"o":"m 302 -12 q 182 2 243 -12 q 83 38 121 16 l 76 206 l 126 212 l 161 96 q 237 62 197 75 q 324 50 277 50 q 435 84 392 50 q 479 178 479 118 q 450 258 479 227 q 375 315 420 290 q 279 362 330 339 q 182 415 228 385 q 108 487 137 445 q 79 593 79 529 q 115 705 79 656 q 213 782 151 754 q 355 810 275 810 q 424 806 392 810 q 484 796 456 803 q 533 779 511 789 l 543 618 l 492 613 l 456 722 q 340 750 414 750 q 225 715 269 750 q 182 624 182 680 q 211 539 182 574 q 286 479 240 505 q 382 431 331 454 q 478 379 433 408 q 553 309 524 350 q 582 208 582 269 q 546 96 582 145 q 447 17 510 46 q 302 -12 384 -12 m 347 869 l 298 887 l 387 1063 l 480 1032 l 347 869 z "},"Ṥ":{"ha":639,"x_min":76,"x_max":582,"o":"m 302 -12 q 182 2 243 -12 q 83 38 121 16 l 76 206 l 126 212 l 161 96 q 237 62 197 75 q 324 50 277 50 q 435 84 392 50 q 479 178 479 118 q 450 258 479 227 q 375 315 420 290 q 279 362 330 339 q 182 415 228 385 q 108 487 137 445 q 79 593 79 529 q 115 705 79 656 q 213 782 151 754 q 355 810 275 810 q 424 806 392 810 q 484 796 456 803 q 533 779 511 789 l 543 618 l 492 613 l 456 722 q 340 750 414 750 q 225 715 269 750 q 182 624 182 680 q 211 539 182 574 q 286 479 240 505 q 382 431 331 454 q 478 379 433 408 q 553 309 524 350 q 582 208 582 269 q 546 96 582 145 q 447 17 510 46 q 302 -12 384 -12 m 347 869 l 298 887 l 387 1063 l 480 1032 l 347 869 m 324 1199 q 279 1217 298 1199 q 259 1261 259 1234 q 279 1305 259 1287 q 324 1324 298 1324 q 368 1305 350 1324 q 387 1261 387 1287 q 368 1217 387 1234 q 324 1199 350 1199 z "},"Š":{"ha":639,"x_min":76,"x_max":582,"o":"m 302 -12 q 182 2 243 -12 q 83 38 121 16 l 76 206 l 126 212 l 161 96 q 237 62 197 75 q 324 50 277 50 q 435 84 392 50 q 479 178 479 118 q 450 258 479 227 q 375 315 420 290 q 279 362 330 339 q 182 415 228 385 q 108 487 137 445 q 79 593 79 529 q 115 705 79 656 q 213 782 151 754 q 355 810 275 810 q 424 806 392 810 q 484 796 456 803 q 533 779 511 789 l 543 618 l 492 613 l 456 722 q 340 750 414 750 q 225 715 269 750 q 182 624 182 680 q 211 539 182 574 q 286 479 240 505 q 382 431 331 454 q 478 379 433 408 q 553 309 524 350 q 582 208 582 269 q 546 96 582 145 q 447 17 510 46 q 302 -12 384 -12 m 100 1025 l 142 1055 l 363 929 l 282 929 l 503 1055 l 545 1025 l 366 878 l 279 878 l 100 1025 z "},"Ṧ":{"ha":639,"x_min":76,"x_max":582,"o":"m 302 -12 q 182 2 243 -12 q 83 38 121 16 l 76 206 l 126 212 l 161 96 q 237 62 197 75 q 324 50 277 50 q 435 84 392 50 q 479 178 479 118 q 450 258 479 227 q 375 315 420 290 q 279 362 330 339 q 182 415 228 385 q 108 487 137 445 q 79 593 79 529 q 115 705 79 656 q 213 782 151 754 q 355 810 275 810 q 424 806 392 810 q 484 796 456 803 q 533 779 511 789 l 543 618 l 492 613 l 456 722 q 340 750 414 750 q 225 715 269 750 q 182 624 182 680 q 211 539 182 574 q 286 479 240 505 q 382 431 331 454 q 478 379 433 408 q 553 309 524 350 q 582 208 582 269 q 546 96 582 145 q 447 17 510 46 q 302 -12 384 -12 m 324 1101 q 279 1118 298 1101 q 260 1162 260 1135 q 279 1207 260 1190 q 324 1225 298 1225 q 368 1207 350 1225 q 385 1162 385 1190 q 368 1118 385 1135 q 324 1101 350 1101 m 100 1025 l 142 1055 l 363 929 l 282 929 l 503 1055 l 545 1025 l 366 878 l 279 878 l 100 1025 z "},"Ş":{"ha":639,"x_min":76,"x_max":582,"o":"m 302 -12 q 182 2 243 -12 q 83 38 121 16 l 76 206 l 126 212 l 161 96 q 237 62 197 75 q 324 50 277 50 q 435 84 392 50 q 479 178 479 118 q 450 258 479 227 q 375 315 420 290 q 279 362 330 339 q 182 415 228 385 q 108 487 137 445 q 79 593 79 529 q 115 705 79 656 q 213 782 151 754 q 355 810 275 810 q 424 806 392 810 q 484 796 456 803 q 533 779 511 789 l 543 618 l 492 613 l 456 722 q 340 750 414 750 q 225 715 269 750 q 182 624 182 680 q 211 539 182 574 q 286 479 240 505 q 382 431 331 454 q 478 379 433 408 q 553 309 524 350 q 582 208 582 269 q 546 96 582 145 q 447 17 510 46 q 302 -12 384 -12 m 288 -302 q 225 -294 256 -302 q 167 -270 194 -285 l 193 -218 q 242 -241 216 -232 q 297 -251 269 -251 q 345 -237 326 -251 q 363 -197 363 -224 q 336 -154 363 -170 q 258 -144 308 -138 l 237 -118 l 316 18 l 381 18 l 288 -114 l 298 -72 q 406 -100 363 -72 q 448 -179 448 -129 q 402 -267 448 -231 q 288 -302 357 -302 z "},"Ŝ":{"ha":639,"x_min":76,"x_max":582,"o":"m 302 -12 q 182 2 243 -12 q 83 38 121 16 l 76 206 l 126 212 l 161 96 q 237 62 197 75 q 324 50 277 50 q 435 84 392 50 q 479 178 479 118 q 450 258 479 227 q 375 315 420 290 q 279 362 330 339 q 182 415 228 385 q 108 487 137 445 q 79 593 79 529 q 115 705 79 656 q 213 782 151 754 q 355 810 275 810 q 424 806 392 810 q 484 796 456 803 q 533 779 511 789 l 543 618 l 492 613 l 456 722 q 340 750 414 750 q 225 715 269 750 q 182 624 182 680 q 211 539 182 574 q 286 479 240 505 q 382 431 331 454 q 478 379 433 408 q 553 309 524 350 q 582 208 582 269 q 546 96 582 145 q 447 17 510 46 q 302 -12 384 -12 m 545 898 l 503 868 l 282 994 l 363 994 l 142 868 l 100 898 l 279 1044 l 366 1044 l 545 898 z "},"Ș":{"ha":639,"x_min":76,"x_max":582,"o":"m 302 -12 q 182 2 243 -12 q 83 38 121 16 l 76 206 l 126 212 l 161 96 q 237 62 197 75 q 324 50 277 50 q 435 84 392 50 q 479 178 479 118 q 450 258 479 227 q 375 315 420 290 q 279 362 330 339 q 182 415 228 385 q 108 487 137 445 q 79 593 79 529 q 115 705 79 656 q 213 782 151 754 q 355 810 275 810 q 424 806 392 810 q 484 796 456 803 q 533 779 511 789 l 543 618 l 492 613 l 456 722 q 340 750 414 750 q 225 715 269 750 q 182 624 182 680 q 211 539 182 574 q 286 479 240 505 q 382 431 331 454 q 478 379 433 408 q 553 309 524 350 q 582 208 582 269 q 546 96 582 145 q 447 17 510 46 q 302 -12 384 -12 m 239 -385 l 222 -353 q 288 -319 263 -340 q 312 -274 312 -297 q 304 -248 312 -258 q 286 -232 297 -239 q 268 -214 275 -225 q 260 -184 260 -203 q 276 -149 260 -163 q 313 -136 292 -136 q 353 -146 338 -136 q 377 -176 369 -157 q 385 -218 385 -194 q 366 -288 385 -255 q 315 -345 347 -320 q 239 -385 282 -370 z "},"Ṡ":{"ha":639,"x_min":76,"x_max":582,"o":"m 302 -12 q 182 2 243 -12 q 83 38 121 16 l 76 206 l 126 212 l 161 96 q 237 62 197 75 q 324 50 277 50 q 435 84 392 50 q 479 178 479 118 q 450 258 479 227 q 375 315 420 290 q 279 362 330 339 q 182 415 228 385 q 108 487 137 445 q 79 593 79 529 q 115 705 79 656 q 213 782 151 754 q 355 810 275 810 q 424 806 392 810 q 484 796 456 803 q 533 779 511 789 l 543 618 l 492 613 l 456 722 q 340 750 414 750 q 225 715 269 750 q 182 624 182 680 q 211 539 182 574 q 286 479 240 505 q 382 431 331 454 q 478 379 433 408 q 553 309 524 350 q 582 208 582 269 q 546 96 582 145 q 447 17 510 46 q 302 -12 384 -12 m 324 901 q 279 918 298 901 q 259 963 259 936 q 279 1007 259 989 q 324 1025 298 1025 q 368 1007 350 1025 q 387 963 387 989 q 368 918 387 936 q 324 901 350 901 z "},"Ṣ":{"ha":639,"x_min":76,"x_max":582,"o":"m 302 -12 q 182 2 243 -12 q 83 38 121 16 l 76 206 l 126 212 l 161 96 q 237 62 197 75 q 324 50 277 50 q 435 84 392 50 q 479 178 479 118 q 450 258 479 227 q 375 315 420 290 q 279 362 330 339 q 182 415 228 385 q 108 487 137 445 q 79 593 79 529 q 115 705 79 656 q 213 782 151 754 q 355 810 275 810 q 424 806 392 810 q 484 796 456 803 q 533 779 511 789 l 543 618 l 492 613 l 456 722 q 340 750 414 750 q 225 715 269 750 q 182 624 182 680 q 211 539 182 574 q 286 479 240 505 q 382 431 331 454 q 478 379 433 408 q 553 309 524 350 q 582 208 582 269 q 546 96 582 145 q 447 17 510 46 q 302 -12 384 -12 m 324 -266 q 279 -249 298 -266 q 259 -205 259 -232 q 279 -160 259 -178 q 324 -142 298 -142 q 368 -160 350 -142 q 387 -205 387 -178 q 368 -249 387 -232 q 324 -266 350 -266 z "},"Ṩ":{"ha":639,"x_min":76,"x_max":582,"o":"m 302 -12 q 182 2 243 -12 q 83 38 121 16 l 76 206 l 126 212 l 161 96 q 237 62 197 75 q 324 50 277 50 q 435 84 392 50 q 479 178 479 118 q 450 258 479 227 q 375 315 420 290 q 279 362 330 339 q 182 415 228 385 q 108 487 137 445 q 79 593 79 529 q 115 705 79 656 q 213 782 151 754 q 355 810 275 810 q 424 806 392 810 q 484 796 456 803 q 533 779 511 789 l 543 618 l 492 613 l 456 722 q 340 750 414 750 q 225 715 269 750 q 182 624 182 680 q 211 539 182 574 q 286 479 240 505 q 382 431 331 454 q 478 379 433 408 q 553 309 524 350 q 582 208 582 269 q 546 96 582 145 q 447 17 510 46 q 302 -12 384 -12 m 324 -266 q 279 -249 298 -266 q 259 -205 259 -232 q 279 -160 259 -178 q 324 -142 298 -142 q 368 -160 350 -142 q 387 -205 387 -178 q 368 -249 387 -232 q 324 -266 350 -266 m 324 901 q 279 918 298 901 q 259 963 259 936 q 279 1007 259 989 q 324 1025 298 1025 q 368 1007 350 1025 q 387 963 387 989 q 368 918 387 936 q 324 901 350 901 z "},"ẞ":{"ha":921,"x_min":52,"x_max":861,"o":"m 54 0 l 52 46 l 133 65 q 138 130 136 77 q 140 262 140 183 l 138 481 q 174 659 138 585 q 276 771 210 732 q 431 810 342 810 q 585 766 522 810 q 678 636 647 723 l 604 636 q 541 720 586 690 q 433 750 496 750 q 288 692 340 750 q 235 518 235 633 l 236 262 q 238 119 236 164 q 243 65 240 73 l 326 46 l 321 0 l 54 0 m 620 -12 q 541 -5 579 -12 q 471 12 503 1 q 412 35 438 22 l 411 202 l 465 208 l 491 91 q 560 59 522 69 q 635 49 598 49 q 702 61 674 49 q 745 97 730 73 q 760 149 760 121 q 735 217 760 191 q 671 261 711 243 q 588 297 632 279 q 505 336 544 315 q 441 393 465 358 q 416 480 416 429 q 445 574 416 532 q 529 640 473 616 q 662 665 585 665 q 719 662 692 665 q 770 654 746 659 q 815 643 795 650 l 823 502 l 774 496 l 745 595 q 705 606 726 604 q 658 609 684 609 q 551 580 587 609 q 515 509 515 551 q 541 442 515 468 q 605 397 566 416 q 688 361 644 378 q 772 321 732 343 q 836 264 811 298 q 861 178 861 229 q 831 77 861 119 q 747 11 802 34 q 620 -12 692 -12 z "},"Ə":{"ha":878,"x_min":77,"x_max":804,"o":"m 426 808 q 580 780 510 808 q 700 699 650 751 q 777 576 750 647 q 804 416 804 505 q 778 243 804 321 q 701 107 751 164 q 584 19 651 50 q 435 -12 517 -12 q 244 34 324 -11 q 121 160 164 79 q 77 353 77 241 l 77 384 l 716 384 l 716 312 l 184 312 l 210 328 l 210 289 q 272 117 210 180 q 442 53 334 53 q 623 129 557 53 q 688 335 688 205 l 688 359 q 607 610 688 518 q 389 701 526 701 q 241 669 308 701 q 126 576 175 636 l 83 609 q 166 712 113 667 q 287 783 220 757 q 426 808 354 808 z "},"T":{"ha":735,"x_min":23,"x_max":712,"o":"m 682 802 l 712 587 l 658 581 l 601 734 q 578 737 591 736 q 553 738 564 738 l 505 738 q 465 738 491 738 q 419 735 439 738 q 418 686 419 726 q 417 595 418 646 q 416 496 416 544 l 416 297 q 418 145 416 209 q 420 65 419 81 l 533 49 l 530 0 l 206 0 l 202 49 l 316 65 q 317 145 316 81 q 319 297 319 209 l 319 496 q 319 595 319 544 q 319 686 319 646 q 317 735 319 726 q 272 738 297 738 q 232 738 247 738 l 179 738 q 156 737 168 738 q 134 734 144 736 l 76 579 l 23 587 l 52 802 q 83 799 68 800 q 111 797 98 798 q 138 796 125 796 q 167 796 152 796 l 567 796 q 595 796 582 796 q 623 797 609 796 q 650 799 636 798 q 682 802 665 800 z "},"Ŧ":{"ha":735,"x_min":23,"x_max":712,"o":"m 682 802 l 712 587 l 658 581 l 601 734 q 578 737 591 736 q 553 738 564 738 l 505 738 q 465 738 491 738 q 419 735 439 738 q 418 686 419 726 q 417 595 418 646 q 416 496 416 544 l 416 297 q 418 145 416 209 q 420 65 419 81 l 533 49 l 530 0 l 206 0 l 202 49 l 316 65 q 317 145 316 81 q 319 297 319 209 l 319 496 q 319 595 319 544 q 319 686 319 646 q 317 735 319 726 q 272 738 297 738 q 232 738 247 738 l 179 738 q 156 737 168 738 q 134 734 144 736 l 76 579 l 23 587 l 52 802 q 83 799 68 800 q 111 797 98 798 q 138 796 125 796 q 167 796 152 796 l 567 796 q 595 796 582 796 q 623 797 609 796 q 650 799 636 798 q 682 802 665 800 m 156 380 l 156 442 l 579 442 l 579 380 l 156 380 z "},"Ť":{"ha":735,"x_min":23,"x_max":712,"o":"m 682 802 l 712 587 l 658 581 l 601 734 q 578 737 591 736 q 553 738 564 738 l 505 738 q 465 738 491 738 q 419 735 439 738 q 418 686 419 726 q 417 595 418 646 q 416 496 416 544 l 416 297 q 418 145 416 209 q 420 65 419 81 l 533 49 l 530 0 l 206 0 l 202 49 l 316 65 q 317 145 316 81 q 319 297 319 209 l 319 496 q 319 595 319 544 q 319 686 319 646 q 317 735 319 726 q 272 738 297 738 q 232 738 247 738 l 179 738 q 156 737 168 738 q 134 734 144 736 l 76 579 l 23 587 l 52 802 q 83 799 68 800 q 111 797 98 798 q 138 796 125 796 q 167 796 152 796 l 567 796 q 595 796 582 796 q 623 797 609 796 q 650 799 636 798 q 682 802 665 800 m 145 1025 l 187 1055 l 408 929 l 327 929 l 548 1055 l 590 1025 l 411 878 l 324 878 l 145 1025 z "},"Ţ":{"ha":735,"x_min":23,"x_max":712,"o":"m 682 802 l 712 587 l 658 581 l 601 734 q 578 737 591 736 q 553 738 564 738 l 505 738 q 465 738 491 738 q 419 735 439 738 q 418 686 419 726 q 417 595 418 646 q 416 496 416 544 l 416 297 q 418 145 416 209 q 420 65 419 81 l 533 49 l 530 0 l 206 0 l 202 49 l 316 65 q 317 145 316 81 q 319 297 319 209 l 319 496 q 319 595 319 544 q 319 686 319 646 q 317 735 319 726 q 272 738 297 738 q 232 738 247 738 l 179 738 q 156 737 168 738 q 134 734 144 736 l 76 579 l 23 587 l 52 802 q 83 799 68 800 q 111 797 98 798 q 138 796 125 796 q 167 796 152 796 l 567 796 q 595 796 582 796 q 623 797 609 796 q 650 799 636 798 q 682 802 665 800 m 334 -302 q 271 -294 302 -302 q 213 -270 240 -285 l 239 -218 q 288 -241 262 -232 q 343 -251 315 -251 q 391 -237 372 -251 q 410 -197 410 -224 q 382 -154 410 -170 q 304 -144 354 -138 l 283 -118 l 362 18 l 427 18 l 334 -114 l 345 -72 q 452 -100 410 -72 q 494 -179 494 -129 q 448 -267 494 -231 q 334 -302 403 -302 z "},"Ț":{"ha":735,"x_min":23,"x_max":712,"o":"m 682 802 l 712 587 l 658 581 l 601 734 q 578 737 591 736 q 553 738 564 738 l 505 738 q 465 738 491 738 q 419 735 439 738 q 418 686 419 726 q 417 595 418 646 q 416 496 416 544 l 416 297 q 418 145 416 209 q 420 65 419 81 l 533 49 l 530 0 l 206 0 l 202 49 l 316 65 q 317 145 316 81 q 319 297 319 209 l 319 496 q 319 595 319 544 q 319 686 319 646 q 317 735 319 726 q 272 738 297 738 q 232 738 247 738 l 179 738 q 156 737 168 738 q 134 734 144 736 l 76 579 l 23 587 l 52 802 q 83 799 68 800 q 111 797 98 798 q 138 796 125 796 q 167 796 152 796 l 567 796 q 595 796 582 796 q 623 797 609 796 q 650 799 636 798 q 682 802 665 800 m 285 -385 l 269 -353 q 334 -319 309 -340 q 358 -274 358 -297 q 351 -248 358 -258 q 332 -232 343 -239 q 314 -214 321 -225 q 307 -184 307 -203 q 322 -149 307 -163 q 359 -136 338 -136 q 399 -146 384 -136 q 423 -176 415 -157 q 431 -218 431 -194 q 412 -288 431 -255 q 361 -345 393 -320 q 285 -385 328 -370 z "},"Ṭ":{"ha":735,"x_min":23,"x_max":712,"o":"m 682 802 l 712 587 l 658 581 l 601 734 q 578 737 591 736 q 553 738 564 738 l 505 738 q 465 738 491 738 q 419 735 439 738 q 418 686 419 726 q 417 595 418 646 q 416 496 416 544 l 416 297 q 418 145 416 209 q 420 65 419 81 l 533 49 l 530 0 l 206 0 l 202 49 l 316 65 q 317 145 316 81 q 319 297 319 209 l 319 496 q 319 595 319 544 q 319 686 319 646 q 317 735 319 726 q 272 738 297 738 q 232 738 247 738 l 179 738 q 156 737 168 738 q 134 734 144 736 l 76 579 l 23 587 l 52 802 q 83 799 68 800 q 111 797 98 798 q 138 796 125 796 q 167 796 152 796 l 567 796 q 595 796 582 796 q 623 797 609 796 q 650 799 636 798 q 682 802 665 800 m 370 -266 q 325 -249 345 -266 q 305 -205 305 -232 q 325 -160 305 -178 q 370 -142 345 -142 q 414 -160 396 -142 q 433 -205 433 -178 q 414 -249 433 -232 q 370 -266 396 -266 z "},"Ṯ":{"ha":735,"x_min":23,"x_max":712,"o":"m 682 802 l 712 587 l 658 581 l 601 734 q 578 737 591 736 q 553 738 564 738 l 505 738 q 465 738 491 738 q 419 735 439 738 q 418 686 419 726 q 417 595 418 646 q 416 496 416 544 l 416 297 q 418 145 416 209 q 420 65 419 81 l 533 49 l 530 0 l 206 0 l 202 49 l 316 65 q 317 145 316 81 q 319 297 319 209 l 319 496 q 319 595 319 544 q 319 686 319 646 q 317 735 319 726 q 272 738 297 738 q 232 738 247 738 l 179 738 q 156 737 168 738 q 134 734 144 736 l 76 579 l 23 587 l 52 802 q 83 799 68 800 q 111 797 98 798 q 138 796 125 796 q 167 796 152 796 l 567 796 q 595 796 582 796 q 623 797 609 796 q 650 799 636 798 q 682 802 665 800 m 179 -171 l 559 -171 l 559 -239 l 179 -239 l 179 -171 z "},"U":{"ha":888,"x_min":64,"x_max":823,"o":"m 68 796 l 334 796 l 338 750 l 255 730 q 254 711 255 727 q 252 654 252 694 q 251 533 251 613 l 251 305 q 280 166 252 218 q 356 90 308 114 q 465 66 404 66 q 570 91 525 66 q 640 170 614 115 q 666 316 666 225 l 666 509 q 665 612 666 567 q 663 688 665 658 q 659 730 662 719 l 564 750 l 567 796 l 819 796 l 823 750 l 742 730 q 741 707 742 726 q 739 643 739 689 q 738 509 738 597 l 738 313 q 701 126 738 198 q 599 21 663 54 q 456 -12 534 -12 q 233 67 313 -12 q 152 290 152 146 l 152 533 q 151 652 152 612 q 149 709 149 693 q 146 730 148 726 l 64 750 l 68 796 z "},"Ú":{"ha":888,"x_min":64,"x_max":823,"o":"m 68 796 l 334 796 l 338 750 l 255 730 q 254 711 255 727 q 252 654 252 694 q 251 533 251 613 l 251 305 q 280 166 252 218 q 356 90 308 114 q 465 66 404 66 q 570 91 525 66 q 640 170 614 115 q 666 316 666 225 l 666 509 q 665 612 666 567 q 663 688 665 658 q 659 730 662 719 l 564 750 l 567 796 l 819 796 l 823 750 l 742 730 q 741 707 742 726 q 739 643 739 689 q 738 509 738 597 l 738 313 q 701 126 738 198 q 599 21 663 54 q 456 -12 534 -12 q 233 67 313 -12 q 152 290 152 146 l 152 533 q 151 652 152 612 q 149 709 149 693 q 146 730 148 726 l 64 750 l 68 796 m 484 869 l 435 887 l 524 1063 l 617 1032 l 484 869 z "},"Ŭ":{"ha":888,"x_min":64,"x_max":823,"o":"m 68 796 l 334 796 l 338 750 l 255 730 q 254 711 255 727 q 252 654 252 694 q 251 533 251 613 l 251 305 q 280 166 252 218 q 356 90 308 114 q 465 66 404 66 q 570 91 525 66 q 640 170 614 115 q 666 316 666 225 l 666 509 q 665 612 666 567 q 663 688 665 658 q 659 730 662 719 l 564 750 l 567 796 l 819 796 l 823 750 l 742 730 q 741 707 742 726 q 739 643 739 689 q 738 509 738 597 l 738 313 q 701 126 738 198 q 599 21 663 54 q 456 -12 534 -12 q 233 67 313 -12 q 152 290 152 146 l 152 533 q 151 652 152 612 q 149 709 149 693 q 146 730 148 726 l 64 750 l 68 796 m 632 1055 l 677 1039 q 606 918 663 960 q 461 876 548 876 q 316 918 376 876 q 243 1039 256 960 l 293 1055 q 350 979 305 1008 q 461 951 395 951 q 576 979 532 951 q 632 1055 621 1008 z "},"Û":{"ha":888,"x_min":64,"x_max":823,"o":"m 68 796 l 334 796 l 338 750 l 255 730 q 254 711 255 727 q 252 654 252 694 q 251 533 251 613 l 251 305 q 280 166 252 218 q 356 90 308 114 q 465 66 404 66 q 570 91 525 66 q 640 170 614 115 q 666 316 666 225 l 666 509 q 665 612 666 567 q 663 688 665 658 q 659 730 662 719 l 564 750 l 567 796 l 819 796 l 823 750 l 742 730 q 741 707 742 726 q 739 643 739 689 q 738 509 738 597 l 738 313 q 701 126 738 198 q 599 21 663 54 q 456 -12 534 -12 q 233 67 313 -12 q 152 290 152 146 l 152 533 q 151 652 152 612 q 149 709 149 693 q 146 730 148 726 l 64 750 l 68 796 m 682 898 l 640 868 l 419 994 l 500 994 l 279 868 l 237 898 l 416 1044 l 503 1044 l 682 898 z "},"Ȕ":{"ha":888,"x_min":64,"x_max":823,"o":"m 68 796 l 334 796 l 338 750 l 255 730 q 254 711 255 727 q 252 654 252 694 q 251 533 251 613 l 251 305 q 280 166 252 218 q 356 90 308 114 q 465 66 404 66 q 570 91 525 66 q 640 170 614 115 q 666 316 666 225 l 666 509 q 665 612 666 567 q 663 688 665 658 q 659 730 662 719 l 564 750 l 567 796 l 819 796 l 823 750 l 742 730 q 741 707 742 726 q 739 643 739 689 q 738 509 738 597 l 738 313 q 701 126 738 198 q 599 21 663 54 q 456 -12 534 -12 q 233 67 313 -12 q 152 290 152 146 l 152 533 q 151 652 152 612 q 149 709 149 693 q 146 730 148 726 l 64 750 l 68 796 m 519 868 l 408 1029 l 496 1048 l 557 883 l 519 868 m 362 868 l 250 1029 l 338 1048 l 400 883 l 362 868 z "},"Ü":{"ha":888,"x_min":64,"x_max":823,"o":"m 68 796 l 334 796 l 338 750 l 255 730 q 254 711 255 727 q 252 654 252 694 q 251 533 251 613 l 251 305 q 280 166 252 218 q 356 90 308 114 q 465 66 404 66 q 570 91 525 66 q 640 170 614 115 q 666 316 666 225 l 666 509 q 665 612 666 567 q 663 688 665 658 q 659 730 662 719 l 564 750 l 567 796 l 819 796 l 823 750 l 742 730 q 741 707 742 726 q 739 643 739 689 q 738 509 738 597 l 738 313 q 701 126 738 198 q 599 21 663 54 q 456 -12 534 -12 q 233 67 313 -12 q 152 290 152 146 l 152 533 q 151 652 152 612 q 149 709 149 693 q 146 730 148 726 l 64 750 l 68 796 m 331 902 q 287 919 305 902 q 269 963 269 936 q 287 1007 269 990 q 331 1024 305 1024 q 374 1007 357 1024 q 392 963 392 990 q 374 919 392 936 q 331 902 357 902 m 591 902 q 547 919 566 902 q 528 963 528 936 q 547 1007 528 990 q 591 1024 566 1024 q 634 1007 617 1024 q 651 963 651 990 q 634 919 651 936 q 591 902 617 902 z "},"Ụ":{"ha":888,"x_min":64,"x_max":823,"o":"m 68 796 l 334 796 l 338 750 l 255 730 q 254 711 255 727 q 252 654 252 694 q 251 533 251 613 l 251 305 q 280 166 252 218 q 356 90 308 114 q 465 66 404 66 q 570 91 525 66 q 640 170 614 115 q 666 316 666 225 l 666 509 q 665 612 666 567 q 663 688 665 658 q 659 730 662 719 l 564 750 l 567 796 l 819 796 l 823 750 l 742 730 q 741 707 742 726 q 739 643 739 689 q 738 509 738 597 l 738 313 q 701 126 738 198 q 599 21 663 54 q 456 -12 534 -12 q 233 67 313 -12 q 152 290 152 146 l 152 533 q 151 652 152 612 q 149 709 149 693 q 146 730 148 726 l 64 750 l 68 796 m 460 -266 q 414 -249 434 -266 q 395 -205 395 -232 q 414 -160 395 -178 q 460 -142 434 -142 q 504 -160 486 -142 q 522 -205 522 -178 q 504 -249 522 -232 q 460 -266 486 -266 z "},"Ù":{"ha":888,"x_min":64,"x_max":823,"o":"m 68 796 l 334 796 l 338 750 l 255 730 q 254 711 255 727 q 252 654 252 694 q 251 533 251 613 l 251 305 q 280 166 252 218 q 356 90 308 114 q 465 66 404 66 q 570 91 525 66 q 640 170 614 115 q 666 316 666 225 l 666 509 q 665 612 666 567 q 663 688 665 658 q 659 730 662 719 l 564 750 l 567 796 l 819 796 l 823 750 l 742 730 q 741 707 742 726 q 739 643 739 689 q 738 509 738 597 l 738 313 q 701 126 738 198 q 599 21 663 54 q 456 -12 534 -12 q 233 67 313 -12 q 152 290 152 146 l 152 533 q 151 652 152 612 q 149 709 149 693 q 146 730 148 726 l 64 750 l 68 796 m 435 869 l 302 1032 l 396 1063 l 484 887 l 435 869 z "},"Ủ":{"ha":888,"x_min":64,"x_max":823,"o":"m 68 796 l 334 796 l 338 750 l 255 730 q 254 711 255 727 q 252 654 252 694 q 251 533 251 613 l 251 305 q 280 166 252 218 q 356 90 308 114 q 465 66 404 66 q 570 91 525 66 q 640 170 614 115 q 666 316 666 225 l 666 509 q 665 612 666 567 q 663 688 665 658 q 659 730 662 719 l 564 750 l 567 796 l 819 796 l 823 750 l 742 730 q 741 707 742 726 q 739 643 739 689 q 738 509 738 597 l 738 313 q 701 126 738 198 q 599 21 663 54 q 456 -12 534 -12 q 233 67 313 -12 q 152 290 152 146 l 152 533 q 151 652 152 612 q 149 709 149 693 q 146 730 148 726 l 64 750 l 68 796 m 465 1122 q 552 1099 518 1122 q 586 1038 586 1077 q 570 987 586 1004 q 533 958 553 970 q 496 930 513 947 q 480 883 480 914 l 441 883 l 441 906 q 456 967 441 944 q 488 1007 472 990 q 503 1042 503 1024 q 479 1084 503 1078 q 425 1084 454 1090 l 471 1093 l 426 1050 q 400 1029 408 1035 q 376 1023 392 1023 q 353 1032 362 1023 q 343 1055 343 1042 q 376 1101 343 1081 q 465 1122 410 1122 z "},"Ư":{"ha":888,"x_min":64,"x_max":935,"o":"m 456 -12 q 233 68 313 -12 q 152 290 152 148 l 152 533 q 151 652 152 612 q 149 709 149 693 q 146 730 148 726 l 64 750 l 68 796 l 334 796 l 336 750 l 255 730 q 254 710 255 727 q 252 652 252 693 q 251 533 251 612 l 251 305 q 465 66 254 66 q 666 316 666 66 l 666 509 q 665 615 666 570 q 663 690 665 661 q 659 730 662 719 l 564 750 l 567 796 l 699 796 q 772 804 747 796 q 808 833 798 811 q 819 897 818 854 l 822 963 q 904 952 873 974 q 935 886 935 930 q 878 779 935 822 q 734 732 822 736 l 746 757 q 739 648 741 704 q 738 509 738 591 l 738 313 q 705 138 738 210 q 610 26 673 65 q 456 -12 547 -12 z "},"Ứ":{"ha":888,"x_min":64,"x_max":935,"o":"m 456 -12 q 233 68 313 -12 q 152 290 152 148 l 152 533 q 151 652 152 612 q 149 709 149 693 q 146 730 148 726 l 64 750 l 68 796 l 334 796 l 336 750 l 255 730 q 254 710 255 727 q 252 652 252 693 q 251 533 251 612 l 251 305 q 465 66 254 66 q 666 316 666 66 l 666 509 q 665 615 666 570 q 663 690 665 661 q 659 730 662 719 l 564 750 l 567 796 l 699 796 q 772 804 747 796 q 808 833 798 811 q 819 897 818 854 l 822 963 q 904 952 873 974 q 935 886 935 930 q 878 779 935 822 q 734 732 822 736 l 746 757 q 739 648 741 704 q 738 509 738 591 l 738 313 q 705 138 738 210 q 610 26 673 65 q 456 -12 547 -12 m 484 869 l 435 887 l 524 1063 l 617 1032 l 484 869 z "},"Ự":{"ha":888,"x_min":64,"x_max":935,"o":"m 456 -12 q 233 68 313 -12 q 152 290 152 148 l 152 533 q 151 652 152 612 q 149 709 149 693 q 146 730 148 726 l 64 750 l 68 796 l 334 796 l 336 750 l 255 730 q 254 710 255 727 q 252 652 252 693 q 251 533 251 612 l 251 305 q 465 66 254 66 q 666 316 666 66 l 666 509 q 665 615 666 570 q 663 690 665 661 q 659 730 662 719 l 564 750 l 567 796 l 699 796 q 772 804 747 796 q 808 833 798 811 q 819 897 818 854 l 822 963 q 904 952 873 974 q 935 886 935 930 q 878 779 935 822 q 734 732 822 736 l 746 757 q 739 648 741 704 q 738 509 738 591 l 738 313 q 705 138 738 210 q 610 26 673 65 q 456 -12 547 -12 m 460 -266 q 414 -249 434 -266 q 395 -205 395 -232 q 414 -160 395 -178 q 460 -142 434 -142 q 504 -160 486 -142 q 522 -205 522 -178 q 504 -249 522 -232 q 460 -266 486 -266 z "},"Ừ":{"ha":888,"x_min":64,"x_max":935,"o":"m 456 -12 q 233 68 313 -12 q 152 290 152 148 l 152 533 q 151 652 152 612 q 149 709 149 693 q 146 730 148 726 l 64 750 l 68 796 l 334 796 l 336 750 l 255 730 q 254 710 255 727 q 252 652 252 693 q 251 533 251 612 l 251 305 q 465 66 254 66 q 666 316 666 66 l 666 509 q 665 615 666 570 q 663 690 665 661 q 659 730 662 719 l 564 750 l 567 796 l 699 796 q 772 804 747 796 q 808 833 798 811 q 819 897 818 854 l 822 963 q 904 952 873 974 q 935 886 935 930 q 878 779 935 822 q 734 732 822 736 l 746 757 q 739 648 741 704 q 738 509 738 591 l 738 313 q 705 138 738 210 q 610 26 673 65 q 456 -12 547 -12 m 435 869 l 302 1032 l 396 1063 l 484 887 l 435 869 z "},"Ử":{"ha":888,"x_min":64,"x_max":935,"o":"m 456 -12 q 233 68 313 -12 q 152 290 152 148 l 152 533 q 151 652 152 612 q 149 709 149 693 q 146 730 148 726 l 64 750 l 68 796 l 334 796 l 336 750 l 255 730 q 254 710 255 727 q 252 652 252 693 q 251 533 251 612 l 251 305 q 465 66 254 66 q 666 316 666 66 l 666 509 q 665 615 666 570 q 663 690 665 661 q 659 730 662 719 l 564 750 l 567 796 l 699 796 q 772 804 747 796 q 808 833 798 811 q 819 897 818 854 l 822 963 q 904 952 873 974 q 935 886 935 930 q 878 779 935 822 q 734 732 822 736 l 746 757 q 739 648 741 704 q 738 509 738 591 l 738 313 q 705 138 738 210 q 610 26 673 65 q 456 -12 547 -12 m 465 1122 q 552 1099 518 1122 q 586 1038 586 1077 q 570 987 586 1004 q 533 958 553 970 q 496 930 513 947 q 480 883 480 914 l 441 883 l 441 906 q 456 967 441 944 q 488 1007 472 990 q 503 1042 503 1024 q 479 1084 503 1078 q 425 1084 454 1090 l 471 1093 l 426 1050 q 400 1029 408 1035 q 376 1023 392 1023 q 353 1032 362 1023 q 343 1055 343 1042 q 376 1101 343 1081 q 465 1122 410 1122 z "},"Ữ":{"ha":888,"x_min":64,"x_max":935,"o":"m 456 -12 q 233 68 313 -12 q 152 290 152 148 l 152 533 q 151 652 152 612 q 149 709 149 693 q 146 730 148 726 l 64 750 l 68 796 l 334 796 l 336 750 l 255 730 q 254 710 255 727 q 252 652 252 693 q 251 533 251 612 l 251 305 q 465 66 254 66 q 666 316 666 66 l 666 509 q 665 615 666 570 q 663 690 665 661 q 659 730 662 719 l 564 750 l 567 796 l 699 796 q 772 804 747 796 q 808 833 798 811 q 819 897 818 854 l 822 963 q 904 952 873 974 q 935 886 935 930 q 878 779 935 822 q 734 732 822 736 l 746 757 q 739 648 741 704 q 738 509 738 591 l 738 313 q 705 138 738 210 q 610 26 673 65 q 456 -12 547 -12 m 686 1029 l 726 1009 q 661 916 703 951 q 567 882 620 882 q 486 901 526 882 q 407 941 445 921 q 334 960 369 960 q 275 942 297 960 q 233 892 254 924 l 194 913 q 259 1005 217 971 q 353 1039 301 1039 q 435 1020 395 1039 q 513 981 475 1001 q 589 962 552 962 q 644 981 623 962 q 686 1029 666 1000 z "},"Ű":{"ha":888,"x_min":64,"x_max":823,"o":"m 68 796 l 334 796 l 338 750 l 255 730 q 254 711 255 727 q 252 654 252 694 q 251 533 251 613 l 251 305 q 280 166 252 218 q 356 90 308 114 q 465 66 404 66 q 570 91 525 66 q 640 170 614 115 q 666 316 666 225 l 666 509 q 665 612 666 567 q 663 688 665 658 q 659 730 662 719 l 564 750 l 567 796 l 819 796 l 823 750 l 742 730 q 741 707 742 726 q 739 643 739 689 q 738 509 738 597 l 738 313 q 701 126 738 198 q 599 21 663 54 q 456 -12 534 -12 q 233 67 313 -12 q 152 290 152 146 l 152 533 q 151 652 152 612 q 149 709 149 693 q 146 730 148 726 l 64 750 l 68 796 m 557 868 l 519 883 l 582 1048 l 670 1029 l 557 868 m 400 868 l 362 883 l 423 1048 l 511 1029 l 400 868 z "},"Ȗ":{"ha":888,"x_min":64,"x_max":823,"o":"m 68 796 l 334 796 l 338 750 l 255 730 q 254 711 255 727 q 252 654 252 694 q 251 533 251 613 l 251 305 q 280 166 252 218 q 356 90 308 114 q 465 66 404 66 q 570 91 525 66 q 640 170 614 115 q 666 316 666 225 l 666 509 q 665 612 666 567 q 663 688 665 658 q 659 730 662 719 l 564 750 l 567 796 l 819 796 l 823 750 l 742 730 q 741 707 742 726 q 739 643 739 689 q 738 509 738 597 l 738 313 q 701 126 738 198 q 599 21 663 54 q 456 -12 534 -12 q 233 67 313 -12 q 152 290 152 146 l 152 533 q 151 652 152 612 q 149 709 149 693 q 146 730 148 726 l 64 750 l 68 796 m 288 868 l 243 884 q 314 1004 256 962 q 458 1047 372 1047 q 604 1004 544 1047 q 677 884 663 962 l 627 868 q 570 943 614 916 q 458 971 526 971 q 343 943 388 971 q 288 868 298 916 z "},"Ū":{"ha":888,"x_min":64,"x_max":823,"o":"m 68 796 l 334 796 l 338 750 l 255 730 q 254 711 255 727 q 252 654 252 694 q 251 533 251 613 l 251 305 q 280 166 252 218 q 356 90 308 114 q 465 66 404 66 q 570 91 525 66 q 640 170 614 115 q 666 316 666 225 l 666 509 q 665 612 666 567 q 663 688 665 658 q 659 730 662 719 l 564 750 l 567 796 l 819 796 l 823 750 l 742 730 q 741 707 742 726 q 739 643 739 689 q 738 509 738 597 l 738 313 q 701 126 738 198 q 599 21 663 54 q 456 -12 534 -12 q 233 67 313 -12 q 152 290 152 146 l 152 533 q 151 652 152 612 q 149 709 149 693 q 146 730 148 726 l 64 750 l 68 796 m 270 996 l 650 996 l 650 926 l 270 926 l 270 996 z "},"Ṻ":{"ha":888,"x_min":64,"x_max":823,"o":"m 68 796 l 334 796 l 338 750 l 255 730 q 254 711 255 727 q 252 654 252 694 q 251 533 251 613 l 251 305 q 280 166 252 218 q 356 90 308 114 q 465 66 404 66 q 570 91 525 66 q 640 170 614 115 q 666 316 666 225 l 666 509 q 665 612 666 567 q 663 688 665 658 q 659 730 662 719 l 564 750 l 567 796 l 819 796 l 823 750 l 742 730 q 741 707 742 726 q 739 643 739 689 q 738 509 738 597 l 738 313 q 701 126 738 198 q 599 21 663 54 q 456 -12 534 -12 q 233 67 313 -12 q 152 290 152 146 l 152 533 q 151 652 152 612 q 149 709 149 693 q 146 730 148 726 l 64 750 l 68 796 m 245 936 l 245 1005 l 674 1005 l 674 936 l 245 936 m 331 1225 q 374 1208 357 1225 q 392 1164 392 1192 q 374 1120 392 1137 q 331 1103 357 1103 q 287 1120 305 1103 q 269 1164 269 1137 q 287 1208 269 1192 q 331 1225 305 1225 m 591 1225 q 634 1208 617 1225 q 651 1164 651 1192 q 634 1120 651 1137 q 591 1103 617 1103 q 547 1120 566 1103 q 528 1164 528 1137 q 547 1208 528 1192 q 591 1225 566 1225 z "},"Ų":{"ha":888,"x_min":64,"x_max":825,"o":"m 821 796 l 825 750 l 742 730 q 741 696 742 726 q 739 619 739 667 q 738 509 738 571 l 738 313 q 697 123 738 201 q 579 12 656 45 q 471 -65 513 -15 q 429 -168 429 -115 q 450 -229 429 -206 q 510 -251 472 -251 q 602 -203 555 -251 l 631 -235 q 492 -302 574 -302 q 415 -287 449 -302 q 363 -244 381 -271 q 345 -183 345 -217 q 393 -68 345 -121 q 534 22 441 -16 l 495 -12 l 456 -12 q 233 68 313 -12 q 152 290 152 148 l 152 533 q 151 652 152 612 q 149 709 149 693 q 146 730 148 726 l 64 750 l 68 796 l 334 796 l 338 750 l 255 730 q 254 711 255 727 q 252 654 252 694 q 251 533 251 613 l 251 305 q 465 66 254 66 q 666 316 666 66 l 666 509 q 665 610 666 564 q 663 688 665 656 q 659 730 662 719 l 564 750 l 567 796 l 821 796 z "},"Ů":{"ha":888,"x_min":64,"x_max":823,"o":"m 68 796 l 334 796 l 338 750 l 255 730 q 254 711 255 727 q 252 654 252 694 q 251 533 251 613 l 251 305 q 280 166 252 218 q 356 90 308 114 q 465 66 404 66 q 570 91 525 66 q 640 170 614 115 q 666 316 666 225 l 666 509 q 665 612 666 567 q 663 688 665 658 q 659 730 662 719 l 564 750 l 567 796 l 819 796 l 823 750 l 742 730 q 741 707 742 726 q 739 643 739 689 q 738 509 738 597 l 738 313 q 701 126 738 198 q 599 21 663 54 q 456 -12 534 -12 q 233 67 313 -12 q 152 290 152 146 l 152 533 q 151 652 152 612 q 149 709 149 693 q 146 730 148 726 l 64 750 l 68 796 m 461 878 q 368 913 406 878 q 330 1002 330 949 q 368 1092 330 1055 q 461 1128 406 1128 q 553 1093 517 1128 q 590 1002 590 1057 q 553 913 590 949 q 461 878 515 878 m 463 918 q 520 942 498 918 q 543 1004 543 966 q 520 1067 543 1043 q 463 1090 498 1090 q 404 1067 427 1090 q 380 1004 380 1043 q 404 943 380 968 q 463 918 427 918 z "},"Ũ":{"ha":888,"x_min":64,"x_max":823,"o":"m 68 796 l 334 796 l 338 750 l 255 730 q 254 711 255 727 q 252 654 252 694 q 251 533 251 613 l 251 305 q 280 166 252 218 q 356 90 308 114 q 465 66 404 66 q 570 91 525 66 q 640 170 614 115 q 666 316 666 225 l 666 509 q 665 612 666 567 q 663 688 665 658 q 659 730 662 719 l 564 750 l 567 796 l 819 796 l 823 750 l 742 730 q 741 707 742 726 q 739 643 739 689 q 738 509 738 597 l 738 313 q 701 126 738 198 q 599 21 663 54 q 456 -12 534 -12 q 233 67 313 -12 q 152 290 152 146 l 152 533 q 151 652 152 612 q 149 709 149 693 q 146 730 148 726 l 64 750 l 68 796 m 686 1029 l 726 1009 q 661 916 703 951 q 567 882 620 882 q 486 901 526 882 q 407 941 445 921 q 334 960 369 960 q 275 942 297 960 q 233 892 254 924 l 194 913 q 259 1005 217 971 q 353 1039 301 1039 q 435 1020 395 1039 q 513 981 475 1001 q 589 962 552 962 q 644 981 623 962 q 686 1029 666 1000 z "},"Ṹ":{"ha":888,"x_min":64,"x_max":823,"o":"m 68 796 l 334 796 l 338 750 l 255 730 q 254 711 255 727 q 252 654 252 694 q 251 533 251 613 l 251 305 q 280 166 252 218 q 356 90 308 114 q 465 66 404 66 q 570 91 525 66 q 640 170 614 115 q 666 316 666 225 l 666 509 q 665 612 666 567 q 663 688 665 658 q 659 730 662 719 l 564 750 l 567 796 l 819 796 l 823 750 l 742 730 q 741 707 742 726 q 739 643 739 689 q 738 509 738 597 l 738 313 q 701 126 738 198 q 599 21 663 54 q 456 -12 534 -12 q 233 67 313 -12 q 152 290 152 146 l 152 533 q 151 652 152 612 q 149 709 149 693 q 146 730 148 726 l 64 750 l 68 796 m 483 1040 l 437 1055 l 526 1225 l 621 1194 l 483 1040 m 552 875 q 484 890 518 875 q 418 922 450 906 q 357 937 387 937 q 309 921 327 937 q 275 875 292 905 l 233 897 q 287 986 252 952 q 365 1020 321 1020 q 433 1005 399 1020 q 498 975 467 990 q 560 959 530 959 q 606 975 589 959 q 640 1021 624 991 l 684 998 q 629 908 663 941 q 552 875 595 875 z "},"V":{"ha":785,"x_min":5,"x_max":780,"o":"m 365 -4 l 73 731 l 5 749 l 8 796 l 269 796 l 271 750 l 189 731 l 425 122 l 406 122 l 628 731 l 533 750 l 536 796 l 777 796 l 780 749 l 712 731 l 416 -4 l 365 -4 z "},"W":{"ha":1264,"x_min":14,"x_max":1255,"o":"m 658 614 l 412 -4 l 358 -4 l 81 731 l 14 750 l 16 796 l 259 796 l 262 750 l 194 732 l 418 122 l 401 122 l 624 720 l 658 614 m 844 -4 l 572 731 l 505 750 l 507 796 l 761 796 l 764 750 l 682 732 l 902 122 l 883 122 l 1101 731 l 1006 750 l 1009 796 l 1252 796 l 1255 750 l 1187 731 l 898 -4 l 844 -4 z "},"Ẃ":{"ha":1264,"x_min":14,"x_max":1255,"o":"m 658 614 l 412 -4 l 358 -4 l 81 731 l 14 750 l 16 796 l 259 796 l 262 750 l 194 732 l 418 122 l 401 122 l 624 720 l 658 614 m 844 -4 l 572 731 l 505 750 l 507 796 l 761 796 l 764 750 l 682 732 l 902 122 l 883 122 l 1101 731 l 1006 750 l 1009 796 l 1252 796 l 1255 750 l 1187 731 l 898 -4 l 844 -4 m 656 869 l 608 887 l 696 1063 l 789 1032 l 656 869 z "},"Ŵ":{"ha":1264,"x_min":14,"x_max":1255,"o":"m 658 614 l 412 -4 l 358 -4 l 81 731 l 14 750 l 16 796 l 259 796 l 262 750 l 194 732 l 418 122 l 401 122 l 624 720 l 658 614 m 844 -4 l 572 731 l 505 750 l 507 796 l 761 796 l 764 750 l 682 732 l 902 122 l 883 122 l 1101 731 l 1006 750 l 1009 796 l 1252 796 l 1255 750 l 1187 731 l 898 -4 l 844 -4 m 854 898 l 812 868 l 591 994 l 673 994 l 452 868 l 410 898 l 589 1044 l 675 1044 l 854 898 z "},"Ẅ":{"ha":1264,"x_min":14,"x_max":1255,"o":"m 658 614 l 412 -4 l 358 -4 l 81 731 l 14 750 l 16 796 l 259 796 l 262 750 l 194 732 l 418 122 l 401 122 l 624 720 l 658 614 m 844 -4 l 572 731 l 505 750 l 507 796 l 761 796 l 764 750 l 682 732 l 902 122 l 883 122 l 1101 731 l 1006 750 l 1009 796 l 1252 796 l 1255 750 l 1187 731 l 898 -4 l 844 -4 m 503 902 q 459 919 477 902 q 441 963 441 936 q 459 1007 441 990 q 503 1024 477 1024 q 547 1007 529 1024 q 564 963 564 990 q 547 919 564 936 q 503 902 529 902 m 764 902 q 719 919 738 902 q 700 963 700 936 q 719 1007 700 990 q 764 1024 738 1024 q 806 1007 789 1024 q 823 963 823 990 q 806 919 823 936 q 764 902 789 902 z "},"Ẁ":{"ha":1264,"x_min":14,"x_max":1255,"o":"m 658 614 l 412 -4 l 358 -4 l 81 731 l 14 750 l 16 796 l 259 796 l 262 750 l 194 732 l 418 122 l 401 122 l 624 720 l 658 614 m 844 -4 l 572 731 l 505 750 l 507 796 l 761 796 l 764 750 l 682 732 l 902 122 l 883 122 l 1101 731 l 1006 750 l 1009 796 l 1252 796 l 1255 750 l 1187 731 l 898 -4 l 844 -4 m 608 869 l 475 1032 l 568 1063 l 656 887 l 608 869 z "},"X":{"ha":781,"x_min":20,"x_max":774,"o":"m 772 0 l 500 0 l 498 46 l 579 68 l 376 351 l 336 403 l 98 731 l 28 750 l 31 796 l 311 796 l 313 750 l 227 731 l 400 488 l 438 435 l 707 68 l 774 46 l 772 0 m 575 731 l 472 750 l 476 796 l 726 796 l 728 750 l 659 731 l 438 435 l 376 351 l 172 68 l 270 46 l 266 0 l 22 0 l 20 46 l 90 68 l 336 403 l 400 488 l 575 731 z "},"Y":{"ha":719,"x_min":-1,"x_max":723,"o":"m 655 731 l 380 309 l 407 388 l 407 262 q 408 167 407 203 q 409 109 408 130 q 410 79 410 88 q 411 65 411 69 l 506 47 l 503 0 l 214 0 l 210 47 l 305 65 q 308 79 307 69 q 310 109 309 88 q 311 167 311 130 q 312 262 312 203 l 312 388 l 334 309 l 66 731 l -1 750 l 0 796 l 260 796 l 263 750 l 182 731 l 389 404 l 374 404 l 571 731 l 476 750 l 479 796 l 720 796 l 723 750 l 655 731 z "},"Ý":{"ha":719,"x_min":-1,"x_max":723,"o":"m 655 731 l 380 309 l 407 388 l 407 262 q 408 167 407 203 q 409 109 408 130 q 410 79 410 88 q 411 65 411 69 l 506 47 l 503 0 l 214 0 l 210 47 l 305 65 q 308 79 307 69 q 310 109 309 88 q 311 167 311 130 q 312 262 312 203 l 312 388 l 334 309 l 66 731 l -1 750 l 0 796 l 260 796 l 263 750 l 182 731 l 389 404 l 374 404 l 571 731 l 476 750 l 479 796 l 720 796 l 723 750 l 655 731 m 384 869 l 335 887 l 423 1063 l 517 1032 l 384 869 z "},"Ŷ":{"ha":719,"x_min":-1,"x_max":723,"o":"m 655 731 l 380 309 l 407 388 l 407 262 q 408 167 407 203 q 409 109 408 130 q 410 79 410 88 q 411 65 411 69 l 506 47 l 503 0 l 214 0 l 210 47 l 305 65 q 308 79 307 69 q 310 109 309 88 q 311 167 311 130 q 312 262 312 203 l 312 388 l 334 309 l 66 731 l -1 750 l 0 796 l 260 796 l 263 750 l 182 731 l 389 404 l 374 404 l 571 731 l 476 750 l 479 796 l 720 796 l 723 750 l 655 731 m 582 898 l 540 868 l 319 994 l 400 994 l 179 868 l 137 898 l 316 1044 l 403 1044 l 582 898 z "},"Ÿ":{"ha":719,"x_min":-1,"x_max":723,"o":"m 655 731 l 380 309 l 407 388 l 407 262 q 408 167 407 203 q 409 109 408 130 q 410 79 410 88 q 411 65 411 69 l 506 47 l 503 0 l 214 0 l 210 47 l 305 65 q 308 79 307 69 q 310 109 309 88 q 311 167 311 130 q 312 262 312 203 l 312 388 l 334 309 l 66 731 l -1 750 l 0 796 l 260 796 l 263 750 l 182 731 l 389 404 l 374 404 l 571 731 l 476 750 l 479 796 l 720 796 l 723 750 l 655 731 m 231 902 q 186 919 205 902 q 168 963 168 936 q 186 1007 168 990 q 231 1024 205 1024 q 274 1007 256 1024 q 292 963 292 990 q 274 919 292 936 q 231 902 256 902 m 491 902 q 446 919 465 902 q 427 963 427 936 q 446 1007 427 990 q 491 1024 465 1024 q 534 1007 517 1024 q 551 963 551 990 q 534 919 551 936 q 491 902 517 902 z "},"Ẏ":{"ha":719,"x_min":-1,"x_max":723,"o":"m 655 731 l 380 309 l 407 388 l 407 262 q 408 167 407 203 q 409 109 408 130 q 410 79 410 88 q 411 65 411 69 l 506 47 l 503 0 l 214 0 l 210 47 l 305 65 q 308 79 307 69 q 310 109 309 88 q 311 167 311 130 q 312 262 312 203 l 312 388 l 334 309 l 66 731 l -1 750 l 0 796 l 260 796 l 263 750 l 182 731 l 389 404 l 374 404 l 571 731 l 476 750 l 479 796 l 720 796 l 723 750 l 655 731 m 361 901 q 315 918 335 901 q 296 963 296 936 q 315 1007 296 989 q 361 1025 335 1025 q 405 1007 387 1025 q 423 963 423 989 q 405 918 423 936 q 361 901 387 901 z "},"Ỵ":{"ha":719,"x_min":-1,"x_max":723,"o":"m 655 731 l 380 309 l 407 388 l 407 262 q 408 167 407 203 q 409 109 408 130 q 410 79 410 88 q 411 65 411 69 l 506 47 l 503 0 l 214 0 l 210 47 l 305 65 q 308 79 307 69 q 310 109 309 88 q 311 167 311 130 q 312 262 312 203 l 312 388 l 334 309 l 66 731 l -1 750 l 0 796 l 260 796 l 263 750 l 182 731 l 389 404 l 374 404 l 571 731 l 476 750 l 479 796 l 720 796 l 723 750 l 655 731 m 361 -266 q 315 -249 335 -266 q 296 -205 296 -232 q 315 -160 296 -178 q 361 -142 335 -142 q 405 -160 387 -142 q 423 -205 423 -178 q 405 -249 423 -232 q 361 -266 387 -266 z "},"Ỳ":{"ha":719,"x_min":-1,"x_max":723,"o":"m 655 731 l 380 309 l 407 388 l 407 262 q 408 167 407 203 q 409 109 408 130 q 410 79 410 88 q 411 65 411 69 l 506 47 l 503 0 l 214 0 l 210 47 l 305 65 q 308 79 307 69 q 310 109 309 88 q 311 167 311 130 q 312 262 312 203 l 312 388 l 334 309 l 66 731 l -1 750 l 0 796 l 260 796 l 263 750 l 182 731 l 389 404 l 374 404 l 571 731 l 476 750 l 479 796 l 720 796 l 723 750 l 655 731 m 335 869 l 202 1032 l 296 1063 l 384 887 l 335 869 z "},"Ỷ":{"ha":719,"x_min":-1,"x_max":723,"o":"m 655 731 l 380 309 l 407 388 l 407 262 q 408 167 407 203 q 409 109 408 130 q 410 79 410 88 q 411 65 411 69 l 506 47 l 503 0 l 214 0 l 210 47 l 305 65 q 308 79 307 69 q 310 109 309 88 q 311 167 311 130 q 312 262 312 203 l 312 388 l 334 309 l 66 731 l -1 750 l 0 796 l 260 796 l 263 750 l 182 731 l 389 404 l 374 404 l 571 731 l 476 750 l 479 796 l 720 796 l 723 750 l 655 731 m 365 1122 q 452 1099 418 1122 q 486 1038 486 1077 q 469 987 486 1004 q 433 958 453 970 q 396 930 412 947 q 380 883 380 914 l 340 883 l 340 906 q 356 967 340 944 q 387 1007 372 990 q 403 1042 403 1024 q 378 1084 403 1078 q 324 1084 354 1090 l 370 1093 l 326 1050 q 300 1029 308 1035 q 275 1023 292 1023 q 252 1032 262 1023 q 243 1055 243 1042 q 276 1101 243 1081 q 365 1122 309 1122 z "},"Ȳ":{"ha":719,"x_min":-1,"x_max":723,"o":"m 655 731 l 380 309 l 407 388 l 407 262 q 408 167 407 203 q 409 109 408 130 q 410 79 410 88 q 411 65 411 69 l 506 47 l 503 0 l 214 0 l 210 47 l 305 65 q 308 79 307 69 q 310 109 309 88 q 311 167 311 130 q 312 262 312 203 l 312 388 l 334 309 l 66 731 l -1 750 l 0 796 l 260 796 l 263 750 l 182 731 l 389 404 l 374 404 l 571 731 l 476 750 l 479 796 l 720 796 l 723 750 l 655 731 m 170 996 l 549 996 l 549 926 l 170 926 l 170 996 z "},"Ỹ":{"ha":719,"x_min":-1,"x_max":723,"o":"m 655 731 l 380 309 l 407 388 l 407 262 q 408 167 407 203 q 409 109 408 130 q 410 79 410 88 q 411 65 411 69 l 506 47 l 503 0 l 214 0 l 210 47 l 305 65 q 308 79 307 69 q 310 109 309 88 q 311 167 311 130 q 312 262 312 203 l 312 388 l 334 309 l 66 731 l -1 750 l 0 796 l 260 796 l 263 750 l 182 731 l 389 404 l 374 404 l 571 731 l 476 750 l 479 796 l 720 796 l 723 750 l 655 731 m 586 1029 l 625 1009 q 561 916 602 951 q 467 882 519 882 q 385 901 426 882 q 307 941 345 921 q 233 960 269 960 q 175 942 197 960 q 133 892 153 924 l 94 913 q 159 1005 117 971 q 252 1039 201 1039 q 334 1020 294 1039 q 413 981 374 1001 q 488 962 452 962 q 544 981 522 962 q 586 1029 566 1000 z "},"Z":{"ha":718,"x_min":69,"x_max":682,"o":"m 652 -5 q 610 -2 629 -3 q 573 -1 591 -1 q 534 0 555 0 l 186 0 q 138 -1 160 0 q 92 -3 117 -1 l 92 41 l 541 776 l 545 735 l 220 735 q 174 734 194 735 q 137 731 155 734 l 121 594 l 71 594 l 69 798 q 125 796 99 796 q 176 796 151 796 l 544 796 q 595 797 570 796 q 646 799 620 798 l 646 757 l 197 20 l 197 64 l 528 64 q 553 65 541 64 q 575 69 566 66 l 633 217 l 682 213 l 652 -5 z "},"Ź":{"ha":718,"x_min":69,"x_max":682,"o":"m 652 -5 q 610 -2 629 -3 q 573 -1 591 -1 q 534 0 555 0 l 186 0 q 138 -1 160 0 q 92 -3 117 -1 l 92 41 l 541 776 l 545 735 l 220 735 q 174 734 194 735 q 137 731 155 734 l 121 594 l 71 594 l 69 798 q 125 796 99 796 q 176 796 151 796 l 544 796 q 595 797 570 796 q 646 799 620 798 l 646 757 l 197 20 l 197 64 l 528 64 q 553 65 541 64 q 575 69 566 66 l 633 217 l 682 213 l 652 -5 m 385 869 l 336 887 l 425 1063 l 518 1032 l 385 869 z "},"Ž":{"ha":718,"x_min":69,"x_max":682,"o":"m 652 -5 q 610 -2 629 -3 q 573 -1 591 -1 q 534 0 555 0 l 186 0 q 138 -1 160 0 q 92 -3 117 -1 l 92 41 l 541 776 l 545 735 l 220 735 q 174 734 194 735 q 137 731 155 734 l 121 594 l 71 594 l 69 798 q 125 796 99 796 q 176 796 151 796 l 544 796 q 595 797 570 796 q 646 799 620 798 l 646 757 l 197 20 l 197 64 l 528 64 q 553 65 541 64 q 575 69 566 66 l 633 217 l 682 213 l 652 -5 m 138 1025 l 180 1055 l 401 929 l 320 929 l 541 1055 l 583 1025 l 404 878 l 317 878 l 138 1025 z "},"Ż":{"ha":718,"x_min":69,"x_max":682,"o":"m 652 -5 q 610 -2 629 -3 q 573 -1 591 -1 q 534 0 555 0 l 186 0 q 138 -1 160 0 q 92 -3 117 -1 l 92 41 l 541 776 l 545 735 l 220 735 q 174 734 194 735 q 137 731 155 734 l 121 594 l 71 594 l 69 798 q 125 796 99 796 q 176 796 151 796 l 544 796 q 595 797 570 796 q 646 799 620 798 l 646 757 l 197 20 l 197 64 l 528 64 q 553 65 541 64 q 575 69 566 66 l 633 217 l 682 213 l 652 -5 m 362 901 q 317 918 336 901 q 297 963 297 936 q 317 1007 297 989 q 362 1025 336 1025 q 406 1007 388 1025 q 425 963 425 989 q 406 918 425 936 q 362 901 388 901 z "},"Ẓ":{"ha":718,"x_min":69,"x_max":682,"o":"m 652 -5 q 610 -2 629 -3 q 573 -1 591 -1 q 534 0 555 0 l 186 0 q 138 -1 160 0 q 92 -3 117 -1 l 92 41 l 541 776 l 545 735 l 220 735 q 174 734 194 735 q 137 731 155 734 l 121 594 l 71 594 l 69 798 q 125 796 99 796 q 176 796 151 796 l 544 796 q 595 797 570 796 q 646 799 620 798 l 646 757 l 197 20 l 197 64 l 528 64 q 553 65 541 64 q 575 69 566 66 l 633 217 l 682 213 l 652 -5 m 362 -266 q 317 -249 336 -266 q 297 -205 297 -232 q 317 -160 297 -178 q 362 -142 336 -142 q 406 -160 388 -142 q 425 -205 425 -178 q 406 -249 425 -232 q 362 -266 388 -266 z "},"a":{"ha":636,"x_min":88,"x_max":601,"o":"m 271 -11 q 178 9 220 -11 q 113 62 137 30 q 88 132 88 95 q 118 205 88 176 q 217 258 148 235 l 422 328 l 422 403 q 401 468 422 439 q 345 513 380 496 q 264 529 309 529 q 215 514 228 529 q 199 453 202 499 l 197 404 q 123 406 153 392 q 92 450 92 420 q 111 494 92 471 q 159 536 129 517 q 224 570 189 556 q 298 590 260 585 q 450 538 392 590 q 510 403 509 487 l 507 164 q 509 116 507 142 q 515 79 511 90 l 601 62 l 601 26 l 540 4 q 508 -7 522 -3 q 484 -11 494 -11 q 435 34 445 -11 l 423 84 l 442 87 q 355 13 396 37 q 271 -11 313 -11 m 297 57 q 364 73 334 57 q 422 123 395 90 l 422 270 l 252 221 q 205 195 220 213 q 191 148 191 176 q 224 85 191 114 q 297 57 256 57 z "},"á":{"ha":636,"x_min":88,"x_max":601,"o":"m 271 -11 q 178 9 220 -11 q 113 62 137 30 q 88 132 88 95 q 118 205 88 176 q 217 258 148 235 l 422 328 l 422 403 q 401 468 422 439 q 345 513 380 496 q 264 529 309 529 q 215 514 228 529 q 199 453 202 499 l 197 404 q 123 406 153 392 q 92 450 92 420 q 111 494 92 471 q 159 536 129 517 q 224 570 189 556 q 298 590 260 585 q 450 538 392 590 q 510 403 509 487 l 507 164 q 509 116 507 142 q 515 79 511 90 l 601 62 l 601 26 l 540 4 q 508 -7 522 -3 q 484 -11 494 -11 q 435 34 445 -11 l 423 84 l 442 87 q 355 13 396 37 q 271 -11 313 -11 m 297 57 q 364 73 334 57 q 422 123 395 90 l 422 270 l 252 221 q 205 195 220 213 q 191 148 191 176 q 224 85 191 114 q 297 57 256 57 m 332 654 l 286 669 l 420 918 l 514 887 l 332 654 z "},"ă":{"ha":636,"x_min":88,"x_max":601,"o":"m 271 -11 q 178 9 220 -11 q 113 62 137 30 q 88 132 88 95 q 118 205 88 176 q 217 258 148 235 l 422 328 l 422 403 q 401 468 422 439 q 345 513 380 496 q 264 529 309 529 q 215 514 228 529 q 199 453 202 499 l 197 404 q 123 406 153 392 q 92 450 92 420 q 111 494 92 471 q 159 536 129 517 q 224 570 189 556 q 298 590 260 585 q 450 538 392 590 q 510 403 509 487 l 507 164 q 509 116 507 142 q 515 79 511 90 l 601 62 l 601 26 l 540 4 q 508 -7 522 -3 q 484 -11 494 -11 q 435 34 445 -11 l 423 84 l 442 87 q 355 13 396 37 q 271 -11 313 -11 m 297 57 q 364 73 334 57 q 422 123 395 90 l 422 270 l 252 221 q 205 195 220 213 q 191 148 191 176 q 224 85 191 114 q 297 57 256 57 m 441 918 l 486 902 q 437 731 484 792 q 311 670 389 670 q 219 698 258 670 q 157 777 180 726 q 133 902 134 827 l 183 918 q 227 794 193 837 q 312 751 260 751 q 399 794 366 751 q 441 918 433 837 z "},"ắ":{"ha":636,"x_min":88,"x_max":601,"o":"m 271 -11 q 178 9 220 -11 q 113 62 137 30 q 88 132 88 95 q 118 205 88 176 q 217 258 148 235 l 422 328 l 422 403 q 401 468 422 439 q 345 513 380 496 q 264 529 309 529 q 215 514 228 529 q 199 453 202 499 l 197 404 q 123 406 153 392 q 92 450 92 420 q 111 494 92 471 q 159 536 129 517 q 224 570 189 556 q 298 590 260 585 q 450 538 392 590 q 510 403 509 487 l 507 164 q 509 116 507 142 q 515 79 511 90 l 601 62 l 601 26 l 540 4 q 508 -7 522 -3 q 484 -11 494 -11 q 435 34 445 -11 l 423 84 l 442 87 q 355 13 396 37 q 271 -11 313 -11 m 297 57 q 364 73 334 57 q 422 123 395 90 l 422 270 l 252 221 q 205 195 220 213 q 191 148 191 176 q 224 85 191 114 q 297 57 256 57 m 441 918 l 486 902 q 437 731 484 792 q 311 670 389 670 q 219 698 258 670 q 157 777 180 726 q 133 902 134 827 l 183 918 q 227 794 193 837 q 312 751 260 751 q 399 794 366 751 q 441 918 433 837 m 319 860 l 273 875 l 372 1072 l 465 1040 l 319 860 z "},"ặ":{"ha":636,"x_min":88,"x_max":601,"o":"m 271 -11 q 178 9 220 -11 q 113 62 137 30 q 88 132 88 95 q 118 205 88 176 q 217 258 148 235 l 422 328 l 422 403 q 401 468 422 439 q 345 513 380 496 q 264 529 309 529 q 215 514 228 529 q 199 453 202 499 l 197 404 q 123 406 153 392 q 92 450 92 420 q 111 494 92 471 q 159 536 129 517 q 224 570 189 556 q 298 590 260 585 q 450 538 392 590 q 510 403 509 487 l 507 164 q 509 116 507 142 q 515 79 511 90 l 601 62 l 601 26 l 540 4 q 508 -7 522 -3 q 484 -11 494 -11 q 435 34 445 -11 l 423 84 l 442 87 q 355 13 396 37 q 271 -11 313 -11 m 297 57 q 364 73 334 57 q 422 123 395 90 l 422 270 l 252 221 q 205 195 220 213 q 191 148 191 176 q 224 85 191 114 q 297 57 256 57 m 334 -266 q 288 -249 308 -266 q 269 -205 269 -232 q 288 -160 269 -178 q 334 -142 308 -142 q 378 -160 359 -142 q 396 -205 396 -178 q 378 -249 396 -232 q 334 -266 359 -266 m 441 918 l 486 902 q 437 731 484 792 q 311 670 389 670 q 219 698 258 670 q 157 777 180 726 q 133 902 134 827 l 183 918 q 227 794 193 837 q 312 751 260 751 q 399 794 366 751 q 441 918 433 837 z "},"ằ":{"ha":636,"x_min":88,"x_max":601,"o":"m 271 -11 q 178 9 220 -11 q 113 62 137 30 q 88 132 88 95 q 118 205 88 176 q 217 258 148 235 l 422 328 l 422 403 q 401 468 422 439 q 345 513 380 496 q 264 529 309 529 q 215 514 228 529 q 199 453 202 499 l 197 404 q 123 406 153 392 q 92 450 92 420 q 111 494 92 471 q 159 536 129 517 q 224 570 189 556 q 298 590 260 585 q 450 538 392 590 q 510 403 509 487 l 507 164 q 509 116 507 142 q 515 79 511 90 l 601 62 l 601 26 l 540 4 q 508 -7 522 -3 q 484 -11 494 -11 q 435 34 445 -11 l 423 84 l 442 87 q 355 13 396 37 q 271 -11 313 -11 m 297 57 q 364 73 334 57 q 422 123 395 90 l 422 270 l 252 221 q 205 195 220 213 q 191 148 191 176 q 224 85 191 114 q 297 57 256 57 m 441 918 l 486 902 q 437 731 484 792 q 311 670 389 670 q 219 698 258 670 q 157 777 180 726 q 133 902 134 827 l 183 918 q 227 794 193 837 q 312 751 260 751 q 399 794 366 751 q 441 918 433 837 m 312 860 l 164 1040 l 260 1072 l 361 875 l 312 860 z "},"ẳ":{"ha":636,"x_min":88,"x_max":601,"o":"m 271 -11 q 178 9 220 -11 q 113 62 137 30 q 88 132 88 95 q 118 205 88 176 q 217 258 148 235 l 422 328 l 422 403 q 401 468 422 439 q 345 513 380 496 q 264 529 309 529 q 215 514 228 529 q 199 453 202 499 l 197 404 q 123 406 153 392 q 92 450 92 420 q 111 494 92 471 q 159 536 129 517 q 224 570 189 556 q 298 590 260 585 q 450 538 392 590 q 510 403 509 487 l 507 164 q 509 116 507 142 q 515 79 511 90 l 601 62 l 601 26 l 540 4 q 508 -7 522 -3 q 484 -11 494 -11 q 435 34 445 -11 l 423 84 l 442 87 q 355 13 396 37 q 271 -11 313 -11 m 297 57 q 364 73 334 57 q 422 123 395 90 l 422 270 l 252 221 q 205 195 220 213 q 191 148 191 176 q 224 85 191 114 q 297 57 256 57 m 441 891 l 486 875 q 462 768 484 814 q 401 696 439 723 q 311 670 363 670 q 219 696 258 670 q 157 768 180 723 q 133 875 134 814 l 183 891 q 227 791 193 830 q 312 751 260 751 q 399 791 366 751 q 441 891 433 830 m 315 1072 q 401 1048 368 1072 q 435 986 435 1025 q 419 936 435 952 q 382 907 403 920 q 346 878 362 895 q 330 829 330 861 l 290 829 l 290 852 q 306 915 290 891 q 337 956 321 939 q 353 993 353 974 q 328 1034 353 1028 q 274 1034 304 1040 l 320 1042 l 275 1001 q 250 979 258 985 q 225 972 241 972 q 202 982 212 972 q 193 1006 193 991 q 226 1050 193 1029 q 315 1072 259 1072 z "},"ẵ":{"ha":636,"x_min":88,"x_max":601,"o":"m 271 -11 q 178 9 220 -11 q 113 62 137 30 q 88 132 88 95 q 118 205 88 176 q 217 258 148 235 l 422 328 l 422 403 q 401 468 422 439 q 345 513 380 496 q 264 529 309 529 q 215 514 228 529 q 199 453 202 499 l 197 404 q 123 406 153 392 q 92 450 92 420 q 111 494 92 471 q 159 536 129 517 q 224 570 189 556 q 298 590 260 585 q 450 538 392 590 q 510 403 509 487 l 507 164 q 509 116 507 142 q 515 79 511 90 l 601 62 l 601 26 l 540 4 q 508 -7 522 -3 q 484 -11 494 -11 q 435 34 445 -11 l 423 84 l 442 87 q 355 13 396 37 q 271 -11 313 -11 m 297 57 q 364 73 334 57 q 422 123 395 90 l 422 270 l 252 221 q 205 195 220 213 q 191 148 191 176 q 224 85 191 114 q 297 57 256 57 m 311 670 q 216 696 256 670 q 155 768 176 723 q 133 864 133 812 l 183 882 q 227 792 193 831 q 312 753 260 753 q 399 792 366 753 q 441 882 433 831 l 486 864 q 464 768 486 812 q 403 696 442 723 q 311 670 363 670 m 393 910 q 332 930 362 910 q 271 970 301 951 q 216 989 241 989 q 172 970 189 989 q 140 921 155 952 l 104 943 q 154 1036 123 1001 q 225 1072 184 1072 q 287 1052 256 1072 q 347 1012 317 1032 q 404 991 377 991 q 446 1011 430 991 q 479 1062 463 1031 l 514 1039 q 465 945 496 981 q 393 910 434 910 z "},"â":{"ha":636,"x_min":88,"x_max":601,"o":"m 271 -11 q 178 9 220 -11 q 113 62 137 30 q 88 132 88 95 q 118 205 88 176 q 217 258 148 235 l 422 328 l 422 403 q 401 468 422 439 q 345 513 380 496 q 264 529 309 529 q 215 514 228 529 q 199 453 202 499 l 197 404 q 123 406 153 392 q 92 450 92 420 q 111 494 92 471 q 159 536 129 517 q 224 570 189 556 q 298 590 260 585 q 450 538 392 590 q 510 403 509 487 l 507 164 q 509 116 507 142 q 515 79 511 90 l 601 62 l 601 26 l 540 4 q 508 -7 522 -3 q 484 -11 494 -11 q 435 34 445 -11 l 423 84 l 442 87 q 355 13 396 37 q 271 -11 313 -11 m 297 57 q 364 73 334 57 q 422 123 395 90 l 422 270 l 252 221 q 205 195 220 213 q 191 148 191 176 q 224 85 191 114 q 297 57 256 57 m 491 669 l 444 654 l 269 864 l 350 864 l 175 654 l 127 669 l 266 899 l 353 899 l 491 669 z "},"ấ":{"ha":636,"x_min":88,"x_max":605,"o":"m 271 -11 q 178 9 220 -11 q 113 62 137 30 q 88 132 88 95 q 118 205 88 176 q 217 258 148 235 l 422 328 l 422 403 q 401 468 422 439 q 345 513 380 496 q 264 529 309 529 q 215 514 228 529 q 199 453 202 499 l 197 404 q 123 406 153 392 q 92 450 92 420 q 111 494 92 471 q 159 536 129 517 q 224 570 189 556 q 298 590 260 585 q 450 538 392 590 q 510 403 509 487 l 507 164 q 509 116 507 142 q 515 79 511 90 l 601 62 l 601 26 l 540 4 q 508 -7 522 -3 q 484 -11 494 -11 q 435 34 445 -11 l 423 84 l 442 87 q 355 13 396 37 q 271 -11 313 -11 m 297 57 q 364 73 334 57 q 422 123 395 90 l 422 270 l 252 221 q 205 195 220 213 q 191 148 191 176 q 224 85 191 114 q 297 57 256 57 m 491 669 l 444 654 l 269 864 l 350 864 l 175 654 l 127 669 l 266 899 l 353 899 l 491 669 m 458 860 l 412 875 l 510 1072 l 605 1040 l 458 860 z "},"ậ":{"ha":636,"x_min":88,"x_max":601,"o":"m 271 -11 q 178 9 220 -11 q 113 62 137 30 q 88 132 88 95 q 118 205 88 176 q 217 258 148 235 l 422 328 l 422 403 q 401 468 422 439 q 345 513 380 496 q 264 529 309 529 q 215 514 228 529 q 199 453 202 499 l 197 404 q 123 406 153 392 q 92 450 92 420 q 111 494 92 471 q 159 536 129 517 q 224 570 189 556 q 298 590 260 585 q 450 538 392 590 q 510 403 509 487 l 507 164 q 509 116 507 142 q 515 79 511 90 l 601 62 l 601 26 l 540 4 q 508 -7 522 -3 q 484 -11 494 -11 q 435 34 445 -11 l 423 84 l 442 87 q 355 13 396 37 q 271 -11 313 -11 m 297 57 q 364 73 334 57 q 422 123 395 90 l 422 270 l 252 221 q 205 195 220 213 q 191 148 191 176 q 224 85 191 114 q 297 57 256 57 m 334 -266 q 288 -249 308 -266 q 269 -205 269 -232 q 288 -160 269 -178 q 334 -142 308 -142 q 378 -160 359 -142 q 396 -205 396 -178 q 378 -249 396 -232 q 334 -266 359 -266 m 491 669 l 444 654 l 269 864 l 350 864 l 175 654 l 127 669 l 266 899 l 353 899 l 491 669 z "},"ầ":{"ha":636,"x_min":88,"x_max":601,"o":"m 271 -11 q 178 9 220 -11 q 113 62 137 30 q 88 132 88 95 q 118 205 88 176 q 217 258 148 235 l 422 328 l 422 403 q 401 468 422 439 q 345 513 380 496 q 264 529 309 529 q 215 514 228 529 q 199 453 202 499 l 197 404 q 123 406 153 392 q 92 450 92 420 q 111 494 92 471 q 159 536 129 517 q 224 570 189 556 q 298 590 260 585 q 450 538 392 590 q 510 403 509 487 l 507 164 q 509 116 507 142 q 515 79 511 90 l 601 62 l 601 26 l 540 4 q 508 -7 522 -3 q 484 -11 494 -11 q 435 34 445 -11 l 423 84 l 442 87 q 355 13 396 37 q 271 -11 313 -11 m 297 57 q 364 73 334 57 q 422 123 395 90 l 422 270 l 252 221 q 205 195 220 213 q 191 148 191 176 q 224 85 191 114 q 297 57 256 57 m 491 669 l 444 654 l 269 864 l 350 864 l 175 654 l 127 669 l 266 899 l 353 899 l 491 669 m 468 860 l 320 1040 l 416 1072 l 517 875 l 468 860 z "},"ẩ":{"ha":636,"x_min":88,"x_max":601,"o":"m 271 -11 q 178 9 220 -11 q 113 62 137 30 q 88 132 88 95 q 118 205 88 176 q 217 258 148 235 l 422 328 l 422 403 q 401 468 422 439 q 345 513 380 496 q 264 529 309 529 q 215 514 228 529 q 199 453 202 499 l 197 404 q 123 406 153 392 q 92 450 92 420 q 111 494 92 471 q 159 536 129 517 q 224 570 189 556 q 298 590 260 585 q 450 538 392 590 q 510 403 509 487 l 507 164 q 509 116 507 142 q 515 79 511 90 l 601 62 l 601 26 l 540 4 q 508 -7 522 -3 q 484 -11 494 -11 q 435 34 445 -11 l 423 84 l 442 87 q 355 13 396 37 q 271 -11 313 -11 m 297 57 q 364 73 334 57 q 422 123 395 90 l 422 270 l 252 221 q 205 195 220 213 q 191 148 191 176 q 224 85 191 114 q 297 57 256 57 m 491 669 l 444 654 l 269 864 l 350 864 l 175 654 l 127 669 l 266 899 l 353 899 l 491 669 m 461 1072 q 549 1049 515 1072 q 583 987 583 1027 q 567 937 583 954 q 530 908 551 920 q 494 880 510 897 q 477 831 477 864 l 438 831 l 438 854 q 453 916 438 892 q 484 956 468 939 q 499 993 499 974 q 475 1034 499 1028 q 422 1034 452 1040 l 468 1042 l 423 1001 q 397 979 406 985 q 374 972 389 972 q 349 982 358 972 q 340 1006 340 991 q 374 1050 340 1029 q 461 1072 407 1072 z "},"ẫ":{"ha":636,"x_min":88,"x_max":601,"o":"m 271 -11 q 178 9 220 -11 q 113 62 137 30 q 88 132 88 95 q 118 205 88 176 q 217 258 148 235 l 422 328 l 422 403 q 401 468 422 439 q 345 513 380 496 q 264 529 309 529 q 215 514 228 529 q 199 453 202 499 l 197 404 q 123 406 153 392 q 92 450 92 420 q 111 494 92 471 q 159 536 129 517 q 224 570 189 556 q 298 590 260 585 q 450 538 392 590 q 510 403 509 487 l 507 164 q 509 116 507 142 q 515 79 511 90 l 601 62 l 601 26 l 540 4 q 508 -7 522 -3 q 484 -11 494 -11 q 435 34 445 -11 l 423 84 l 442 87 q 355 13 396 37 q 271 -11 313 -11 m 297 57 q 364 73 334 57 q 422 123 395 90 l 422 270 l 252 221 q 205 195 220 213 q 191 148 191 176 q 224 85 191 114 q 297 57 256 57 m 175 654 l 127 669 l 266 861 l 353 861 l 491 669 l 444 654 l 269 825 l 350 825 l 175 654 m 393 910 q 332 930 362 910 q 272 970 301 951 q 217 989 243 989 q 174 970 190 989 q 142 921 157 952 l 106 943 q 155 1036 125 1001 q 225 1072 186 1072 q 287 1052 256 1072 q 347 1012 317 1032 q 403 991 376 991 q 445 1011 427 991 q 476 1062 463 1031 l 513 1039 q 464 945 495 981 q 393 910 433 910 z "},"ȁ":{"ha":636,"x_min":64,"x_max":601,"o":"m 271 -11 q 178 9 220 -11 q 113 62 137 30 q 88 132 88 95 q 118 205 88 176 q 217 258 148 235 l 422 328 l 422 403 q 401 468 422 439 q 345 513 380 496 q 264 529 309 529 q 215 514 228 529 q 199 453 202 499 l 197 404 q 123 406 153 392 q 92 450 92 420 q 111 494 92 471 q 159 536 129 517 q 224 570 189 556 q 298 590 260 585 q 450 538 392 590 q 510 403 509 487 l 507 164 q 509 116 507 142 q 515 79 511 90 l 601 62 l 601 26 l 540 4 q 508 -7 522 -3 q 484 -11 494 -11 q 435 34 445 -11 l 423 84 l 442 87 q 355 13 396 37 q 271 -11 313 -11 m 297 57 q 364 73 334 57 q 422 123 395 90 l 422 270 l 252 221 q 205 195 220 213 q 191 148 191 176 q 224 85 191 114 q 297 57 256 57 m 374 654 l 231 899 l 319 918 l 411 669 l 374 654 m 208 654 l 64 899 l 152 918 l 244 669 l 208 654 z "},"ä":{"ha":636,"x_min":88,"x_max":601,"o":"m 271 -11 q 178 9 220 -11 q 113 62 137 30 q 88 132 88 95 q 118 205 88 176 q 217 258 148 235 l 422 328 l 422 403 q 401 468 422 439 q 345 513 380 496 q 264 529 309 529 q 215 514 228 529 q 199 453 202 499 l 197 404 q 123 406 153 392 q 92 450 92 420 q 111 494 92 471 q 159 536 129 517 q 224 570 189 556 q 298 590 260 585 q 450 538 392 590 q 510 403 509 487 l 507 164 q 509 116 507 142 q 515 79 511 90 l 601 62 l 601 26 l 540 4 q 508 -7 522 -3 q 484 -11 494 -11 q 435 34 445 -11 l 423 84 l 442 87 q 355 13 396 37 q 271 -11 313 -11 m 297 57 q 364 73 334 57 q 422 123 395 90 l 422 270 l 252 221 q 205 195 220 213 q 191 148 191 176 q 224 85 191 114 q 297 57 256 57 m 208 723 q 163 740 182 723 q 145 784 145 757 q 163 828 145 811 q 208 845 182 845 q 251 828 233 845 q 269 784 269 811 q 251 740 269 757 q 208 723 233 723 m 414 723 q 369 740 388 723 q 350 784 350 757 q 369 828 350 811 q 414 845 388 845 q 456 828 439 845 q 473 784 473 811 q 456 740 473 757 q 414 723 439 723 z "},"ȧ":{"ha":636,"x_min":88,"x_max":601,"o":"m 271 -11 q 178 9 220 -11 q 113 62 137 30 q 88 132 88 95 q 118 205 88 176 q 217 258 148 235 l 422 328 l 422 403 q 401 468 422 439 q 345 513 380 496 q 264 529 309 529 q 215 514 228 529 q 199 453 202 499 l 197 404 q 123 406 153 392 q 92 450 92 420 q 111 494 92 471 q 159 536 129 517 q 224 570 189 556 q 298 590 260 585 q 450 538 392 590 q 510 403 509 487 l 507 164 q 509 116 507 142 q 515 79 511 90 l 601 62 l 601 26 l 540 4 q 508 -7 522 -3 q 484 -11 494 -11 q 435 34 445 -11 l 423 84 l 442 87 q 355 13 396 37 q 271 -11 313 -11 m 297 57 q 364 73 334 57 q 422 123 395 90 l 422 270 l 252 221 q 205 195 220 213 q 191 148 191 176 q 224 85 191 114 q 297 57 256 57 m 311 722 q 265 739 285 722 q 245 784 245 757 q 265 828 245 810 q 311 846 285 846 q 355 828 336 846 q 373 784 373 810 q 355 739 373 757 q 311 722 336 722 z "},"ạ":{"ha":636,"x_min":88,"x_max":601,"o":"m 271 -11 q 178 9 220 -11 q 113 62 137 30 q 88 132 88 95 q 118 205 88 176 q 217 258 148 235 l 422 328 l 422 403 q 401 468 422 439 q 345 513 380 496 q 264 529 309 529 q 215 514 228 529 q 199 453 202 499 l 197 404 q 123 406 153 392 q 92 450 92 420 q 111 494 92 471 q 159 536 129 517 q 224 570 189 556 q 298 590 260 585 q 450 538 392 590 q 510 403 509 487 l 507 164 q 509 116 507 142 q 515 79 511 90 l 601 62 l 601 26 l 540 4 q 508 -7 522 -3 q 484 -11 494 -11 q 435 34 445 -11 l 423 84 l 442 87 q 355 13 396 37 q 271 -11 313 -11 m 297 57 q 364 73 334 57 q 422 123 395 90 l 422 270 l 252 221 q 205 195 220 213 q 191 148 191 176 q 224 85 191 114 q 297 57 256 57 m 334 -266 q 288 -249 308 -266 q 269 -205 269 -232 q 288 -160 269 -178 q 334 -142 308 -142 q 378 -160 359 -142 q 396 -205 396 -178 q 378 -249 396 -232 q 334 -266 359 -266 z "},"à":{"ha":636,"x_min":88,"x_max":601,"o":"m 271 -11 q 178 9 220 -11 q 113 62 137 30 q 88 132 88 95 q 118 205 88 176 q 217 258 148 235 l 422 328 l 422 403 q 401 468 422 439 q 345 513 380 496 q 264 529 309 529 q 215 514 228 529 q 199 453 202 499 l 197 404 q 123 406 153 392 q 92 450 92 420 q 111 494 92 471 q 159 536 129 517 q 224 570 189 556 q 298 590 260 585 q 450 538 392 590 q 510 403 509 487 l 507 164 q 509 116 507 142 q 515 79 511 90 l 601 62 l 601 26 l 540 4 q 508 -7 522 -3 q 484 -11 494 -11 q 435 34 445 -11 l 423 84 l 442 87 q 355 13 396 37 q 271 -11 313 -11 m 297 57 q 364 73 334 57 q 422 123 395 90 l 422 270 l 252 221 q 205 195 220 213 q 191 148 191 176 q 224 85 191 114 q 297 57 256 57 m 285 654 l 103 887 l 199 918 l 334 669 l 285 654 z "},"ả":{"ha":636,"x_min":88,"x_max":601,"o":"m 271 -11 q 178 9 220 -11 q 113 62 137 30 q 88 132 88 95 q 118 205 88 176 q 217 258 148 235 l 422 328 l 422 403 q 401 468 422 439 q 345 513 380 496 q 264 529 309 529 q 215 514 228 529 q 199 453 202 499 l 197 404 q 123 406 153 392 q 92 450 92 420 q 111 494 92 471 q 159 536 129 517 q 224 570 189 556 q 298 590 260 585 q 450 538 392 590 q 510 403 509 487 l 507 164 q 509 116 507 142 q 515 79 511 90 l 601 62 l 601 26 l 540 4 q 508 -7 522 -3 q 484 -11 494 -11 q 435 34 445 -11 l 423 84 l 442 87 q 355 13 396 37 q 271 -11 313 -11 m 297 57 q 364 73 334 57 q 422 123 395 90 l 422 270 l 252 221 q 205 195 220 213 q 191 148 191 176 q 224 85 191 114 q 297 57 256 57 m 315 906 q 401 883 368 906 q 435 821 435 860 q 419 770 435 787 q 382 742 403 754 q 346 713 362 730 q 330 665 330 697 l 290 665 l 290 688 q 306 750 290 727 q 337 790 321 773 q 353 826 353 807 q 328 868 353 861 q 274 867 304 875 l 320 876 l 275 834 q 250 812 258 818 q 225 807 241 807 q 202 816 212 807 q 193 838 193 825 q 226 885 193 864 q 315 906 259 906 z "},"ȃ":{"ha":636,"x_min":88,"x_max":601,"o":"m 271 -11 q 178 9 220 -11 q 113 62 137 30 q 88 132 88 95 q 118 205 88 176 q 217 258 148 235 l 422 328 l 422 403 q 401 468 422 439 q 345 513 380 496 q 264 529 309 529 q 215 514 228 529 q 199 453 202 499 l 197 404 q 123 406 153 392 q 92 450 92 420 q 111 494 92 471 q 159 536 129 517 q 224 570 189 556 q 298 590 260 585 q 450 538 392 590 q 510 403 509 487 l 507 164 q 509 116 507 142 q 515 79 511 90 l 601 62 l 601 26 l 540 4 q 508 -7 522 -3 q 484 -11 494 -11 q 435 34 445 -11 l 423 84 l 442 87 q 355 13 396 37 q 271 -11 313 -11 m 297 57 q 364 73 334 57 q 422 123 395 90 l 422 270 l 252 221 q 205 195 220 213 q 191 148 191 176 q 224 85 191 114 q 297 57 256 57 m 179 654 l 133 669 q 157 796 134 745 q 220 874 180 848 q 312 901 259 901 q 437 841 391 901 q 486 669 484 781 l 437 654 q 393 778 427 736 q 308 819 359 819 q 220 778 255 819 q 179 654 186 736 z "},"ā":{"ha":636,"x_min":88,"x_max":601,"o":"m 271 -11 q 178 9 220 -11 q 113 62 137 30 q 88 132 88 95 q 118 205 88 176 q 217 258 148 235 l 422 328 l 422 403 q 401 468 422 439 q 345 513 380 496 q 264 529 309 529 q 215 514 228 529 q 199 453 202 499 l 197 404 q 123 406 153 392 q 92 450 92 420 q 111 494 92 471 q 159 536 129 517 q 224 570 189 556 q 298 590 260 585 q 450 538 392 590 q 510 403 509 487 l 507 164 q 509 116 507 142 q 515 79 511 90 l 601 62 l 601 26 l 540 4 q 508 -7 522 -3 q 484 -11 494 -11 q 435 34 445 -11 l 423 84 l 442 87 q 355 13 396 37 q 271 -11 313 -11 m 297 57 q 364 73 334 57 q 422 123 395 90 l 422 270 l 252 221 q 205 195 220 213 q 191 148 191 176 q 224 85 191 114 q 297 57 256 57 m 119 819 l 499 819 l 499 750 l 119 750 l 119 819 z "}}}
